%TF.GenerationSoftware,KiCad,Pcbnew,7.0.1-3b83917a11~172~ubuntu22.04.1*%
%TF.CreationDate,2023-04-04T04:15:16+02:00*%
%TF.ProjectId,EEE3088F_CKR,45454533-3038-4384-965f-434b522e6b69,0.2*%
%TF.SameCoordinates,Original*%
%TF.FileFunction,Paste,Top*%
%TF.FilePolarity,Positive*%
%FSLAX46Y46*%
G04 Gerber Fmt 4.6, Leading zero omitted, Abs format (unit mm)*
G04 Created by KiCad (PCBNEW 7.0.1-3b83917a11~172~ubuntu22.04.1) date 2023-04-04 04:15:16*
%MOMM*%
%LPD*%
G01*
G04 APERTURE LIST*
%ADD10R,0.540005X0.565659*%
%ADD11R,0.806477X0.864008*%
%ADD12R,1.377013X1.132537*%
%ADD13R,1.132537X1.377013*%
%ADD14R,1.399543X1.000000*%
%ADD15R,0.565659X0.540005*%
%ADD16R,0.950013X1.150013*%
%ADD17R,0.780010X0.350013*%
%ADD18R,0.864008X0.806477*%
%ADD19R,0.800000X0.800000*%
%ADD20R,1.700000X1.000000*%
%ADD21R,1.200000X0.600000*%
%ADD22R,2.400000X3.300000*%
%ADD23R,0.800000X1.000000*%
%ADD24R,0.584989X0.280010*%
%ADD25R,0.559995X1.370003*%
%ADD26R,0.800000X0.900000*%
%ADD27R,0.540005X0.790094*%
%ADD28R,1.000000X0.800000*%
%ADD29R,1.207518X1.701016*%
%ADD30R,5.500000X2.000000*%
%ADD31R,5.080010X7.620015*%
%ADD32R,0.400000X1.400000*%
%ADD33R,0.900000X0.800000*%
%ADD34R,0.790094X0.540005*%
%ADD35R,0.600000X1.000000*%
%ADD36O,1.864999X0.629997*%
%ADD37R,0.600000X1.070003*%
G04 APERTURE END LIST*
D10*
%TO.C,R52*%
X179000000Y-84500000D03*
X179000000Y-83634366D03*
%TD*%
D11*
%TO.C,R31*%
X150420000Y-97500000D03*
X148913268Y-97500000D03*
%TD*%
%TO.C,R45*%
X122246634Y-86500000D03*
X123753366Y-86500000D03*
%TD*%
D12*
%TO.C,R39*%
X192500000Y-61000000D03*
X192500000Y-59000000D03*
%TD*%
%TO.C,R6*%
X131000000Y-33000000D03*
X131000000Y-31000000D03*
%TD*%
D11*
%TO.C,R40*%
X182006732Y-79500000D03*
X180500000Y-79500000D03*
%TD*%
D13*
%TO.C,R11*%
X144500000Y-27000000D03*
X146500000Y-27000000D03*
%TD*%
D14*
%TO.C,D5*%
X192500000Y-42000000D03*
X192500000Y-44100584D03*
%TD*%
D15*
%TO.C,R50*%
X136000000Y-63500000D03*
X135134366Y-63500000D03*
%TD*%
D12*
%TO.C,R59*%
X164500000Y-39000000D03*
X164500000Y-37000000D03*
%TD*%
D11*
%TO.C,R18*%
X110993268Y-35500000D03*
X112500000Y-35500000D03*
%TD*%
%TO.C,R48*%
X154420000Y-95500000D03*
X152913268Y-95500000D03*
%TD*%
D16*
%TO.C,D1*%
X121000000Y-31000000D03*
X124384810Y-31000000D03*
%TD*%
D11*
%TO.C,R27*%
X133166634Y-95500000D03*
X134673366Y-95500000D03*
%TD*%
D17*
%TO.C,U6*%
X168000000Y-97649987D03*
X168000000Y-97000000D03*
X168000000Y-96350013D03*
X166020016Y-96350013D03*
X166020016Y-97000000D03*
X166020016Y-97649987D03*
%TD*%
D18*
%TO.C,R37*%
X110000000Y-94000000D03*
X110000000Y-92493268D03*
%TD*%
D11*
%TO.C,R46*%
X137166634Y-97500000D03*
X138673366Y-97500000D03*
%TD*%
%TO.C,R32*%
X185849987Y-96000000D03*
X184343255Y-96000000D03*
%TD*%
D19*
%TO.C,D2*%
X148500000Y-29000000D03*
X150098934Y-28993142D03*
%TD*%
D18*
%TO.C,R2*%
X158500000Y-33000000D03*
X158500000Y-31493268D03*
%TD*%
D20*
%TO.C,SW1*%
X192299975Y-38850191D03*
X185700025Y-38850216D03*
X192299975Y-35149784D03*
X185700025Y-35149809D03*
%TD*%
D21*
%TO.C,U2*%
X150908306Y-38405004D03*
X150908306Y-37135001D03*
X150908306Y-35864999D03*
X150908306Y-34594996D03*
X145091694Y-34594996D03*
X145091694Y-35864999D03*
X145091694Y-37135001D03*
X145091694Y-38405004D03*
D22*
X148000000Y-36500000D03*
%TD*%
D11*
%TO.C,R16*%
X108506732Y-31000000D03*
X107000000Y-31000000D03*
%TD*%
%TO.C,R56*%
X177000000Y-77500000D03*
X178506732Y-77500000D03*
%TD*%
%TO.C,R30*%
X179993268Y-96000000D03*
X181500000Y-96000000D03*
%TD*%
%TO.C,R55*%
X179413268Y-63500000D03*
X180920000Y-63500000D03*
%TD*%
%TO.C,R53*%
X145493268Y-63500000D03*
X147000000Y-63500000D03*
%TD*%
%TO.C,R43*%
X119246634Y-97000000D03*
X120753366Y-97000000D03*
%TD*%
D23*
%TO.C,Q4*%
X136406706Y-33149962D03*
X138306732Y-33149962D03*
X137356770Y-30849936D03*
%TD*%
D11*
%TO.C,R41*%
X182006732Y-77500000D03*
X180500000Y-77500000D03*
%TD*%
D18*
%TO.C,R1*%
X160500000Y-33006732D03*
X160500000Y-31500000D03*
%TD*%
D13*
%TO.C,R9*%
X146500000Y-29000000D03*
X144500000Y-29000000D03*
%TD*%
D11*
%TO.C,R34*%
X186413268Y-63500000D03*
X187920000Y-63500000D03*
%TD*%
%TO.C,R13*%
X126000000Y-38500000D03*
X127506732Y-38500000D03*
%TD*%
D12*
%TO.C,R5*%
X123000000Y-35000000D03*
X123000000Y-33000000D03*
%TD*%
D11*
%TO.C,R24*%
X123753366Y-81000000D03*
X122246634Y-81000000D03*
%TD*%
%TO.C,R19*%
X110993268Y-37500000D03*
X112500000Y-37500000D03*
%TD*%
D23*
%TO.C,Q5*%
X122049987Y-79150013D03*
X123950013Y-79150013D03*
X123000051Y-76849987D03*
%TD*%
D24*
%TO.C,U5*%
X160202524Y-96549936D03*
X160202524Y-97049809D03*
X160202524Y-97549936D03*
X162037424Y-97549936D03*
X162037424Y-97049809D03*
X162037424Y-96549936D03*
D25*
X161119974Y-97049809D03*
%TD*%
D20*
%TO.C,SW4*%
X119299975Y-93850191D03*
X112700025Y-93850216D03*
X119299975Y-90149784D03*
X112700025Y-90149809D03*
%TD*%
D11*
%TO.C,R54*%
X141993268Y-63500000D03*
X143500000Y-63500000D03*
%TD*%
D15*
%TO.C,TH1*%
X116253366Y-97000000D03*
X117119000Y-97000000D03*
%TD*%
D26*
%TO.C,C2*%
X147500000Y-32000000D03*
X148900050Y-32000000D03*
%TD*%
D18*
%TO.C,R58*%
X178500000Y-30493268D03*
X178500000Y-32000000D03*
%TD*%
D15*
%TO.C,R51*%
X132634366Y-63500000D03*
X133500000Y-63500000D03*
%TD*%
D18*
%TO.C,R4*%
X120000000Y-35506732D03*
X120000000Y-34000000D03*
%TD*%
D27*
%TO.C,C8*%
X131420000Y-81409830D03*
X131420000Y-82500000D03*
%TD*%
D13*
%TO.C,R8*%
X126000000Y-31000000D03*
X128000000Y-31000000D03*
%TD*%
D18*
%TO.C,R60*%
X164500000Y-35000000D03*
X164500000Y-33493268D03*
%TD*%
D28*
%TO.C,Q1*%
X158500000Y-37000000D03*
X158500000Y-38900026D03*
X160800026Y-37950064D03*
%TD*%
D29*
%TO.C,R28*%
X123295784Y-96500000D03*
X126253366Y-96500000D03*
%TD*%
D11*
%TO.C,R47*%
X180000000Y-98000000D03*
X181506732Y-98000000D03*
%TD*%
D18*
%TO.C,R36*%
X110000000Y-88000000D03*
X110000000Y-86493268D03*
%TD*%
D11*
%TO.C,R25*%
X133166634Y-97500000D03*
X134673366Y-97500000D03*
%TD*%
D20*
%TO.C,SW2*%
X119299975Y-81850191D03*
X112700025Y-81850216D03*
X119299975Y-78149784D03*
X112700025Y-78149809D03*
%TD*%
D11*
%TO.C,R57*%
X177000000Y-79500000D03*
X178506732Y-79500000D03*
%TD*%
D19*
%TO.C,D3*%
X148500000Y-27000000D03*
X150098934Y-26993142D03*
%TD*%
D27*
%TO.C,C7*%
X148420000Y-81409830D03*
X148420000Y-82500000D03*
%TD*%
D11*
%TO.C,R33*%
X182913268Y-63500000D03*
X184420000Y-63500000D03*
%TD*%
D13*
%TO.C,R3*%
X158500000Y-35000000D03*
X160500000Y-35000000D03*
%TD*%
D18*
%TO.C,R23*%
X109000000Y-43506732D03*
X109000000Y-42000000D03*
%TD*%
D12*
%TO.C,R38*%
X190000000Y-61000000D03*
X190000000Y-59000000D03*
%TD*%
D28*
%TO.C,Q6*%
X130673366Y-97500000D03*
X130673366Y-95599974D03*
X128373340Y-96549936D03*
%TD*%
D26*
%TO.C,C4*%
X111000000Y-39500000D03*
X112400050Y-39500000D03*
%TD*%
D12*
%TO.C,R7*%
X131000000Y-37500000D03*
X131000000Y-35500000D03*
%TD*%
D30*
%TO.C,Y1*%
X144320178Y-82000000D03*
X135420000Y-82000000D03*
%TD*%
D31*
%TO.C,u3*%
X108686817Y-51500000D03*
X191313183Y-51500000D03*
%TD*%
D11*
%TO.C,R21*%
X140500000Y-33000000D03*
X142006732Y-33000000D03*
%TD*%
D28*
%TO.C,Q8*%
X178150013Y-97950064D03*
X178150013Y-96050038D03*
X175849987Y-97000000D03*
%TD*%
D27*
%TO.C,C6*%
X169500000Y-96500000D03*
X169500000Y-95409830D03*
%TD*%
D28*
%TO.C,Q7*%
X156119974Y-95549936D03*
X156119974Y-97449962D03*
X158420000Y-96500000D03*
%TD*%
D12*
%TO.C,R12*%
X123000000Y-39000000D03*
X123000000Y-37000000D03*
%TD*%
D20*
%TO.C,SW3*%
X119299975Y-87850191D03*
X112700025Y-87850216D03*
X119299975Y-84149784D03*
X112700025Y-84149809D03*
%TD*%
D11*
%TO.C,R15*%
X108506732Y-33000000D03*
X107000000Y-33000000D03*
%TD*%
D13*
%TO.C,R49*%
X140000000Y-63500000D03*
X138000000Y-63500000D03*
%TD*%
D32*
%TO.C,U8*%
X159700026Y-29542672D03*
X159050038Y-29542672D03*
X158400051Y-29542672D03*
X157750064Y-29542672D03*
X157100076Y-29542672D03*
%TD*%
D33*
%TO.C,C1*%
X154500000Y-33299975D03*
X154500000Y-34700025D03*
%TD*%
D34*
%TO.C,C5*%
X159500000Y-95049936D03*
X160590170Y-95049936D03*
%TD*%
D11*
%TO.C,R26*%
X123753366Y-83000000D03*
X122246634Y-83000000D03*
%TD*%
D35*
%TO.C,U1*%
X128000000Y-33749936D03*
X127050038Y-33749936D03*
X126100076Y-33749936D03*
X126100076Y-36350140D03*
X128000000Y-36350140D03*
%TD*%
D23*
%TO.C,Q3*%
X112406758Y-30699974D03*
X110506732Y-30699974D03*
X111456694Y-33000000D03*
%TD*%
D12*
%TO.C,R14*%
X154500000Y-37000000D03*
X154500000Y-39000000D03*
%TD*%
D36*
%TO.C,U9*%
X135317501Y-35594996D03*
X135317501Y-36864999D03*
X135317501Y-38135001D03*
X135317501Y-39405004D03*
X140682499Y-39405004D03*
X140682499Y-38135001D03*
X140682499Y-36864999D03*
X140682499Y-35594996D03*
%TD*%
D26*
%TO.C,C3*%
X109000000Y-35500000D03*
X107599950Y-35500000D03*
%TD*%
D18*
%TO.C,R35*%
X110000000Y-81753366D03*
X110000000Y-80246634D03*
%TD*%
D11*
%TO.C,R29*%
X150420000Y-95500000D03*
X148913268Y-95500000D03*
%TD*%
%TO.C,R20*%
X140500000Y-31000000D03*
X142006732Y-31000000D03*
%TD*%
D18*
%TO.C,R44*%
X110000000Y-65493268D03*
X110000000Y-67000000D03*
%TD*%
D14*
%TO.C,D4*%
X190000000Y-42000000D03*
X190000000Y-44100584D03*
%TD*%
D18*
%TO.C,R10*%
X118000000Y-34000000D03*
X118000000Y-35506732D03*
%TD*%
D12*
%TO.C,R17*%
X114506732Y-33000000D03*
X114506732Y-31000000D03*
%TD*%
D28*
%TO.C,Q2*%
X120300026Y-38950064D03*
X120300026Y-37050038D03*
X118000000Y-38000000D03*
%TD*%
D12*
%TO.C,R22*%
X134006732Y-33000000D03*
X134006732Y-31000000D03*
%TD*%
D18*
%TO.C,R61*%
X166500000Y-35000000D03*
X166500000Y-33493268D03*
%TD*%
D37*
%TO.C,U4*%
X107314961Y-40000000D03*
X109214885Y-40000000D03*
X108264923Y-37529846D03*
%TD*%
D18*
%TO.C,R42*%
X174000000Y-97500000D03*
X174000000Y-95993268D03*
%TD*%
M02*
