M48
; DRILL file {KiCad 7.0.1-3b83917a11~172~ubuntu22.04.1} date Tue 04 Apr 2023 04:15:01
; FORMAT={-:-/ absolute / inch / decimal}
; #@! TF.CreationDate,2023-04-04T04:15:01+02:00
; #@! TF.GenerationSoftware,Kicad,Pcbnew,7.0.1-3b83917a11~172~ubuntu22.04.1
; #@! TF.FileFunction,Plated,1,2,PTH
FMAT,2
INCH
; #@! TA.AperFunction,Plated,PTH,ViaDrill
T1C0.0157
; #@! TA.AperFunction,Plated,PTH,ViaDrill
T2C0.0236
; #@! TA.AperFunction,Plated,PTH,ComponentDrill
T3C0.0276
; #@! TA.AperFunction,Plated,PTH,ViaDrill
T4C0.0354
; #@! TA.AperFunction,Plated,PTH,ComponentDrill
T5C0.0394
; #@! TA.AperFunction,Plated,PTH,ComponentDrill
T6C0.0433
; #@! TA.AperFunction,Plated,PTH,ComponentDrill
T7C0.0748
; #@! TA.AperFunction,Plated,PTH,ViaDrill
T8C0.1260
%
G90
G05
T1
X6.3976Y-3.7598
X6.4567Y-3.7598
X6.4961Y-3.7992
X6.7913Y-3.7205
X6.8504Y-3.7205
X7.1063Y-3.6811
X7.3031Y-1.3189
X7.3031Y-3.6811
X7.3622Y-1.3189
T2
X4.4488Y-1.3386
X4.4488Y-2.7756
X4.5472Y-1.6535
X4.5669Y-1.2992
X4.5669Y-3.6614
X4.5866Y-1.2402
X4.7638Y-1.8288
X4.7638Y-1.9114
X4.7854Y-1.2992
X4.8031Y-1.9862
X4.8228Y-3.7008
X4.8622Y-1.9488
X4.8622Y-3.4843
X4.8819Y-2.3622
X4.9213Y-1.3189
X4.9213Y-1.9488
X4.9213Y-3.563
X4.9409Y-2.2638
X4.9606Y-1.8288
X4.9606Y-2.126
X4.9803Y-1.9488
X4.9803Y-2.9134
X4.9803Y-3.2677
X5.0197Y-1.2795
X5.0197Y-1.8288
X5.0787Y-1.8288
X5.0817Y-1.3218
X5.0984Y-1.3976
X5.1673Y-1.9468
X5.2618Y-1.4527
X5.2756Y-2.3031
X5.4134Y-1.9488
X5.4331Y-1.3583
X5.4331Y-2.3405
X5.4528Y-3.7598
X5.4724Y-1.9094
X5.4724Y-1.9882
X5.4724Y-2.1063
X5.5315Y-1.6732
X5.5512Y-1.6142
X5.5906Y-1.1614
X5.6102Y-1.5551
X5.6299Y-3.8976
X5.6496Y-1.063
X5.6516Y-1.4567
X5.6693Y-1.9724
X5.748Y-2.9331
X5.748Y-3.0709
X5.748Y-3.1299
X5.8858Y-3.0709
X5.8858Y-3.1299
X6.2008Y-1.0827
X6.2795Y-1.0827
X6.3189Y-1.437
X6.3976Y-1.2402
X6.9685Y-1.5551
X7.0276Y-1.7323
X7.1063Y-1.437
X7.1063Y-1.5157
X7.2244Y-3.1299
X7.2244Y-3.8583
X7.2835Y-3.248
X7.2991Y-3.041
X7.3031Y-3.1299
X7.4213Y-2.9134
X7.4606Y-2.6575
X7.4606Y-3.0512
X7.4803Y-1.7913
X7.4803Y-2.2638
X7.4803Y-2.5
X7.5787Y-1.7913
X7.5787Y-2.2638
T3
X6.1408Y-1.1484
X6.3317Y-1.1484
T4
X4.2323Y-3.189
X4.2323Y-3.4252
X4.4094Y-1.7913
X4.4488Y-1.9488
X4.4488Y-2.0866
X4.5472Y-1.9291
X4.5669Y-3.3858
X4.5669Y-3.5236
X4.7047Y-1.6929
X4.7835Y-2.2244
X4.8228Y-1.2205
X4.8228Y-1.6142
X4.9213Y-1.1417
X4.9213Y-1.6142
X5.0984Y-2.126
X5.1378Y-3.0512
X5.1969Y-1.6929
X5.2953Y-1.0827
X5.2953Y-3.0512
X5.3543Y-1.1417
X5.4095Y-1.618
X5.4528Y-1.7126
X5.6693Y-1.6142
X5.8465Y-2.1654
X5.8661Y-1.3189
X5.9646Y-2.9331
X6.0236Y-1.3976
X6.122Y-3.0709
X6.1811Y-2.5
X6.2008Y-2.9331
X6.2402Y-1.811
X6.2598Y-3.2677
X6.3386Y-1.6535
X6.3386Y-2.1654
X6.6339Y-1.752
X6.8307Y-1.4173
X6.8701Y-2.3425
X7.0669Y-2.9331
X7.126Y-3.3071
X7.1457Y-2.2441
X7.2835Y-2.9134
X7.3425Y-3.3071
X7.4606Y-3.5827
T5
X4.2323Y-2.2638
X4.2323Y-2.3819
X4.2323Y-2.5
X4.2323Y-2.7756
X4.2323Y-2.8756
X4.2323Y-3.0709
X4.2323Y-3.3071
X4.2323Y-3.5433
X4.3898Y-1.0827
X4.4588Y-3.8189
X4.4898Y-1.0827
X4.5276Y-1.4173
X4.5276Y-1.5354
X4.6654Y-1.2402
X4.7047Y-1.0827
X4.8047Y-1.0827
X5.0197Y-1.0827
X5.0567Y-2.6181
X5.0567Y-2.8181
X5.0567Y-3.4181
X5.0567Y-3.6181
X5.1197Y-1.0827
X5.1567Y-2.6181
X5.1567Y-2.8181
X5.1567Y-3.4181
X5.1567Y-3.6181
X5.2197Y-1.0827
X5.2567Y-2.6181
X5.2567Y-2.8181
X5.2567Y-3.4181
X5.2567Y-3.6181
X5.3567Y-2.6181
X5.3567Y-2.8181
X5.3567Y-3.4181
X5.3567Y-3.6181
X5.4331Y-1.0827
X5.4567Y-2.6181
X5.4567Y-2.8181
X5.4567Y-3.4181
X5.4567Y-3.6181
X5.5512Y-1.0827
X5.5567Y-2.6181
X5.5567Y-2.8181
X5.5567Y-3.4181
X5.5567Y-3.6181
X5.6155Y-3.7992
X5.6567Y-2.6181
X5.6567Y-2.8181
X5.6567Y-3.4181
X5.6567Y-3.6181
X5.7087Y-1.2598
X5.7155Y-3.7992
X5.7567Y-2.6181
X5.7567Y-2.8181
X5.7567Y-3.4181
X5.7567Y-3.6181
X5.8567Y-2.6181
X5.8567Y-2.8181
X5.8567Y-3.4181
X5.8567Y-3.6181
X5.9567Y-2.6181
X5.9567Y-2.8181
X5.9567Y-3.4181
X5.9567Y-3.6181
X5.9646Y-1.2598
X6.0567Y-2.6181
X6.0567Y-2.8181
X6.0567Y-3.4181
X6.0567Y-3.6181
X6.1567Y-2.6181
X6.1567Y-2.8181
X6.1567Y-3.4181
X6.1567Y-3.6181
X6.2567Y-2.6181
X6.2567Y-2.8181
X6.2567Y-3.4181
X6.2567Y-3.6181
X6.3567Y-2.6181
X6.3567Y-2.8181
X6.3567Y-3.4181
X6.3567Y-3.6181
X6.4567Y-2.6181
X6.4567Y-2.8181
X6.4567Y-3.4181
X6.4567Y-3.6181
X6.5157Y-1.2205
X6.5213Y-1.0827
X6.5567Y-2.6181
X6.5567Y-2.8181
X6.5567Y-3.4181
X6.5567Y-3.6181
X6.6213Y-1.0827
X6.6567Y-2.6181
X6.6567Y-2.8181
X6.6567Y-3.4181
X6.6567Y-3.6181
X6.711Y-1.2402
X6.7213Y-1.0827
X6.752Y-3.7992
X6.7567Y-2.6181
X6.7567Y-2.8181
X6.7567Y-3.4181
X6.7567Y-3.6181
X6.811Y-1.2402
X6.8213Y-1.0827
X6.8567Y-2.6181
X6.8567Y-2.8181
X6.8567Y-3.4181
X6.8567Y-3.6181
X6.911Y-1.2402
X6.9213Y-1.0827
X6.9567Y-2.6181
X6.9567Y-2.8181
X6.9567Y-3.4181
X6.9567Y-3.6181
X7.0213Y-1.0827
X7.0567Y-2.6181
X7.0567Y-2.8181
X7.0567Y-3.4181
X7.0567Y-3.6181
X7.1213Y-1.0827
X7.1567Y-2.6181
X7.1567Y-2.8181
X7.1567Y-3.4181
X7.1567Y-3.6181
X7.2213Y-1.0827
X7.2213Y-1.2402
X7.2567Y-2.6181
X7.2567Y-2.8181
X7.2567Y-3.4181
X7.2567Y-3.6181
X7.3213Y-1.0827
X7.3213Y-1.2402
X7.3567Y-2.6181
X7.3567Y-2.8181
X7.3567Y-3.4181
X7.3567Y-3.6181
X7.4213Y-1.0827
X7.4213Y-1.2402
X7.5787Y-2.5
X7.5787Y-2.6181
X7.5787Y-2.7559
X7.5787Y-2.8559
X7.5787Y-3.0118
X7.5787Y-3.1118
X7.5787Y-3.2677
X7.5787Y-3.3858
X7.5787Y-3.5827
X7.5787Y-3.7008
T6
X4.8819Y-2.6575
X4.8819Y-2.7559
X4.8819Y-2.8543
X6.5791Y-2.9996
X6.5791Y-3.2996
X6.6791Y-2.9996
X6.6791Y-3.2996
X6.7791Y-2.9996
X6.7791Y-3.2996
X6.8791Y-2.9996
X6.8791Y-3.2996
T8
X4.2323Y-1.0827
X4.2323Y-3.8386
X7.5787Y-1.0827
X7.5787Y-3.8386
T3
G00X6.0945Y-1.0591
M15
G01X6.0945Y-1.0276
M16
G05
G00X6.378Y-1.0591
M15
G01X6.378Y-1.0276
M16
G05
T7
G00X4.6004Y-2.563
M15
G01X4.6122Y-2.563
M16
G05
G00X4.6004Y-2.9488
M15
G01X4.6122Y-2.9488
M16
G05
T0
M30
