M48
; DRILL file {KiCad 7.0.1-3b83917a11~172~ubuntu22.04.1} date Tue 21 Mar 2023 11:42:06
; FORMAT={-:-/ absolute / inch / decimal}
; #@! TF.CreationDate,2023-03-21T11:42:06+02:00
; #@! TF.GenerationSoftware,Kicad,Pcbnew,7.0.1-3b83917a11~172~ubuntu22.04.1
; #@! TF.FileFunction,Plated,1,2,PTH
FMAT,2
INCH
; #@! TA.AperFunction,Plated,PTH,ViaDrill
T1C0.0157
; #@! TA.AperFunction,Plated,PTH,ComponentDrill
T2C0.0276
; #@! TA.AperFunction,Plated,PTH,ComponentDrill
T3C0.0394
; #@! TA.AperFunction,Plated,PTH,ComponentDrill
T4C0.0433
; #@! TA.AperFunction,Plated,PTH,ComponentDrill
T5C0.0472
; #@! TA.AperFunction,Plated,PTH,ComponentDrill
T6C0.0748
%
G90
G05
T1
X3.6161Y-4.5276
X3.6555Y-2.5984
X3.6752Y-2.9528
X3.7402Y-4.1339
X3.7795Y-4.3307
X3.9114Y-3.1299
X3.9311Y-4.311
X3.9508Y-4.0354
X3.9705Y-4.2126
X4.128Y-4.7835
X4.1339Y-4.1732
X4.1476Y-4.3898
X4.2913Y-3.7205
X4.3051Y-3.4449
X4.3051Y-3.5138
X4.3051Y-3.5827
X4.3051Y-3.6516
X4.3051Y-4.0354
X4.3051Y-4.0945
X4.3051Y-4.2815
X4.3051Y-4.3307
X4.3445Y-3.2283
X4.3898Y-4.3307
X4.4016Y-3.9843
X4.4094Y-3.4055
X4.4094Y-3.878
X4.4193Y-3.1024
X4.4272Y-4.4134
X4.4291Y-3.5236
X4.4488Y-3.622
X4.4488Y-3.7598
X4.4744Y-3.6673
X4.4744Y-4.1181
X4.502Y-4.2047
X4.5335Y-4.0039
X4.5669Y-2.5984
X4.6457Y-3.0512
X4.6457Y-3.1496
X4.6654Y-4.2323
X4.6654Y-4.3504
X4.685Y-2.7953
X4.685Y-2.8937
X4.7047Y-3.937
X4.7244Y-3.0512
X4.7244Y-3.1496
X4.7461Y-5.2736
X4.7835Y-3.622
X4.7953Y-3.372
X4.8228Y-3.2283
X4.8228Y-4.2323
X4.8425Y-2.7953
X4.8425Y-4.3504
X4.8543Y-4.7461
X4.8819Y-2.9724
X4.9016Y-4.1142
X4.9016Y-5.0
X4.9232Y-4.9272
X4.9409Y-4.8228
X5.002Y-2.5502
X5.1811Y-2.7756
X5.2067Y-4.5768
X5.2303Y-5.3465
X5.2343Y-4.5276
X5.3727Y-5.2599
X5.3937Y-2.5394
X5.4784Y-3.1693
X5.4862Y-3.374
X5.4862Y-3.9173
X5.5256Y-3.7717
X5.689Y-4.0354
X5.9252Y-3.9173
X6.1614Y-5.2559
X6.2992Y-3.248
X6.3386Y-3.3465
X6.3976Y-3.3071
X6.4921Y-4.1299
X6.5157Y-4.3898
X6.5157Y-5.1378
X6.5551Y-4.8622
X6.5689Y-4.2992
X6.5906Y-4.5394
X6.6732Y-4.4882
X6.7323Y-4.252
X6.8898Y-5.1181
X6.9291Y-2.8937
X6.9291Y-3.0925
X6.9311Y-4.0591
X7.0295Y-4.3819
X7.0768Y-3.248
X7.0807Y-4.2717
X7.1161Y-3.9961
X7.2441Y-4.1339
T2
X7.1558Y-4.0837
X7.1558Y-4.2746
T3
X3.9114Y-4.7638
X4.0689Y-4.1142
X4.0689Y-4.252
X4.2212Y-3.3385
X4.2212Y-3.7485
X4.2264Y-4.4488
X4.3248Y-2.6181
X4.8169Y-3.8055
X4.8169Y-3.9055
X4.8169Y-4.0055
X4.8858Y-4.5551
X5.0138Y-2.776
X5.0138Y-2.876
X5.0138Y-2.976
X5.0138Y-3.076
X5.0138Y-3.176
X5.0138Y-3.276
X5.0138Y-3.376
X5.0138Y-3.476
X5.0138Y-3.576
X5.0138Y-3.676
X5.0138Y-3.776
X5.0138Y-3.876
X5.0138Y-3.976
X5.0138Y-4.076
X5.0138Y-4.176
X5.0138Y-4.276
X5.0138Y-4.376
X5.0138Y-4.476
X5.0138Y-4.576
X5.0138Y-4.676
X5.0138Y-4.776
X5.0138Y-4.876
X5.0138Y-4.976
X5.0138Y-5.076
X5.6138Y-2.776
X5.6138Y-2.876
X5.6138Y-2.976
X5.6138Y-3.076
X5.6138Y-3.176
X5.6138Y-3.276
X5.6138Y-3.376
X5.6138Y-3.476
X5.6138Y-3.576
X5.6138Y-3.676
X5.6138Y-3.776
X5.6138Y-3.876
X5.6138Y-3.976
X5.6138Y-4.076
X5.6138Y-4.176
X5.6138Y-4.276
X5.6138Y-4.376
X5.6138Y-4.476
X5.6138Y-4.576
X5.6138Y-4.676
X5.6138Y-4.776
X5.6138Y-4.876
X5.6138Y-4.976
X5.6138Y-5.076
X5.7402Y-3.4567
X5.7815Y-4.4744
X5.8287Y-2.7677
X5.8327Y-2.872
X5.8445Y-3.7717
X6.25Y-5.187
X6.2677Y-2.5236
X6.5354Y-4.6594
X6.6791Y-4.6476
X6.6949Y-3.0591
X6.7382Y-4.1339
X6.7461Y-4.374
X6.8386Y-4.5098
X6.9409Y-3.7953
X6.9547Y-4.5079
X6.9744Y-1.6772
X7.1654Y-2.2874
X7.1654Y-2.7362
T4
X3.7205Y-3.4406
X3.7205Y-3.7406
X3.8205Y-3.4406
X3.8205Y-3.7406
X3.8917Y-2.995
X3.9205Y-3.4406
X3.9205Y-3.7406
X3.9902Y-2.995
X4.0205Y-3.4406
X4.0205Y-3.7406
X4.0886Y-2.995
T5
X3.5177Y-1.8307
X3.5177Y-1.9307
X7.1791Y-1.8307
X7.1791Y-1.9307
T2
G00X7.2452Y-4.0374
M15
G01X7.2767Y-4.0374
M16
G05
G00X7.2452Y-4.3209
M15
G01X7.2767Y-4.3209
M16
G05
T6
G00X3.7972Y-2.7135
M15
G01X3.7972Y-2.7253
M16
G05
G00X4.1831Y-2.7135
M15
G01X4.1831Y-2.7253
M16
G05
T0
M30
