%TF.GenerationSoftware,KiCad,Pcbnew,7.0.1-3b83917a11~172~ubuntu22.04.1*%
%TF.CreationDate,2023-03-21T11:42:11+02:00*%
%TF.ProjectId,EEE3088F_CKR,45454533-3038-4384-965f-434b522e6b69,rev?*%
%TF.SameCoordinates,Original*%
%TF.FileFunction,Copper,L2,Bot*%
%TF.FilePolarity,Positive*%
%FSLAX46Y46*%
G04 Gerber Fmt 4.6, Leading zero omitted, Abs format (unit mm)*
G04 Created by KiCad (PCBNEW 7.0.1-3b83917a11~172~ubuntu22.04.1) date 2023-03-21 11:42:11*
%MOMM*%
%LPD*%
G01*
G04 APERTURE LIST*
%TA.AperFunction,ComponentPad*%
%ADD10O,1.700000X1.700000*%
%TD*%
%TA.AperFunction,ComponentPad*%
%ADD11C,1.800000*%
%TD*%
%TA.AperFunction,ComponentPad*%
%ADD12R,1.500000X1.500000*%
%TD*%
%TA.AperFunction,ComponentPad*%
%ADD13C,1.500000*%
%TD*%
%TA.AperFunction,ComponentPad*%
%ADD14R,1.700000X1.700000*%
%TD*%
%TA.AperFunction,ComponentPad*%
%ADD15R,2.000000X2.000000*%
%TD*%
%TA.AperFunction,ComponentPad*%
%ADD16C,2.000000*%
%TD*%
%TA.AperFunction,ComponentPad*%
%ADD17C,1.300000*%
%TD*%
%TA.AperFunction,ComponentPad*%
%ADD18O,2.200000X1.300000*%
%TD*%
%TA.AperFunction,ComponentPad*%
%ADD19O,2.900000X3.000000*%
%TD*%
%TA.AperFunction,ViaPad*%
%ADD20C,0.800000*%
%TD*%
%TA.AperFunction,Conductor*%
%ADD21C,0.400000*%
%TD*%
%TA.AperFunction,Conductor*%
%ADD22C,0.600000*%
%TD*%
%TA.AperFunction,Conductor*%
%ADD23C,0.250000*%
%TD*%
G04 APERTURE END LIST*
D10*
%TO.P,TP21,1,1*%
%TO.N,GND*%
X148150000Y-72950000D03*
%TD*%
%TO.P,TP17,1,1*%
%TO.N,/Microcontroller/SW3*%
X169650000Y-118050000D03*
%TD*%
%TO.P,TP3,1,1*%
%TO.N,/Power/3.3V UVLO{slash}polarity protector*%
X170050000Y-77700000D03*
%TD*%
%TO.P,TP22,1,1*%
%TO.N,/Microcontroller/BOOT0*%
X124100000Y-115700000D03*
%TD*%
%TO.P,TP4,1,1*%
%TO.N,Net-(J1-Pin_2)*%
X177150000Y-42600000D03*
%TD*%
D11*
%TO.P,U7,1,A0*%
%TO.N,GND*%
X94500000Y-95010008D03*
%TO.P,U7,2,A1*%
X97040005Y-95010008D03*
%TO.P,U7,3,A2*%
X99580011Y-95010008D03*
%TO.P,U7,4,GND*%
X102120016Y-95010008D03*
%TO.P,U7,5,SDA*%
%TO.N,Net-(U7-SDA)*%
X102120016Y-87389992D03*
%TO.P,U7,6,SCL*%
%TO.N,Net-(U7-SCL)*%
X99580011Y-87389992D03*
%TO.P,U7,7,WP*%
%TO.N,GND*%
X97040005Y-87389992D03*
%TO.P,U7,8,VCC*%
%TO.N,+3V3*%
X94500000Y-87389992D03*
%TD*%
D10*
%TO.P,TP11,1,1*%
%TO.N,/Sensors/Light_interrupt*%
X103350000Y-108000000D03*
%TD*%
%TO.P,TP5,1,1*%
%TO.N,/Power/polarity protected battery voltage*%
X159200000Y-64100000D03*
%TD*%
D12*
%TO.P,J4,1,Pin_1*%
%TO.N,/Microcontroller/NSRT*%
X122350000Y-101740005D03*
D13*
%TO.P,J4,2,Pin_2*%
%TO.N,/Microcontroller/SWDIO*%
X122350000Y-99200000D03*
%TO.P,J4,3,Pin_3*%
%TO.N,/Microcontroller/SWCLK*%
X122350000Y-96659995D03*
%TD*%
D10*
%TO.P,TP27,1,1*%
%TO.N,Net-(U8-D-)*%
X176650000Y-114500000D03*
%TD*%
%TO.P,TP23,1,1*%
%TO.N,/Microcontroller/Tx*%
X171150000Y-105000000D03*
%TD*%
D14*
%TO.P,J3,1,_VBAT*%
%TO.N,+3V3*%
X142590000Y-128930000D03*
D10*
%TO.P,J3,2,_PC13*%
%TO.N,unconnected-(J3-_PC13-Pad2)*%
X142590000Y-126390000D03*
%TO.P,J3,3,_PC14*%
%TO.N,unconnected-(J3-_PC14-Pad3)*%
X142590000Y-123850000D03*
%TO.P,J3,4,_PC15*%
%TO.N,unconnected-(J3-_PC15-Pad4)*%
X142590000Y-121310000D03*
%TO.P,J3,5,_PF0*%
%TO.N,unconnected-(J3-_PF0-Pad5)*%
X142590000Y-118770000D03*
%TO.P,J3,6,_PF1*%
%TO.N,unconnected-(J3-_PF1-Pad6)*%
X142590000Y-116230000D03*
%TO.P,J3,7,_NSRT*%
%TO.N,/Microcontroller/NSRT*%
X142590000Y-113690000D03*
%TO.P,J3,8,_VSSA*%
%TO.N,GND*%
X142590000Y-111150000D03*
%TO.P,J3,9,_VDDA*%
%TO.N,+3V3*%
X142590000Y-108610000D03*
%TO.P,J3,10,_PA0*%
%TO.N,/Microcontroller/THM_2*%
X142590000Y-106070000D03*
%TO.P,J3,11,_PA1*%
%TO.N,/Microcontroller/POT_2*%
X142590000Y-103530000D03*
%TO.P,J3,12,_PA2*%
%TO.N,/Microcontroller/Tx_2*%
X142590000Y-100990000D03*
%TO.P,J3,13,_PA3*%
%TO.N,/Microcontroller/Rx_2*%
X142590000Y-98450000D03*
%TO.P,J3,14,_PA4*%
%TO.N,/Microcontroller/INT_2*%
X142590000Y-95910000D03*
%TO.P,J3,15,_PA5*%
%TO.N,/Microcontroller/LED1_1*%
X142590000Y-93370000D03*
%TO.P,J3,16,_PA6*%
%TO.N,/Microcontroller/LED2_1*%
X142590000Y-90830000D03*
%TO.P,J3,17,_PA7*%
%TO.N,unconnected-(J3-_PA7-Pad17)*%
X142590000Y-88290000D03*
%TO.P,J3,18,_PB0*%
%TO.N,/Microcontroller/THM_1*%
X142590000Y-85750000D03*
%TO.P,J3,19,_PB1*%
%TO.N,/Microcontroller/POT_1*%
X142590000Y-83210000D03*
%TO.P,J3,20,_PB2*%
%TO.N,/Microcontroller/POT_P_1*%
X142590000Y-80670000D03*
%TO.P,J3,21,_PB10*%
%TO.N,/Microcontroller/SCL_1*%
X142590000Y-78130000D03*
%TO.P,J3,22,_PB11*%
%TO.N,/Microcontroller/SDA_1*%
X142590000Y-75590000D03*
%TO.P,J3,23,_VSS*%
%TO.N,GND*%
X142590000Y-73050000D03*
%TO.P,J3,24,_VDD*%
%TO.N,+3V3*%
X142590000Y-70510000D03*
%TO.P,J3,25,PB12_*%
%TO.N,/Microcontroller/INT_1*%
X127350000Y-70510000D03*
%TO.P,J3,26,PB13_*%
%TO.N,/Microcontroller/SW1*%
X127350000Y-73050000D03*
%TO.P,J3,27,PB14_*%
%TO.N,/Microcontroller/SW2*%
X127350000Y-75590000D03*
%TO.P,J3,28,PB15_*%
%TO.N,/Microcontroller/SW3*%
X127350000Y-78130000D03*
%TO.P,J3,29,PA8_*%
%TO.N,/Microcontroller/POT_P_2*%
X127350000Y-80670000D03*
%TO.P,J3,30,PA9_*%
%TO.N,/Microcontroller/THM_P_2*%
X127350000Y-83210000D03*
%TO.P,J3,31,PA10_*%
%TO.N,/Microcontroller/Lght_P_2*%
X127350000Y-85750000D03*
%TO.P,J3,32,PA11_*%
%TO.N,/Microcontroller/TeHu_P_2*%
X127350000Y-88290000D03*
%TO.P,J3,33,PA12_*%
%TO.N,unconnected-(J3-PA12_-Pad33)*%
X127350000Y-90830000D03*
%TO.P,J3,34,PA13_*%
%TO.N,/Microcontroller/SWDIO*%
X127350000Y-93370000D03*
%TO.P,J3,35,PA6_*%
%TO.N,unconnected-(J3-PA6_-Pad35)*%
X127350000Y-95910000D03*
%TO.P,J3,36,PF7_*%
%TO.N,unconnected-(J3-PF7_-Pad36)*%
X127350000Y-98450000D03*
%TO.P,J3,37,PA14_*%
%TO.N,/Microcontroller/SWCLK*%
X127350000Y-100990000D03*
%TO.P,J3,38,PA15_*%
%TO.N,unconnected-(J3-PA15_-Pad38)*%
X127350000Y-103530000D03*
%TO.P,J3,39,PB3_*%
%TO.N,/Microcontroller/THM_P_1*%
X127350000Y-106070000D03*
%TO.P,J3,40,PB4_*%
%TO.N,/Microcontroller/Lght_P_1*%
X127350000Y-108610000D03*
%TO.P,J3,41,PB5_*%
%TO.N,/Microcontroller/TeHu_P_1*%
X127350000Y-111150000D03*
%TO.P,J3,42,PB6_*%
%TO.N,/Microcontroller/Tx_1*%
X127350000Y-113690000D03*
%TO.P,J3,43,PB7_*%
%TO.N,/Microcontroller/Rx_1*%
X127350000Y-116230000D03*
%TO.P,J3,44,BOOT0_*%
%TO.N,/Microcontroller/BOOT0*%
X127350000Y-118770000D03*
%TO.P,J3,45,PB8_*%
%TO.N,/Microcontroller/SCL_2*%
X127350000Y-121310000D03*
%TO.P,J3,46,PB9_*%
%TO.N,/Microcontroller/SDA_2*%
X127350000Y-123850000D03*
%TO.P,J3,47,VSS_*%
%TO.N,GND*%
X127350000Y-126390000D03*
D14*
%TO.P,J3,48,VDD_*%
%TO.N,+3V3*%
X127350000Y-128930000D03*
%TD*%
D10*
%TO.P,TP18,1,1*%
%TO.N,+3V3*%
X148050000Y-70300000D03*
%TD*%
D15*
%TO.P,J2,1,Pin_1*%
%TO.N,GND*%
X89350000Y-46500000D03*
D16*
%TO.P,J2,2,Pin_2*%
%TO.N,+3V3*%
X89350000Y-49040006D03*
%TD*%
D10*
%TO.P,TP2,1,1*%
%TO.N,Net-(U1-BAT)*%
X182000000Y-58100000D03*
%TD*%
%TO.P,TP16,1,1*%
%TO.N,/Microcontroller/SW2*%
X166000000Y-118350000D03*
%TD*%
%TO.P,TP10,1,1*%
%TO.N,/Sensors/Light_SCL*%
X107350000Y-113000000D03*
%TD*%
D15*
%TO.P,J1,1,Pin_1*%
%TO.N,GND*%
X182350000Y-46500000D03*
D16*
%TO.P,J1,2,Pin_2*%
%TO.N,Net-(J1-Pin_2)*%
X182350000Y-49040006D03*
%TD*%
D10*
%TO.P,TP26,1,1*%
%TO.N,Net-(U7-SDA)*%
X107218000Y-95212000D03*
%TD*%
%TO.P,TP1,1,1*%
%TO.N,Net-(D1-A)*%
X182000000Y-69500000D03*
%TD*%
%TO.P,TP15,1,1*%
%TO.N,/Microcontroller/SW1*%
X158750000Y-131750000D03*
%TD*%
%TO.P,TP28,1,1*%
%TO.N,Net-(U8-D+)*%
X173700000Y-114550000D03*
%TD*%
%TO.P,TP19,1,1*%
%TO.N,/Microcontroller/LED1_1*%
X148450000Y-95800000D03*
%TD*%
%TO.P,TP7,1,1*%
%TO.N,/Microcontroller/Potentiometer_signal*%
X109850000Y-66500000D03*
%TD*%
%TO.P,TP8,1,1*%
%TO.N,/Microcontroller/Thermistor_signal*%
X99350000Y-121000000D03*
%TD*%
%TO.P,TP6,1,1*%
%TO.N,+3V3*%
X176300000Y-96400000D03*
%TD*%
%TO.P,TP24,1,1*%
%TO.N,/Microcontroller/Rx*%
X171350000Y-111100000D03*
%TD*%
%TO.P,TP9,1,1*%
%TO.N,/Sensors/Light_SDA*%
X103350000Y-104500000D03*
%TD*%
D17*
%TO.P,U8,6,SH1*%
%TO.N,GND*%
X181758446Y-103725057D03*
D18*
%TO.P,U8,7,SH2*%
X184428499Y-102550051D03*
%TO.P,U8,8,SH3*%
X184428499Y-109749949D03*
D17*
%TO.P,U8,9,SH4*%
X181758446Y-108574943D03*
%TD*%
D10*
%TO.P,TP25,1,1*%
%TO.N,Net-(U7-SCL)*%
X107218000Y-84798000D03*
%TD*%
%TO.P,TP20,1,1*%
%TO.N,/Microcontroller/LED2_1*%
X145800000Y-87800000D03*
%TD*%
%TO.P,TP14,1,1*%
%TO.N,/Microcontroller/NSRT*%
X146850000Y-113650000D03*
%TD*%
D11*
%TO.P,RV1,1,1*%
%TO.N,Net-(Q4-D)*%
X98849873Y-76072009D03*
%TO.P,RV1,2,2*%
%TO.N,/Microcontroller/Potentiometer_signal*%
X101350000Y-76072009D03*
%TO.P,RV1,3,3*%
%TO.N,GND*%
X103849873Y-76072009D03*
D19*
%TO.P,RV1,4*%
%TO.N,N/C*%
X96450076Y-69072009D03*
%TO.P,RV1,5*%
X106249924Y-69072009D03*
%TD*%
D20*
%TO.N,GND*%
X119500000Y-100000000D03*
X123000000Y-71000000D03*
X124500000Y-127000000D03*
X100350000Y-102500000D03*
X122500000Y-82000000D03*
X166500000Y-123500000D03*
X96000000Y-110000000D03*
X169500000Y-114000000D03*
X161000000Y-85000000D03*
X110350000Y-82000000D03*
X116000000Y-66000000D03*
X93350000Y-75000000D03*
X175000000Y-130000000D03*
X121500000Y-92000000D03*
X99850000Y-109500000D03*
X92850000Y-66000000D03*
X105350000Y-111500000D03*
X119000000Y-73500000D03*
X176000000Y-73500000D03*
X144500000Y-102500000D03*
X137000000Y-64500000D03*
X165500000Y-130500000D03*
X171000000Y-108000000D03*
X105000000Y-106000000D03*
X112000000Y-98500000D03*
X118500000Y-110500000D03*
X125500000Y-122500000D03*
X124500000Y-104500000D03*
X139350000Y-99500000D03*
X99350000Y-79500000D03*
X184000000Y-105000000D03*
X95000000Y-105000000D03*
X150500000Y-99500000D03*
X156500000Y-133500000D03*
X165500000Y-111500000D03*
X118500000Y-107500000D03*
X119000000Y-71000000D03*
X123000000Y-110500000D03*
X111500000Y-110000000D03*
X124000000Y-75500000D03*
X100850000Y-107000000D03*
X122500000Y-107500000D03*
X91850000Y-115000000D03*
X104850000Y-121500000D03*
X109000000Y-94500000D03*
%TO.N,Net-(D1-A)*%
X179750000Y-82500000D03*
X176000000Y-78550000D03*
%TO.N,+3V3*%
X176050000Y-103100000D03*
X131600000Y-70500000D03*
X120550000Y-133950000D03*
X167400000Y-115300000D03*
X178550000Y-111300000D03*
%TO.N,Net-(U2--)*%
X160000000Y-82500000D03*
X162500000Y-84000000D03*
%TO.N,/Microcontroller/Tx_2*%
X164900000Y-104900000D03*
%TO.N,/Microcontroller/Rx_2*%
X166850000Y-109200000D03*
%TO.N,/Microcontroller/INT_2*%
X140350000Y-95800000D03*
%TO.N,/Microcontroller/THM_1*%
X139350000Y-85700000D03*
%TO.N,/Microcontroller/POT_P_1*%
X139150500Y-80500000D03*
%TO.N,/Microcontroller/SCL_1*%
X118000000Y-77500000D03*
X118000000Y-80000000D03*
X112000000Y-86500000D03*
X109350000Y-89250000D03*
X109350000Y-108750000D03*
%TO.N,/Microcontroller/SDA_1*%
X109350000Y-102500000D03*
X120000000Y-80000000D03*
X109350000Y-92750000D03*
X112500000Y-89500000D03*
X120000000Y-77500000D03*
%TO.N,/Microcontroller/INT_1*%
X113000000Y-95500000D03*
X113000000Y-92000000D03*
X127050000Y-64774500D03*
%TO.N,/Microcontroller/POT_P_2*%
X112250000Y-78800000D03*
%TO.N,/Microcontroller/THM_P_2*%
X115150000Y-101700000D03*
%TO.N,/Microcontroller/Lght_P_2*%
X113650000Y-93150000D03*
X121800000Y-85650000D03*
%TO.N,/Microcontroller/TeHu_P_2*%
X113650000Y-104600000D03*
%TO.N,/Microcontroller/THM_P_1*%
X114350500Y-106800000D03*
%TO.N,/Microcontroller/Lght_P_1*%
X111800000Y-101200000D03*
%TO.N,/Microcontroller/TeHu_P_1*%
X112450000Y-112100000D03*
%TO.N,/Microcontroller/Tx_1*%
X132950000Y-115000000D03*
%TO.N,/Microcontroller/Rx_1*%
X132250000Y-116250000D03*
%TO.N,/Microcontroller/SCL_2*%
X109350000Y-110000000D03*
X109350000Y-87500000D03*
X123300000Y-120550000D03*
%TO.N,/Microcontroller/SDA_2*%
X125050000Y-125150000D03*
X109350000Y-91000000D03*
X109350000Y-104000000D03*
%TO.N,/Microcontroller/NSRT*%
X132850000Y-135800000D03*
X136465332Y-133600500D03*
%TO.N,+5V*%
X180750000Y-101500000D03*
X179850000Y-108500000D03*
%TD*%
D21*
%TO.N,GND*%
X142590000Y-73050000D02*
X148050000Y-73050000D01*
X148050000Y-73050000D02*
X148150000Y-72950000D01*
D22*
%TO.N,Net-(D1-A)*%
X176000000Y-78550000D02*
X176000000Y-78750000D01*
X176000000Y-78750000D02*
X179750000Y-82500000D01*
%TO.N,+3V3*%
X178550000Y-111300000D02*
X178550000Y-108700000D01*
D21*
X127350000Y-128930000D02*
X142590000Y-128930000D01*
D22*
X149530000Y-108610000D02*
X142590000Y-108610000D01*
X178550000Y-108700000D02*
X176050000Y-106200000D01*
X131610000Y-70510000D02*
X131600000Y-70500000D01*
D21*
X142590000Y-70510000D02*
X147840000Y-70510000D01*
D22*
X142590000Y-70510000D02*
X131610000Y-70510000D01*
X176050000Y-106200000D02*
X176050000Y-103100000D01*
X125570000Y-128930000D02*
X127350000Y-128930000D01*
X167400000Y-115300000D02*
X156220000Y-115300000D01*
D21*
X147840000Y-70510000D02*
X148050000Y-70300000D01*
D22*
X120550000Y-133950000D02*
X125570000Y-128930000D01*
X156220000Y-115300000D02*
X149530000Y-108610000D01*
X156220000Y-115300000D02*
X142590000Y-128930000D01*
%TO.N,Net-(U2--)*%
X160000000Y-82500000D02*
X161000000Y-82500000D01*
X161000000Y-82500000D02*
X162500000Y-84000000D01*
D21*
%TO.N,/Microcontroller/Tx_2*%
X164900000Y-104900000D02*
X160990000Y-100990000D01*
X160990000Y-100990000D02*
X142590000Y-100990000D01*
%TO.N,/Microcontroller/Rx_2*%
X166850000Y-105718629D02*
X159581371Y-98450000D01*
X166850000Y-109200000D02*
X166850000Y-105718629D01*
X159581371Y-98450000D02*
X142590000Y-98450000D01*
%TO.N,/Microcontroller/INT_2*%
X140350000Y-95800000D02*
X142480000Y-95800000D01*
X142480000Y-95800000D02*
X142590000Y-95910000D01*
%TO.N,/Microcontroller/THM_1*%
X142540000Y-85700000D02*
X142590000Y-85750000D01*
X139350000Y-85700000D02*
X142540000Y-85700000D01*
%TO.N,/Microcontroller/POT_P_1*%
X142420000Y-80500000D02*
X142590000Y-80670000D01*
X139150500Y-80500000D02*
X142420000Y-80500000D01*
%TO.N,/Microcontroller/SCL_1*%
X118000000Y-77500000D02*
X118000000Y-67000000D01*
X109350000Y-108750000D02*
X110150000Y-107950000D01*
X144000000Y-61000000D02*
X153000000Y-70000000D01*
X112000000Y-86500000D02*
X118000000Y-80500000D01*
X118000000Y-67000000D02*
X124000000Y-61000000D01*
X153000000Y-75500000D02*
X150370000Y-78130000D01*
X124000000Y-61000000D02*
X144000000Y-61000000D01*
X110150000Y-107950000D02*
X110150000Y-90050000D01*
X118000000Y-80500000D02*
X118000000Y-80000000D01*
X153000000Y-70000000D02*
X153000000Y-75500000D01*
X150370000Y-78130000D02*
X142590000Y-78130000D01*
X110150000Y-90050000D02*
X109350000Y-89250000D01*
%TO.N,/Microcontroller/SDA_1*%
X136500000Y-76000000D02*
X136910000Y-75590000D01*
X120000000Y-66500000D02*
X124500000Y-62000000D01*
X132000000Y-76000000D02*
X136500000Y-76000000D01*
X106500000Y-93000000D02*
X109100000Y-93000000D01*
X105500000Y-98650000D02*
X105500000Y-94000000D01*
X120000000Y-77500000D02*
X120000000Y-66500000D01*
X129500000Y-73500000D02*
X132000000Y-76000000D01*
X112500000Y-89500000D02*
X120000000Y-82000000D01*
X136910000Y-75590000D02*
X142590000Y-75590000D01*
X129500000Y-63500000D02*
X129500000Y-73500000D01*
X109100000Y-93000000D02*
X109350000Y-92750000D01*
X105500000Y-94000000D02*
X106500000Y-93000000D01*
X124500000Y-62000000D02*
X128000000Y-62000000D01*
X120000000Y-82000000D02*
X120000000Y-80000000D01*
X128000000Y-62000000D02*
X129500000Y-63500000D01*
X109350000Y-102500000D02*
X105500000Y-98650000D01*
%TO.N,/Microcontroller/INT_1*%
X112850000Y-92150000D02*
X113000000Y-92000000D01*
X127350000Y-65074500D02*
X127050000Y-64774500D01*
X127350000Y-70510000D02*
X127350000Y-65074500D01*
X113000000Y-95500000D02*
X112850000Y-95350000D01*
X112850000Y-95350000D02*
X112850000Y-92150000D01*
%TO.N,/Microcontroller/POT_P_2*%
X125480000Y-78800000D02*
X127350000Y-80670000D01*
X112250000Y-78800000D02*
X125480000Y-78800000D01*
%TO.N,/Microcontroller/THM_P_2*%
X115150000Y-95410000D02*
X127350000Y-83210000D01*
X115150000Y-101700000D02*
X115150000Y-95410000D01*
%TO.N,/Microcontroller/Lght_P_2*%
X113650000Y-93150000D02*
X121150000Y-85650000D01*
X121150000Y-85650000D02*
X121800000Y-85650000D01*
%TO.N,/Microcontroller/TeHu_P_2*%
X118150000Y-100100000D02*
X118150000Y-97490000D01*
X113650000Y-104600000D02*
X118150000Y-100100000D01*
X118150000Y-97490000D02*
X127350000Y-88290000D01*
%TO.N,/Microcontroller/SWDIO*%
X124850000Y-95870000D02*
X127350000Y-93370000D01*
X124850000Y-96700000D02*
X124850000Y-95870000D01*
X122350000Y-99200000D02*
X124850000Y-96700000D01*
%TO.N,/Microcontroller/THM_P_1*%
X114350500Y-106800000D02*
X115080500Y-106070000D01*
X115080500Y-106070000D02*
X127350000Y-106070000D01*
%TO.N,/Microcontroller/Lght_P_1*%
X111800000Y-105800000D02*
X114610000Y-108610000D01*
X114610000Y-108610000D02*
X127350000Y-108610000D01*
X111800000Y-101200000D02*
X111800000Y-105800000D01*
%TO.N,/Microcontroller/TeHu_P_1*%
X112450000Y-112100000D02*
X126400000Y-112100000D01*
X126400000Y-112100000D02*
X127350000Y-111150000D01*
D23*
%TO.N,/Microcontroller/Tx_1*%
X131540000Y-113690000D02*
X127350000Y-113690000D01*
X132950000Y-115000000D02*
X132200000Y-114250000D01*
X132100000Y-114250000D02*
X131540000Y-113690000D01*
X132200000Y-114250000D02*
X132100000Y-114250000D01*
%TO.N,/Microcontroller/Rx_1*%
X132230000Y-116230000D02*
X132250000Y-116250000D01*
X127350000Y-116230000D02*
X132230000Y-116230000D01*
D21*
%TO.N,/Microcontroller/SCL_2*%
X109350000Y-110000000D02*
X108900000Y-109550000D01*
X109681371Y-109550000D02*
X110750000Y-108481371D01*
X108900000Y-109550000D02*
X109681371Y-109550000D01*
X110750000Y-88900000D02*
X109350000Y-87500000D01*
X123300000Y-120550000D02*
X119768629Y-120550000D01*
X109350000Y-110131371D02*
X109350000Y-110000000D01*
X119768629Y-120550000D02*
X109350000Y-110131371D01*
X110750000Y-108481371D02*
X110750000Y-88900000D01*
%TO.N,/Microcontroller/SDA_2*%
X104500000Y-99150000D02*
X104500000Y-93000000D01*
X109350000Y-106150000D02*
X109350000Y-104000000D01*
X106500000Y-91000000D02*
X109350000Y-91000000D01*
X104500000Y-93000000D02*
X106500000Y-91000000D01*
X103000000Y-117500000D02*
X103000000Y-112500000D01*
X110650000Y-125150000D02*
X103000000Y-117500000D01*
X103000000Y-112500000D02*
X109350000Y-106150000D01*
X109350000Y-104000000D02*
X104500000Y-99150000D01*
X125050000Y-125150000D02*
X110650000Y-125150000D01*
%TO.N,/Microcontroller/NSRT*%
X134050000Y-135800000D02*
X136249500Y-133600500D01*
X132850000Y-135800000D02*
X134050000Y-135800000D01*
X136249500Y-133600500D02*
X136465332Y-133600500D01*
X146850000Y-113650000D02*
X142630000Y-113650000D01*
X142630000Y-113650000D02*
X142590000Y-113690000D01*
D22*
%TO.N,+5V*%
X179850000Y-102400000D02*
X180750000Y-101500000D01*
X179850000Y-108500000D02*
X179850000Y-102400000D01*
%TD*%
%TA.AperFunction,Conductor*%
%TO.N,GND*%
G36*
X111612818Y-106622588D02*
G01*
X111662181Y-106652838D01*
X114097058Y-109087715D01*
X114102178Y-109093153D01*
X114142071Y-109138183D01*
X114191577Y-109172354D01*
X114197596Y-109176785D01*
X114238603Y-109208911D01*
X114244943Y-109213878D01*
X114254190Y-109218039D01*
X114273726Y-109229058D01*
X114282070Y-109234818D01*
X114338334Y-109256155D01*
X114345195Y-109258997D01*
X114400068Y-109283694D01*
X114410036Y-109285520D01*
X114431652Y-109291546D01*
X114441128Y-109295140D01*
X114500856Y-109302392D01*
X114508201Y-109303509D01*
X114567394Y-109314357D01*
X114627422Y-109310726D01*
X114634910Y-109310500D01*
X126127289Y-109310500D01*
X126184546Y-109324511D01*
X126228863Y-109363376D01*
X126311505Y-109481401D01*
X126478599Y-109648495D01*
X126664160Y-109778426D01*
X126703024Y-109822743D01*
X126717035Y-109880000D01*
X126703024Y-109937257D01*
X126664158Y-109981575D01*
X126508828Y-110090339D01*
X126478595Y-110111508D01*
X126311505Y-110278598D01*
X126175965Y-110472170D01*
X126076097Y-110686336D01*
X126014936Y-110914592D01*
X125994340Y-111150000D01*
X126004375Y-111264693D01*
X125991657Y-111331151D01*
X125945944Y-111381038D01*
X125880847Y-111399500D01*
X113058156Y-111399500D01*
X113019838Y-111393431D01*
X112985270Y-111375818D01*
X112929650Y-111335408D01*
X112902730Y-111315849D01*
X112902729Y-111315848D01*
X112902727Y-111315847D01*
X112729802Y-111238855D01*
X112544648Y-111199500D01*
X112544646Y-111199500D01*
X112355354Y-111199500D01*
X112355352Y-111199500D01*
X112170197Y-111238855D01*
X111997269Y-111315848D01*
X111844128Y-111427111D01*
X111833136Y-111439319D01*
X111777240Y-111474925D01*
X111710990Y-111476658D01*
X111653309Y-111444023D01*
X110303337Y-110094051D01*
X110271243Y-110038464D01*
X110271243Y-109974276D01*
X110303335Y-109918691D01*
X111227731Y-108994295D01*
X111233150Y-108989194D01*
X111278183Y-108949300D01*
X111312377Y-108899760D01*
X111316770Y-108893790D01*
X111353878Y-108846427D01*
X111358035Y-108837189D01*
X111369061Y-108817639D01*
X111374818Y-108809301D01*
X111396152Y-108753045D01*
X111398994Y-108746182D01*
X111423695Y-108691302D01*
X111425522Y-108681327D01*
X111431549Y-108659710D01*
X111435140Y-108650243D01*
X111442387Y-108590550D01*
X111443514Y-108583148D01*
X111454358Y-108523977D01*
X111450726Y-108463937D01*
X111450500Y-108456450D01*
X111450500Y-106740519D01*
X111464015Y-106684224D01*
X111501615Y-106640201D01*
X111555102Y-106618046D01*
X111612818Y-106622588D01*
G37*
%TD.AperFunction*%
%TA.AperFunction,Conductor*%
G36*
X126184546Y-106784511D02*
G01*
X126228863Y-106823376D01*
X126311505Y-106941401D01*
X126478599Y-107108495D01*
X126664160Y-107238426D01*
X126703024Y-107282743D01*
X126717035Y-107340000D01*
X126703024Y-107397257D01*
X126664160Y-107441574D01*
X126528825Y-107536337D01*
X126478595Y-107571508D01*
X126311505Y-107738598D01*
X126255896Y-107818017D01*
X126229482Y-107855741D01*
X126228864Y-107856623D01*
X126184546Y-107895489D01*
X126127289Y-107909500D01*
X114951519Y-107909500D01*
X114904066Y-107900061D01*
X114863838Y-107873181D01*
X114772754Y-107782097D01*
X114742011Y-107731182D01*
X114738513Y-107671808D01*
X114763066Y-107617635D01*
X114793983Y-107593596D01*
X114792687Y-107591812D01*
X114956370Y-107472889D01*
X115083033Y-107332216D01*
X115177679Y-107168284D01*
X115177679Y-107168283D01*
X115236174Y-106988256D01*
X115241364Y-106938868D01*
X115252764Y-106898450D01*
X115277000Y-106864155D01*
X115334339Y-106806817D01*
X115374568Y-106779939D01*
X115422020Y-106770500D01*
X126127289Y-106770500D01*
X126184546Y-106784511D01*
G37*
%TD.AperFunction*%
%TA.AperFunction,Conductor*%
G36*
X125185934Y-79509939D02*
G01*
X125226162Y-79536819D01*
X125987347Y-80298004D01*
X126019440Y-80353589D01*
X126019442Y-80417774D01*
X126014936Y-80434590D01*
X125994340Y-80670000D01*
X126014936Y-80905407D01*
X126031689Y-80967928D01*
X126076097Y-81133663D01*
X126175965Y-81347830D01*
X126311505Y-81541401D01*
X126478599Y-81708495D01*
X126664160Y-81838426D01*
X126703024Y-81882743D01*
X126717035Y-81940000D01*
X126703024Y-81997257D01*
X126664158Y-82041575D01*
X126482360Y-82168872D01*
X126478595Y-82171508D01*
X126311505Y-82338598D01*
X126175965Y-82532170D01*
X126076097Y-82746336D01*
X126014936Y-82974592D01*
X125994340Y-83209999D01*
X126014936Y-83445410D01*
X126019441Y-83462222D01*
X126019440Y-83526408D01*
X125987347Y-83581994D01*
X114672290Y-94897051D01*
X114666838Y-94902183D01*
X114621816Y-94942070D01*
X114587649Y-94991568D01*
X114583213Y-94997597D01*
X114546121Y-95044942D01*
X114541961Y-95054186D01*
X114530941Y-95073725D01*
X114525182Y-95082069D01*
X114503853Y-95138305D01*
X114500989Y-95145219D01*
X114476303Y-95200070D01*
X114474475Y-95210047D01*
X114468454Y-95231648D01*
X114464859Y-95241128D01*
X114457609Y-95300827D01*
X114456483Y-95308226D01*
X114445641Y-95367391D01*
X114449274Y-95427434D01*
X114449500Y-95434921D01*
X114449500Y-101084608D01*
X114441264Y-101129045D01*
X114417650Y-101167580D01*
X114417466Y-101167783D01*
X114322820Y-101331715D01*
X114264326Y-101511742D01*
X114244540Y-101700000D01*
X114264326Y-101888257D01*
X114322820Y-102068284D01*
X114417466Y-102232216D01*
X114544129Y-102372889D01*
X114624943Y-102431603D01*
X114660247Y-102471332D01*
X114675676Y-102522192D01*
X114668394Y-102574839D01*
X114639739Y-102619602D01*
X113587027Y-103672315D01*
X113558514Y-103693607D01*
X113525127Y-103705924D01*
X113370197Y-103738855D01*
X113197269Y-103815848D01*
X113044129Y-103927110D01*
X112917466Y-104067783D01*
X112822820Y-104231715D01*
X112764326Y-104411742D01*
X112764325Y-104411744D01*
X112764326Y-104411744D01*
X112747852Y-104568495D01*
X112747821Y-104568786D01*
X112736150Y-104599999D01*
X112747820Y-104631212D01*
X112758772Y-104735408D01*
X112764326Y-104788257D01*
X112822820Y-104968284D01*
X112917466Y-105132216D01*
X113044129Y-105272889D01*
X113197269Y-105384151D01*
X113370197Y-105461144D01*
X113555352Y-105500500D01*
X113555354Y-105500500D01*
X113744646Y-105500500D01*
X113744648Y-105500500D01*
X113906383Y-105466122D01*
X113929803Y-105461144D01*
X114102730Y-105384151D01*
X114113284Y-105376483D01*
X114255870Y-105272889D01*
X114382533Y-105132216D01*
X114477179Y-104968284D01*
X114520195Y-104835894D01*
X114535674Y-104788256D01*
X114540864Y-104738866D01*
X114552263Y-104698450D01*
X114576500Y-104664155D01*
X118627731Y-100612924D01*
X118633150Y-100607823D01*
X118678183Y-100567929D01*
X118712355Y-100518420D01*
X118716775Y-100512413D01*
X118753878Y-100465057D01*
X118758035Y-100455819D01*
X118769060Y-100436270D01*
X118774818Y-100427930D01*
X118796152Y-100371673D01*
X118798996Y-100364808D01*
X118823695Y-100309932D01*
X118825522Y-100299958D01*
X118831552Y-100278331D01*
X118835140Y-100268871D01*
X118839056Y-100236623D01*
X118842387Y-100209181D01*
X118843514Y-100201778D01*
X118843740Y-100200543D01*
X118854358Y-100142606D01*
X118850726Y-100082566D01*
X118850500Y-100075079D01*
X118850500Y-97831519D01*
X118859939Y-97784066D01*
X118886819Y-97743838D01*
X122311053Y-94319604D01*
X125790726Y-90839929D01*
X125851568Y-90806550D01*
X125920817Y-90811089D01*
X125976783Y-90852124D01*
X126001935Y-90916803D01*
X126014936Y-91065407D01*
X126034617Y-91138856D01*
X126076097Y-91293663D01*
X126175965Y-91507830D01*
X126311505Y-91701401D01*
X126478599Y-91868495D01*
X126664160Y-91998426D01*
X126703024Y-92042743D01*
X126717035Y-92100000D01*
X126703024Y-92157257D01*
X126664158Y-92201575D01*
X126486026Y-92326305D01*
X126478595Y-92331508D01*
X126311505Y-92498598D01*
X126175965Y-92692170D01*
X126076097Y-92906336D01*
X126014936Y-93134592D01*
X125994340Y-93369999D01*
X126014936Y-93605410D01*
X126019441Y-93622222D01*
X126019440Y-93686408D01*
X125987347Y-93741994D01*
X124372290Y-95357051D01*
X124366838Y-95362183D01*
X124321816Y-95402070D01*
X124287649Y-95451568D01*
X124283213Y-95457597D01*
X124246121Y-95504942D01*
X124241961Y-95514186D01*
X124230941Y-95533725D01*
X124225182Y-95542069D01*
X124203853Y-95598305D01*
X124200989Y-95605219D01*
X124176303Y-95660070D01*
X124174475Y-95670047D01*
X124168454Y-95691648D01*
X124164859Y-95701128D01*
X124157609Y-95760827D01*
X124156483Y-95768226D01*
X124145641Y-95827391D01*
X124149274Y-95887434D01*
X124149500Y-95894921D01*
X124149500Y-96358481D01*
X124140061Y-96405934D01*
X124113181Y-96446162D01*
X123816968Y-96742374D01*
X123756125Y-96775754D01*
X123686876Y-96771215D01*
X123630911Y-96730179D01*
X123605759Y-96665500D01*
X123588908Y-96472888D01*
X123586207Y-96442018D01*
X123529575Y-96230665D01*
X123437102Y-96032357D01*
X123311598Y-95853118D01*
X123156877Y-95698397D01*
X122977639Y-95572893D01*
X122873768Y-95524457D01*
X122779331Y-95480420D01*
X122567974Y-95423787D01*
X122350000Y-95404717D01*
X122132025Y-95423787D01*
X121920668Y-95480420D01*
X121722361Y-95572893D01*
X121543122Y-95698397D01*
X121388402Y-95853117D01*
X121262898Y-96032356D01*
X121170425Y-96230663D01*
X121113792Y-96442020D01*
X121094722Y-96659994D01*
X121113792Y-96877969D01*
X121170425Y-97089326D01*
X121207078Y-97167928D01*
X121262898Y-97287634D01*
X121388402Y-97466872D01*
X121543123Y-97621593D01*
X121722361Y-97747097D01*
X121873588Y-97817615D01*
X121925763Y-97863372D01*
X121945183Y-97929997D01*
X121925764Y-97996622D01*
X121873588Y-98042379D01*
X121722361Y-98112898D01*
X121543122Y-98238402D01*
X121388402Y-98393122D01*
X121262898Y-98572361D01*
X121170425Y-98770668D01*
X121113792Y-98982025D01*
X121094722Y-99200000D01*
X121113792Y-99417974D01*
X121170425Y-99629331D01*
X121212705Y-99720000D01*
X121262898Y-99827639D01*
X121388402Y-100006877D01*
X121543123Y-100161598D01*
X121689270Y-100263931D01*
X121729596Y-100311147D01*
X121741976Y-100371994D01*
X121723305Y-100431214D01*
X121678264Y-100473957D01*
X121618148Y-100489505D01*
X121552130Y-100489505D01*
X121492515Y-100495914D01*
X121357669Y-100546209D01*
X121242454Y-100632459D01*
X121156204Y-100747673D01*
X121105909Y-100882521D01*
X121099500Y-100942135D01*
X121099500Y-102537874D01*
X121105909Y-102597489D01*
X121128702Y-102658599D01*
X121156204Y-102732336D01*
X121242454Y-102847551D01*
X121357669Y-102933801D01*
X121492517Y-102984096D01*
X121552127Y-102990505D01*
X123147872Y-102990504D01*
X123207483Y-102984096D01*
X123342331Y-102933801D01*
X123457546Y-102847551D01*
X123543796Y-102732336D01*
X123594091Y-102597488D01*
X123600500Y-102537878D01*
X123600499Y-100942133D01*
X123594091Y-100882522D01*
X123543796Y-100747674D01*
X123457546Y-100632459D01*
X123342331Y-100546209D01*
X123207483Y-100495914D01*
X123147873Y-100489505D01*
X123147869Y-100489505D01*
X123081854Y-100489505D01*
X123021738Y-100473958D01*
X122976696Y-100431215D01*
X122958024Y-100371995D01*
X122970404Y-100311147D01*
X123010729Y-100263931D01*
X123156877Y-100161598D01*
X123311598Y-100006877D01*
X123437102Y-99827639D01*
X123529575Y-99629330D01*
X123586207Y-99417977D01*
X123605277Y-99200000D01*
X123589027Y-99014268D01*
X123596034Y-98961051D01*
X123624873Y-98915782D01*
X125327731Y-97212924D01*
X125333150Y-97207823D01*
X125378183Y-97167929D01*
X125412355Y-97118420D01*
X125416775Y-97112413D01*
X125453878Y-97065057D01*
X125458035Y-97055819D01*
X125469060Y-97036270D01*
X125474818Y-97027930D01*
X125496150Y-96971678D01*
X125498999Y-96964800D01*
X125523695Y-96909931D01*
X125525522Y-96899956D01*
X125531549Y-96878339D01*
X125535140Y-96868872D01*
X125542387Y-96809179D01*
X125543514Y-96801777D01*
X125554358Y-96742606D01*
X125550726Y-96682566D01*
X125550500Y-96675079D01*
X125550500Y-96211519D01*
X125559939Y-96164066D01*
X125586819Y-96123838D01*
X125678441Y-96032216D01*
X125790727Y-95919929D01*
X125851568Y-95886550D01*
X125920817Y-95891089D01*
X125976783Y-95932124D01*
X126001935Y-95996803D01*
X126014936Y-96145407D01*
X126052292Y-96284822D01*
X126076097Y-96373663D01*
X126175965Y-96587830D01*
X126311505Y-96781401D01*
X126478599Y-96948495D01*
X126664160Y-97078426D01*
X126703024Y-97122743D01*
X126717035Y-97180000D01*
X126703024Y-97237257D01*
X126664159Y-97281575D01*
X126633738Y-97302875D01*
X126517114Y-97384537D01*
X126478595Y-97411508D01*
X126311505Y-97578598D01*
X126175965Y-97772170D01*
X126076097Y-97986336D01*
X126014936Y-98214592D01*
X125994340Y-98449999D01*
X126014936Y-98685407D01*
X126059709Y-98852501D01*
X126076097Y-98913663D01*
X126175965Y-99127830D01*
X126311505Y-99321401D01*
X126478599Y-99488495D01*
X126664160Y-99618426D01*
X126703024Y-99662743D01*
X126717035Y-99720000D01*
X126703024Y-99777257D01*
X126664159Y-99821575D01*
X126478595Y-99951508D01*
X126311505Y-100118598D01*
X126175965Y-100312170D01*
X126076097Y-100526336D01*
X126014936Y-100754592D01*
X125994340Y-100990000D01*
X126014936Y-101225407D01*
X126043422Y-101331716D01*
X126076097Y-101453663D01*
X126175965Y-101667830D01*
X126311505Y-101861401D01*
X126478599Y-102028495D01*
X126664160Y-102158426D01*
X126703024Y-102202743D01*
X126717035Y-102260000D01*
X126703024Y-102317257D01*
X126664159Y-102361575D01*
X126478595Y-102491508D01*
X126311505Y-102658598D01*
X126175965Y-102852170D01*
X126076097Y-103066336D01*
X126014936Y-103294592D01*
X125994340Y-103529999D01*
X126014936Y-103765407D01*
X126031163Y-103825965D01*
X126076097Y-103993663D01*
X126175965Y-104207830D01*
X126311505Y-104401401D01*
X126478599Y-104568495D01*
X126664160Y-104698426D01*
X126703024Y-104742743D01*
X126717035Y-104800000D01*
X126703024Y-104857257D01*
X126664158Y-104901575D01*
X126574790Y-104964152D01*
X126478595Y-105031508D01*
X126311505Y-105198598D01*
X126228864Y-105316623D01*
X126184546Y-105355489D01*
X126127289Y-105369500D01*
X115105421Y-105369500D01*
X115097934Y-105369274D01*
X115037891Y-105365641D01*
X114978727Y-105376483D01*
X114971328Y-105377610D01*
X114911624Y-105384860D01*
X114902151Y-105388453D01*
X114880547Y-105394476D01*
X114870569Y-105396305D01*
X114815712Y-105420993D01*
X114808796Y-105423857D01*
X114752570Y-105445181D01*
X114744226Y-105450941D01*
X114724685Y-105461962D01*
X114715441Y-105466122D01*
X114668097Y-105503213D01*
X114662068Y-105507649D01*
X114612570Y-105541816D01*
X114572683Y-105586838D01*
X114567551Y-105592290D01*
X114287527Y-105872315D01*
X114259014Y-105893607D01*
X114225627Y-105905924D01*
X114070697Y-105938855D01*
X113897769Y-106015848D01*
X113744629Y-106127110D01*
X113617967Y-106267782D01*
X113567170Y-106355765D01*
X113528673Y-106396867D01*
X113475968Y-106416703D01*
X113419924Y-106411183D01*
X113372102Y-106381445D01*
X112536819Y-105546162D01*
X112509939Y-105505934D01*
X112500500Y-105458481D01*
X112500500Y-104644175D01*
X112511924Y-104599999D01*
X112500500Y-104555825D01*
X112500500Y-101815392D01*
X112508736Y-101770955D01*
X112532350Y-101732420D01*
X112532533Y-101732216D01*
X112627179Y-101568284D01*
X112658102Y-101473113D01*
X112685674Y-101388256D01*
X112705460Y-101200000D01*
X112685674Y-101011744D01*
X112627179Y-100831716D01*
X112627179Y-100831715D01*
X112532533Y-100667783D01*
X112405870Y-100527110D01*
X112252730Y-100415848D01*
X112079802Y-100338855D01*
X111894648Y-100299500D01*
X111894646Y-100299500D01*
X111705354Y-100299500D01*
X111705351Y-100299500D01*
X111600280Y-100321833D01*
X111545552Y-100321117D01*
X111496464Y-100296909D01*
X111462579Y-100253926D01*
X111450500Y-100200543D01*
X111450500Y-95500000D01*
X112094540Y-95500000D01*
X112114326Y-95688257D01*
X112172820Y-95868284D01*
X112267466Y-96032216D01*
X112394129Y-96172889D01*
X112547269Y-96284151D01*
X112720197Y-96361144D01*
X112905352Y-96400500D01*
X112905354Y-96400500D01*
X113094646Y-96400500D01*
X113094648Y-96400500D01*
X113220910Y-96373662D01*
X113279803Y-96361144D01*
X113452730Y-96284151D01*
X113499059Y-96250491D01*
X113605870Y-96172889D01*
X113732533Y-96032216D01*
X113827179Y-95868284D01*
X113859690Y-95768226D01*
X113885674Y-95688256D01*
X113905460Y-95500000D01*
X113885674Y-95311744D01*
X113844119Y-95183851D01*
X113827179Y-95131715D01*
X113732533Y-94967783D01*
X113605871Y-94827112D01*
X113601614Y-94824019D01*
X113564015Y-94779995D01*
X113550500Y-94723701D01*
X113550500Y-94174500D01*
X113567113Y-94112500D01*
X113612500Y-94067113D01*
X113674500Y-94050500D01*
X113744648Y-94050500D01*
X113868084Y-94024262D01*
X113929803Y-94011144D01*
X114102730Y-93934151D01*
X114240637Y-93833956D01*
X114255870Y-93822889D01*
X114345335Y-93723529D01*
X114382533Y-93682216D01*
X114477179Y-93518284D01*
X114535674Y-93338256D01*
X114540864Y-93288866D01*
X114552263Y-93248450D01*
X114576500Y-93214155D01*
X121293400Y-86497255D01*
X121334628Y-86469967D01*
X121383244Y-86460957D01*
X121431510Y-86471657D01*
X121512600Y-86507761D01*
X121520199Y-86511145D01*
X121705352Y-86550500D01*
X121705354Y-86550500D01*
X121894646Y-86550500D01*
X121894648Y-86550500D01*
X122018084Y-86524262D01*
X122079803Y-86511144D01*
X122252730Y-86434151D01*
X122337052Y-86372888D01*
X122405870Y-86322889D01*
X122503969Y-86213940D01*
X122532533Y-86182216D01*
X122627179Y-86018284D01*
X122685674Y-85838256D01*
X122705460Y-85650000D01*
X122685674Y-85461744D01*
X122643425Y-85331715D01*
X122627179Y-85281715D01*
X122532533Y-85117783D01*
X122405870Y-84977110D01*
X122252730Y-84865848D01*
X122079802Y-84788855D01*
X121894648Y-84749500D01*
X121894646Y-84749500D01*
X121705354Y-84749500D01*
X121705352Y-84749500D01*
X121520197Y-84788855D01*
X121347272Y-84865847D01*
X121329722Y-84878598D01*
X121278454Y-84915847D01*
X121264730Y-84925818D01*
X121230162Y-84943431D01*
X121191844Y-84949500D01*
X121174921Y-84949500D01*
X121167434Y-84949274D01*
X121107391Y-84945641D01*
X121048227Y-84956483D01*
X121040828Y-84957610D01*
X120981124Y-84964860D01*
X120971651Y-84968453D01*
X120950047Y-84974476D01*
X120940069Y-84976305D01*
X120885225Y-85000987D01*
X120878310Y-85003851D01*
X120822070Y-85025181D01*
X120813723Y-85030943D01*
X120794187Y-85041961D01*
X120784944Y-85046121D01*
X120737608Y-85083205D01*
X120731582Y-85087639D01*
X120682072Y-85121816D01*
X120642184Y-85166838D01*
X120637052Y-85172289D01*
X114056204Y-91753137D01*
X114002181Y-91784800D01*
X113939575Y-91786030D01*
X113884351Y-91756512D01*
X113850592Y-91703774D01*
X113827179Y-91631715D01*
X113732533Y-91467783D01*
X113605870Y-91327110D01*
X113452730Y-91215848D01*
X113279802Y-91138855D01*
X113094648Y-91099500D01*
X113094646Y-91099500D01*
X112905354Y-91099500D01*
X112905352Y-91099500D01*
X112720197Y-91138855D01*
X112547269Y-91215848D01*
X112394129Y-91327110D01*
X112267466Y-91467783D01*
X112172820Y-91631715D01*
X112114326Y-91811742D01*
X112094540Y-91999999D01*
X112114326Y-92188257D01*
X112143431Y-92277831D01*
X112149500Y-92316149D01*
X112149500Y-95183851D01*
X112143431Y-95222167D01*
X112140351Y-95231648D01*
X112114326Y-95311742D01*
X112094540Y-95500000D01*
X111450500Y-95500000D01*
X111450500Y-89945988D01*
X111467113Y-89883988D01*
X111512500Y-89838601D01*
X111574500Y-89821988D01*
X111636500Y-89838601D01*
X111681887Y-89883988D01*
X111767466Y-90032215D01*
X111894129Y-90172889D01*
X112047269Y-90284151D01*
X112220197Y-90361144D01*
X112405352Y-90400500D01*
X112405354Y-90400500D01*
X112594646Y-90400500D01*
X112594648Y-90400500D01*
X112718083Y-90374262D01*
X112779803Y-90361144D01*
X112952730Y-90284151D01*
X112964201Y-90275817D01*
X113105870Y-90172889D01*
X113232533Y-90032216D01*
X113327179Y-89868284D01*
X113336824Y-89838601D01*
X113385674Y-89688256D01*
X113390864Y-89638866D01*
X113402263Y-89598450D01*
X113426500Y-89564155D01*
X120477731Y-82512924D01*
X120483150Y-82507823D01*
X120528183Y-82467929D01*
X120562377Y-82418389D01*
X120566770Y-82412419D01*
X120603878Y-82365056D01*
X120608035Y-82355818D01*
X120619061Y-82336268D01*
X120624818Y-82327930D01*
X120646152Y-82271674D01*
X120648994Y-82264811D01*
X120673695Y-82209931D01*
X120675522Y-82199956D01*
X120681549Y-82178339D01*
X120685140Y-82168872D01*
X120692387Y-82109179D01*
X120693514Y-82101777D01*
X120704358Y-82042606D01*
X120700726Y-81982566D01*
X120700500Y-81975079D01*
X120700500Y-80615392D01*
X120708736Y-80570955D01*
X120732350Y-80532420D01*
X120732533Y-80532216D01*
X120827179Y-80368284D01*
X120858450Y-80272042D01*
X120885674Y-80188256D01*
X120905460Y-80000000D01*
X120885674Y-79811744D01*
X120854515Y-79715847D01*
X120837285Y-79662818D01*
X120832743Y-79605102D01*
X120854898Y-79551615D01*
X120898921Y-79514015D01*
X120955216Y-79500500D01*
X125138481Y-79500500D01*
X125185934Y-79509939D01*
G37*
%TD.AperFunction*%
%TA.AperFunction,Conductor*%
G36*
X109356994Y-93676973D02*
G01*
X109404888Y-93701652D01*
X109437795Y-93744315D01*
X109449500Y-93796907D01*
X109449500Y-101309481D01*
X109435985Y-101365776D01*
X109398385Y-101409799D01*
X109344898Y-101431954D01*
X109287182Y-101427412D01*
X109237819Y-101397162D01*
X106236819Y-98396162D01*
X106209939Y-98355934D01*
X106200500Y-98308481D01*
X106200500Y-96386397D01*
X106218491Y-96322069D01*
X106267243Y-96276408D01*
X106332610Y-96262662D01*
X106395621Y-96284821D01*
X106540170Y-96386035D01*
X106754337Y-96485903D01*
X106982592Y-96547063D01*
X107218000Y-96567659D01*
X107453408Y-96547063D01*
X107681663Y-96485903D01*
X107895830Y-96386035D01*
X108089401Y-96250495D01*
X108256495Y-96083401D01*
X108392035Y-95889830D01*
X108491903Y-95675663D01*
X108553063Y-95447408D01*
X108573659Y-95212000D01*
X108553063Y-94976592D01*
X108491903Y-94748337D01*
X108392035Y-94534171D01*
X108256495Y-94340599D01*
X108089401Y-94173505D01*
X107895830Y-94037965D01*
X107681663Y-93938097D01*
X107681661Y-93938096D01*
X107679057Y-93936882D01*
X107628661Y-93893840D01*
X107607632Y-93830990D01*
X107621977Y-93766285D01*
X107667597Y-93718211D01*
X107731462Y-93700500D01*
X109075079Y-93700500D01*
X109082566Y-93700726D01*
X109085706Y-93700915D01*
X109142606Y-93704358D01*
X109201782Y-93693513D01*
X109209181Y-93692387D01*
X109268872Y-93685140D01*
X109278335Y-93681550D01*
X109299961Y-93675522D01*
X109303154Y-93674937D01*
X109356994Y-93676973D01*
G37*
%TD.AperFunction*%
%TA.AperFunction,Conductor*%
G36*
X125920817Y-85731089D02*
G01*
X125976783Y-85772124D01*
X126001935Y-85836803D01*
X126014936Y-85985407D01*
X126059709Y-86152502D01*
X126076097Y-86213663D01*
X126175965Y-86427830D01*
X126311505Y-86621401D01*
X126478599Y-86788495D01*
X126664160Y-86918426D01*
X126703024Y-86962743D01*
X126717035Y-87020000D01*
X126703024Y-87077257D01*
X126664159Y-87121575D01*
X126478595Y-87251508D01*
X126311505Y-87418598D01*
X126175965Y-87612170D01*
X126076097Y-87826336D01*
X126014936Y-88054592D01*
X125994340Y-88289999D01*
X126014936Y-88525410D01*
X126019441Y-88542222D01*
X126019440Y-88606408D01*
X125987347Y-88661994D01*
X117672290Y-96977051D01*
X117666838Y-96982183D01*
X117621816Y-97022070D01*
X117587649Y-97071568D01*
X117583213Y-97077597D01*
X117546121Y-97124942D01*
X117541961Y-97134186D01*
X117530941Y-97153725D01*
X117525182Y-97162069D01*
X117503853Y-97218305D01*
X117500989Y-97225219D01*
X117476303Y-97280070D01*
X117474475Y-97290047D01*
X117468454Y-97311648D01*
X117464859Y-97321128D01*
X117457609Y-97380827D01*
X117456483Y-97388226D01*
X117445641Y-97447391D01*
X117449274Y-97507434D01*
X117449500Y-97514921D01*
X117449500Y-99758481D01*
X117440061Y-99805934D01*
X117413181Y-99846162D01*
X116073310Y-101186032D01*
X116025487Y-101215771D01*
X115969442Y-101221290D01*
X115916737Y-101201452D01*
X115892892Y-101175993D01*
X115891254Y-101177469D01*
X115882350Y-101167580D01*
X115858736Y-101129045D01*
X115850500Y-101084608D01*
X115850500Y-95751519D01*
X115859939Y-95704066D01*
X115886819Y-95663838D01*
X125790726Y-85759930D01*
X125851568Y-85726550D01*
X125920817Y-85731089D01*
G37*
%TD.AperFunction*%
%TA.AperFunction,Conductor*%
G36*
X159287305Y-99159939D02*
G01*
X159327533Y-99186819D01*
X160218533Y-100077819D01*
X160248783Y-100127182D01*
X160253325Y-100184898D01*
X160231170Y-100238385D01*
X160187147Y-100275985D01*
X160130852Y-100289500D01*
X143812711Y-100289500D01*
X143755454Y-100275489D01*
X143711136Y-100236623D01*
X143628494Y-100118598D01*
X143461401Y-99951505D01*
X143275839Y-99821573D01*
X143236975Y-99777257D01*
X143222964Y-99720000D01*
X143236975Y-99662743D01*
X143275839Y-99618426D01*
X143461401Y-99488495D01*
X143628495Y-99321401D01*
X143711136Y-99203376D01*
X143755454Y-99164511D01*
X143812711Y-99150500D01*
X159239852Y-99150500D01*
X159287305Y-99159939D01*
G37*
%TD.AperFunction*%
%TA.AperFunction,Conductor*%
G36*
X127705934Y-62709939D02*
G01*
X127746162Y-62736819D01*
X128763181Y-63753838D01*
X128790061Y-63794066D01*
X128799500Y-63841519D01*
X128799500Y-69863579D01*
X128781789Y-69927444D01*
X128733715Y-69973064D01*
X128669011Y-69987409D01*
X128606161Y-69966380D01*
X128563118Y-69915984D01*
X128538681Y-69863579D01*
X128524035Y-69832171D01*
X128388495Y-69638599D01*
X128221401Y-69471505D01*
X128103376Y-69388863D01*
X128064511Y-69344546D01*
X128050500Y-69287289D01*
X128050500Y-65099421D01*
X128050726Y-65091934D01*
X128050927Y-65088602D01*
X128054358Y-65031894D01*
X128043507Y-64972685D01*
X128042390Y-64965340D01*
X128035140Y-64905628D01*
X128031546Y-64896151D01*
X128025521Y-64874534D01*
X128023695Y-64864568D01*
X127999009Y-64809718D01*
X127996151Y-64802822D01*
X127974818Y-64746570D01*
X127969066Y-64738237D01*
X127958036Y-64718682D01*
X127955185Y-64712347D01*
X127944941Y-64674420D01*
X127935674Y-64586244D01*
X127877179Y-64406216D01*
X127877179Y-64406215D01*
X127782533Y-64242283D01*
X127655870Y-64101610D01*
X127502730Y-63990348D01*
X127329802Y-63913355D01*
X127144648Y-63874000D01*
X127144646Y-63874000D01*
X126955354Y-63874000D01*
X126955352Y-63874000D01*
X126770197Y-63913355D01*
X126597269Y-63990348D01*
X126444129Y-64101610D01*
X126317466Y-64242283D01*
X126222820Y-64406215D01*
X126164326Y-64586242D01*
X126144540Y-64774500D01*
X126164326Y-64962757D01*
X126222820Y-65142784D01*
X126317466Y-65306716D01*
X126444129Y-65447388D01*
X126598385Y-65559461D01*
X126635985Y-65603484D01*
X126649500Y-65659779D01*
X126649500Y-69287289D01*
X126635489Y-69344546D01*
X126596623Y-69388864D01*
X126478598Y-69471505D01*
X126311505Y-69638598D01*
X126175965Y-69832170D01*
X126076097Y-70046336D01*
X126014936Y-70274592D01*
X125994340Y-70510000D01*
X126014936Y-70745407D01*
X126044478Y-70855659D01*
X126076097Y-70973663D01*
X126175965Y-71187830D01*
X126311505Y-71381401D01*
X126478599Y-71548495D01*
X126664160Y-71678426D01*
X126703024Y-71722743D01*
X126717035Y-71780000D01*
X126703024Y-71837257D01*
X126664159Y-71881575D01*
X126478595Y-72011508D01*
X126311505Y-72178598D01*
X126175965Y-72372170D01*
X126076097Y-72586336D01*
X126014936Y-72814592D01*
X125994340Y-73050000D01*
X126014936Y-73285407D01*
X126059709Y-73452501D01*
X126076097Y-73513663D01*
X126175965Y-73727830D01*
X126311505Y-73921401D01*
X126478599Y-74088495D01*
X126664160Y-74218426D01*
X126703024Y-74262743D01*
X126717035Y-74320000D01*
X126703024Y-74377257D01*
X126664159Y-74421575D01*
X126478595Y-74551508D01*
X126311505Y-74718598D01*
X126175965Y-74912170D01*
X126076097Y-75126336D01*
X126014936Y-75354592D01*
X125994340Y-75589999D01*
X126014936Y-75825407D01*
X126039035Y-75915345D01*
X126076097Y-76053663D01*
X126175965Y-76267830D01*
X126311505Y-76461401D01*
X126478599Y-76628495D01*
X126664160Y-76758426D01*
X126703024Y-76802743D01*
X126717035Y-76860000D01*
X126703024Y-76917257D01*
X126664159Y-76961575D01*
X126478595Y-77091508D01*
X126311505Y-77258598D01*
X126175965Y-77452170D01*
X126076097Y-77666336D01*
X126014936Y-77894592D01*
X125998571Y-78081644D01*
X125976737Y-78141790D01*
X125927823Y-78183042D01*
X125864856Y-78194417D01*
X125822479Y-78179274D01*
X125822007Y-78180521D01*
X125751701Y-78153856D01*
X125744783Y-78150991D01*
X125689929Y-78126303D01*
X125679952Y-78124475D01*
X125658339Y-78118450D01*
X125648873Y-78114860D01*
X125589172Y-78107610D01*
X125581771Y-78106483D01*
X125522607Y-78095641D01*
X125462566Y-78099274D01*
X125455079Y-78099500D01*
X120908461Y-78099500D01*
X120846461Y-78082887D01*
X120801074Y-78037500D01*
X120784461Y-77975500D01*
X120801074Y-77913500D01*
X120827179Y-77868284D01*
X120860462Y-77765849D01*
X120885674Y-77688256D01*
X120905460Y-77500000D01*
X120885674Y-77311744D01*
X120827179Y-77131716D01*
X120827179Y-77131715D01*
X120732533Y-76967783D01*
X120732350Y-76967580D01*
X120708736Y-76929045D01*
X120700500Y-76884608D01*
X120700500Y-66841519D01*
X120709939Y-66794066D01*
X120736819Y-66753838D01*
X124753838Y-62736819D01*
X124794066Y-62709939D01*
X124841519Y-62700500D01*
X127658481Y-62700500D01*
X127705934Y-62709939D01*
G37*
%TD.AperFunction*%
%TA.AperFunction,Conductor*%
G36*
X143705934Y-61709939D02*
G01*
X143746162Y-61736819D01*
X152263181Y-70253838D01*
X152290061Y-70294066D01*
X152299500Y-70341519D01*
X152299500Y-75158481D01*
X152290061Y-75205934D01*
X152263181Y-75246162D01*
X150116162Y-77393181D01*
X150075934Y-77420061D01*
X150028481Y-77429500D01*
X143812711Y-77429500D01*
X143755454Y-77415489D01*
X143711136Y-77376623D01*
X143628495Y-77258599D01*
X143461401Y-77091505D01*
X143275839Y-76961573D01*
X143236975Y-76917257D01*
X143222964Y-76860000D01*
X143236975Y-76802743D01*
X143275839Y-76758426D01*
X143461401Y-76628495D01*
X143628495Y-76461401D01*
X143764035Y-76267830D01*
X143863903Y-76053663D01*
X143925063Y-75825408D01*
X143945659Y-75590000D01*
X143925063Y-75354592D01*
X143863903Y-75126337D01*
X143764035Y-74912171D01*
X143628495Y-74718599D01*
X143461401Y-74551505D01*
X143275402Y-74421267D01*
X143236539Y-74376951D01*
X143222528Y-74319694D01*
X143236539Y-74262437D01*
X143275405Y-74218119D01*
X143461078Y-74088109D01*
X143628106Y-73921081D01*
X143763600Y-73727576D01*
X143863430Y-73513492D01*
X143920636Y-73300000D01*
X141259364Y-73300000D01*
X141316569Y-73513492D01*
X141416399Y-73727576D01*
X141551893Y-73921081D01*
X141718918Y-74088106D01*
X141904595Y-74218119D01*
X141943460Y-74262437D01*
X141957471Y-74319694D01*
X141943460Y-74376951D01*
X141904595Y-74421269D01*
X141718595Y-74551508D01*
X141551505Y-74718598D01*
X141468864Y-74836623D01*
X141424546Y-74875489D01*
X141367289Y-74889500D01*
X136934921Y-74889500D01*
X136927434Y-74889274D01*
X136867391Y-74885641D01*
X136808227Y-74896483D01*
X136800828Y-74897610D01*
X136741124Y-74904860D01*
X136731651Y-74908453D01*
X136710047Y-74914476D01*
X136700069Y-74916305D01*
X136645225Y-74940987D01*
X136638310Y-74943851D01*
X136582070Y-74965181D01*
X136573723Y-74970943D01*
X136554187Y-74981961D01*
X136544946Y-74986120D01*
X136497609Y-75023206D01*
X136491579Y-75027643D01*
X136442069Y-75061817D01*
X136402185Y-75106836D01*
X136397054Y-75112286D01*
X136246163Y-75263180D01*
X136205934Y-75290061D01*
X136158481Y-75299500D01*
X132341519Y-75299500D01*
X132294066Y-75290061D01*
X132253838Y-75263181D01*
X130236819Y-73246162D01*
X130209939Y-73205934D01*
X130208759Y-73200000D01*
X146819364Y-73200000D01*
X146876569Y-73413492D01*
X146976399Y-73627576D01*
X147111893Y-73821081D01*
X147278918Y-73988106D01*
X147472423Y-74123600D01*
X147686507Y-74223430D01*
X147899999Y-74280635D01*
X147900000Y-74280636D01*
X147900000Y-73200000D01*
X148400000Y-73200000D01*
X148400000Y-74280635D01*
X148613492Y-74223430D01*
X148827576Y-74123600D01*
X149021081Y-73988106D01*
X149188106Y-73821081D01*
X149323600Y-73627576D01*
X149423430Y-73413492D01*
X149480636Y-73200000D01*
X148400000Y-73200000D01*
X147900000Y-73200000D01*
X146819364Y-73200000D01*
X130208759Y-73200000D01*
X130200500Y-73158481D01*
X130200500Y-70500000D01*
X130694540Y-70500000D01*
X130714326Y-70688257D01*
X130772820Y-70868284D01*
X130867466Y-71032216D01*
X130994129Y-71172889D01*
X131147269Y-71284151D01*
X131320197Y-71361144D01*
X131505352Y-71400500D01*
X131505354Y-71400500D01*
X131694646Y-71400500D01*
X131694648Y-71400500D01*
X131869297Y-71363377D01*
X131879803Y-71361144D01*
X131969470Y-71321221D01*
X132019907Y-71310500D01*
X141437309Y-71310500D01*
X141494566Y-71324511D01*
X141538884Y-71363377D01*
X141551505Y-71381402D01*
X141644139Y-71474035D01*
X141718599Y-71548495D01*
X141904597Y-71678732D01*
X141943460Y-71723048D01*
X141957471Y-71780305D01*
X141943461Y-71837561D01*
X141904595Y-71881880D01*
X141718919Y-72011892D01*
X141551890Y-72178921D01*
X141416400Y-72372421D01*
X141316569Y-72586507D01*
X141259364Y-72799999D01*
X141259364Y-72800000D01*
X143920636Y-72800000D01*
X143920635Y-72799999D01*
X143863430Y-72586507D01*
X143763599Y-72372421D01*
X143628109Y-72178921D01*
X143461081Y-72011893D01*
X143275404Y-71881880D01*
X143236539Y-71837562D01*
X143222528Y-71780305D01*
X143236539Y-71723048D01*
X143275402Y-71678732D01*
X143461401Y-71548495D01*
X143628495Y-71381401D01*
X143711136Y-71263376D01*
X143755454Y-71224511D01*
X143812711Y-71210500D01*
X146999242Y-71210500D01*
X147046695Y-71219939D01*
X147086923Y-71246818D01*
X147178599Y-71338495D01*
X147372170Y-71474035D01*
X147372173Y-71474037D01*
X147454014Y-71512200D01*
X147505503Y-71536209D01*
X147557679Y-71581965D01*
X147577099Y-71648590D01*
X147557680Y-71715215D01*
X147505506Y-71760972D01*
X147472422Y-71776399D01*
X147278921Y-71911890D01*
X147111890Y-72078921D01*
X146976400Y-72272421D01*
X146876569Y-72486507D01*
X146819364Y-72699999D01*
X146819364Y-72700000D01*
X149480636Y-72700000D01*
X149480635Y-72699999D01*
X149423430Y-72486507D01*
X149323599Y-72272421D01*
X149188109Y-72078921D01*
X149021081Y-71911893D01*
X148827576Y-71776399D01*
X148694496Y-71714342D01*
X148642320Y-71668585D01*
X148622901Y-71601959D01*
X148642321Y-71535334D01*
X148694495Y-71489579D01*
X148727830Y-71474035D01*
X148921401Y-71338495D01*
X149088495Y-71171401D01*
X149224035Y-70977830D01*
X149323903Y-70763663D01*
X149385063Y-70535408D01*
X149405659Y-70300000D01*
X149385063Y-70064592D01*
X149323903Y-69836337D01*
X149224035Y-69622171D01*
X149088495Y-69428599D01*
X148921401Y-69261505D01*
X148727830Y-69125965D01*
X148513663Y-69026097D01*
X148452501Y-69009709D01*
X148285407Y-68964936D01*
X148049999Y-68944340D01*
X147814592Y-68964936D01*
X147586336Y-69026097D01*
X147372170Y-69125965D01*
X147178598Y-69261505D01*
X147011505Y-69428598D01*
X146875965Y-69622170D01*
X146821997Y-69737905D01*
X146776240Y-69790081D01*
X146709615Y-69809500D01*
X143812711Y-69809500D01*
X143755454Y-69795489D01*
X143711136Y-69756623D01*
X143696281Y-69735408D01*
X143628495Y-69638599D01*
X143461401Y-69471505D01*
X143267830Y-69335965D01*
X143053663Y-69236097D01*
X142992502Y-69219709D01*
X142825407Y-69174936D01*
X142590000Y-69154340D01*
X142354592Y-69174936D01*
X142126336Y-69236097D01*
X141912170Y-69335965D01*
X141718597Y-69471506D01*
X141551505Y-69638597D01*
X141538884Y-69656623D01*
X141494566Y-69695489D01*
X141437309Y-69709500D01*
X132064827Y-69709500D01*
X132014391Y-69698779D01*
X131879802Y-69638855D01*
X131694648Y-69599500D01*
X131694646Y-69599500D01*
X131505354Y-69599500D01*
X131505352Y-69599500D01*
X131320197Y-69638855D01*
X131147269Y-69715848D01*
X130994129Y-69827110D01*
X130867466Y-69967783D01*
X130772820Y-70131715D01*
X130714326Y-70311742D01*
X130694540Y-70500000D01*
X130200500Y-70500000D01*
X130200500Y-63524910D01*
X130200726Y-63517423D01*
X130200793Y-63516303D01*
X130204357Y-63457394D01*
X130193509Y-63398201D01*
X130192392Y-63390856D01*
X130185140Y-63331128D01*
X130185139Y-63331125D01*
X130181546Y-63321650D01*
X130175519Y-63300029D01*
X130173694Y-63290068D01*
X130149012Y-63235228D01*
X130146151Y-63228322D01*
X130124818Y-63172070D01*
X130119058Y-63163726D01*
X130108030Y-63144172D01*
X130103877Y-63134943D01*
X130066788Y-63087602D01*
X130062349Y-63081569D01*
X130028184Y-63032072D01*
X130028183Y-63032071D01*
X129983153Y-62992178D01*
X129977715Y-62987058D01*
X128902838Y-61912181D01*
X128872588Y-61862818D01*
X128868046Y-61805102D01*
X128890201Y-61751615D01*
X128934224Y-61714015D01*
X128990519Y-61700500D01*
X143658481Y-61700500D01*
X143705934Y-61709939D01*
G37*
%TD.AperFunction*%
%TA.AperFunction,Conductor*%
G36*
X119248385Y-66890201D02*
G01*
X119285985Y-66934224D01*
X119299500Y-66990519D01*
X119299500Y-76884608D01*
X119291264Y-76929045D01*
X119267650Y-76967580D01*
X119267466Y-76967783D01*
X119172820Y-77131715D01*
X119117931Y-77300649D01*
X119084884Y-77352723D01*
X119030838Y-77382435D01*
X118969162Y-77382435D01*
X118915116Y-77352723D01*
X118882069Y-77300649D01*
X118827179Y-77131715D01*
X118732533Y-76967783D01*
X118732350Y-76967580D01*
X118708736Y-76929045D01*
X118700500Y-76884608D01*
X118700500Y-67341519D01*
X118709939Y-67294066D01*
X118736819Y-67253838D01*
X119087819Y-66902838D01*
X119137182Y-66872588D01*
X119194898Y-66868046D01*
X119248385Y-66890201D01*
G37*
%TD.AperFunction*%
%TA.AperFunction,Conductor*%
G36*
X178352107Y-36500571D02*
G01*
X178671764Y-36511491D01*
X178671764Y-36511543D01*
X178671952Y-36511498D01*
X178672083Y-36511502D01*
X178862066Y-36518288D01*
X178870283Y-36518856D01*
X179153815Y-36548004D01*
X179383019Y-36572646D01*
X179390827Y-36573738D01*
X179663811Y-36620805D01*
X179664179Y-36620870D01*
X179898924Y-36663223D01*
X179906265Y-36664779D01*
X179960351Y-36677959D01*
X180172026Y-36729543D01*
X180172892Y-36729758D01*
X180407232Y-36789570D01*
X180413991Y-36791503D01*
X180672988Y-36873705D01*
X180674282Y-36874126D01*
X180905398Y-36951049D01*
X180911692Y-36953335D01*
X181163385Y-37052590D01*
X181165105Y-37053285D01*
X181391073Y-37146884D01*
X181396861Y-37149457D01*
X181640404Y-37265282D01*
X181642580Y-37266343D01*
X181861902Y-37376129D01*
X181867105Y-37378891D01*
X182079664Y-37498407D01*
X182101706Y-37510801D01*
X182104205Y-37512245D01*
X182315514Y-37637620D01*
X182320243Y-37640571D01*
X182448291Y-37724558D01*
X182544991Y-37787983D01*
X182547693Y-37789807D01*
X182749787Y-37930124D01*
X182753962Y-37933153D01*
X182967941Y-38095419D01*
X182970812Y-38097663D01*
X183162576Y-38252196D01*
X183166172Y-38255212D01*
X183368572Y-38431695D01*
X183371505Y-38434337D01*
X183551772Y-38602172D01*
X183554957Y-38605246D01*
X183744752Y-38795041D01*
X183747826Y-38798226D01*
X183915655Y-38978487D01*
X183918310Y-38981435D01*
X184094779Y-39183817D01*
X184097811Y-39187432D01*
X184232892Y-39355058D01*
X184252327Y-39379176D01*
X184254579Y-39382057D01*
X184416834Y-39596022D01*
X184419886Y-39600227D01*
X184560184Y-39802295D01*
X184562015Y-39805007D01*
X184709423Y-40029749D01*
X184712378Y-40034484D01*
X184837753Y-40245793D01*
X184839197Y-40248292D01*
X184971085Y-40482852D01*
X184973883Y-40488122D01*
X185083647Y-40707403D01*
X185084744Y-40709651D01*
X185200537Y-40953130D01*
X185203117Y-40958933D01*
X185296684Y-41184823D01*
X185297458Y-41186738D01*
X185352415Y-41326097D01*
X185396653Y-41438278D01*
X185398952Y-41444608D01*
X185475807Y-41675517D01*
X185476343Y-41677165D01*
X185558482Y-41935964D01*
X185560440Y-41942810D01*
X185620185Y-42176889D01*
X185620511Y-42178197D01*
X185685219Y-42443733D01*
X185686775Y-42451074D01*
X185729080Y-42685547D01*
X185729247Y-42686496D01*
X185776260Y-42959172D01*
X185777352Y-42966985D01*
X185801949Y-43195763D01*
X185802010Y-43196337D01*
X185831140Y-43479697D01*
X185831711Y-43487952D01*
X185838501Y-43678040D01*
X185838504Y-43678233D01*
X185838508Y-43678233D01*
X185849428Y-43997892D01*
X185849500Y-44002126D01*
X185849500Y-101593220D01*
X185830927Y-101658498D01*
X185780771Y-101704220D01*
X185714058Y-101716691D01*
X185650773Y-101692174D01*
X185486487Y-101568109D01*
X185295707Y-101473113D01*
X185090718Y-101414788D01*
X184931670Y-101400051D01*
X184678499Y-101400051D01*
X184678499Y-103700051D01*
X184931670Y-103700051D01*
X185090718Y-103685313D01*
X185295707Y-103626988D01*
X185486487Y-103531992D01*
X185650773Y-103407928D01*
X185714058Y-103383411D01*
X185780771Y-103395882D01*
X185830927Y-103441604D01*
X185849500Y-103506882D01*
X185849500Y-108793118D01*
X185830927Y-108858396D01*
X185780771Y-108904118D01*
X185714058Y-108916589D01*
X185650773Y-108892072D01*
X185486487Y-108768007D01*
X185295707Y-108673011D01*
X185090718Y-108614686D01*
X184931670Y-108599949D01*
X184678499Y-108599949D01*
X184678499Y-110899949D01*
X184931670Y-110899949D01*
X185090718Y-110885211D01*
X185295707Y-110826886D01*
X185486487Y-110731890D01*
X185650773Y-110607826D01*
X185714058Y-110583309D01*
X185780771Y-110595780D01*
X185830927Y-110641502D01*
X185849500Y-110706780D01*
X185849500Y-128997874D01*
X185849428Y-129002107D01*
X185838515Y-129321573D01*
X185838508Y-129321767D01*
X185831711Y-129512047D01*
X185831140Y-129520301D01*
X185802010Y-129803661D01*
X185801949Y-129804235D01*
X185777352Y-130033013D01*
X185776260Y-130040826D01*
X185729247Y-130313502D01*
X185729080Y-130314451D01*
X185686775Y-130548924D01*
X185685219Y-130556265D01*
X185620511Y-130821801D01*
X185620185Y-130823109D01*
X185560440Y-131057188D01*
X185558482Y-131064034D01*
X185476343Y-131322833D01*
X185475807Y-131324481D01*
X185398952Y-131555390D01*
X185396653Y-131561720D01*
X185297478Y-131813212D01*
X185296684Y-131815175D01*
X185203117Y-132041065D01*
X185200537Y-132046868D01*
X185084744Y-132290347D01*
X185083647Y-132292595D01*
X184973883Y-132511876D01*
X184971085Y-132517146D01*
X184839197Y-132751706D01*
X184837753Y-132754205D01*
X184712378Y-132965514D01*
X184709423Y-132970249D01*
X184562015Y-133194991D01*
X184560184Y-133197703D01*
X184419886Y-133399771D01*
X184416834Y-133403976D01*
X184254579Y-133617941D01*
X184252327Y-133620822D01*
X184097840Y-133812531D01*
X184094748Y-133816218D01*
X183918335Y-134018536D01*
X183915630Y-134021539D01*
X183747826Y-134201772D01*
X183744752Y-134204957D01*
X183554957Y-134394752D01*
X183551772Y-134397826D01*
X183371539Y-134565630D01*
X183368536Y-134568335D01*
X183166218Y-134744748D01*
X183162531Y-134747840D01*
X182970822Y-134902327D01*
X182967941Y-134904579D01*
X182753976Y-135066834D01*
X182749771Y-135069886D01*
X182547703Y-135210184D01*
X182544991Y-135212015D01*
X182320249Y-135359423D01*
X182315514Y-135362378D01*
X182104205Y-135487753D01*
X182101706Y-135489197D01*
X181867146Y-135621085D01*
X181861876Y-135623883D01*
X181642595Y-135733647D01*
X181640347Y-135734744D01*
X181396868Y-135850537D01*
X181391065Y-135853117D01*
X181165175Y-135946684D01*
X181163212Y-135947478D01*
X180911720Y-136046653D01*
X180905390Y-136048952D01*
X180674481Y-136125807D01*
X180672833Y-136126343D01*
X180414034Y-136208482D01*
X180407188Y-136210440D01*
X180173109Y-136270185D01*
X180171801Y-136270511D01*
X179906265Y-136335219D01*
X179898924Y-136336775D01*
X179664451Y-136379080D01*
X179663502Y-136379247D01*
X179390826Y-136426260D01*
X179383013Y-136427352D01*
X179154235Y-136451949D01*
X179153661Y-136452010D01*
X178870301Y-136481140D01*
X178862046Y-136481711D01*
X178671958Y-136488501D01*
X178671766Y-136488508D01*
X178352108Y-136499428D01*
X178347874Y-136499500D01*
X134641671Y-136499500D01*
X134586717Y-136486658D01*
X134543145Y-136450791D01*
X134519982Y-136399329D01*
X134522025Y-136342931D01*
X134548850Y-136293279D01*
X134550435Y-136291490D01*
X134557826Y-136283146D01*
X134562924Y-136277731D01*
X136303337Y-134537318D01*
X136343565Y-134510439D01*
X136391018Y-134501000D01*
X136559980Y-134501000D01*
X136683415Y-134474762D01*
X136745135Y-134461644D01*
X136918062Y-134384651D01*
X136918061Y-134384651D01*
X137071202Y-134273389D01*
X137135687Y-134201772D01*
X137197865Y-134132716D01*
X137292511Y-133968784D01*
X137351006Y-133788756D01*
X137370792Y-133600500D01*
X137351006Y-133412244D01*
X137292511Y-133232216D01*
X137292511Y-133232215D01*
X137197865Y-133068283D01*
X137071202Y-132927610D01*
X136918062Y-132816348D01*
X136745134Y-132739355D01*
X136559980Y-132700000D01*
X136559978Y-132700000D01*
X136370686Y-132700000D01*
X136370684Y-132700000D01*
X136185529Y-132739355D01*
X136012601Y-132816348D01*
X135859461Y-132927610D01*
X135732800Y-133068282D01*
X135661376Y-133191991D01*
X135641670Y-133217671D01*
X133796162Y-135063181D01*
X133755934Y-135090061D01*
X133708481Y-135099500D01*
X133458156Y-135099500D01*
X133419838Y-135093431D01*
X133385270Y-135075818D01*
X133377105Y-135069886D01*
X133302730Y-135015849D01*
X133302729Y-135015848D01*
X133302727Y-135015847D01*
X133129802Y-134938855D01*
X132944648Y-134899500D01*
X132944646Y-134899500D01*
X132755354Y-134899500D01*
X132755352Y-134899500D01*
X132570197Y-134938855D01*
X132397269Y-135015848D01*
X132244129Y-135127110D01*
X132117466Y-135267783D01*
X132022820Y-135431715D01*
X131964326Y-135611742D01*
X131944540Y-135800000D01*
X131964326Y-135988257D01*
X132022820Y-136168284D01*
X132106661Y-136313500D01*
X132123274Y-136375500D01*
X132106661Y-136437500D01*
X132061274Y-136482887D01*
X131999274Y-136499500D01*
X93352126Y-136499500D01*
X93347892Y-136499428D01*
X93028232Y-136488508D01*
X93028040Y-136488501D01*
X92837952Y-136481711D01*
X92829697Y-136481140D01*
X92546337Y-136452010D01*
X92545763Y-136451949D01*
X92316985Y-136427352D01*
X92309172Y-136426260D01*
X92036496Y-136379247D01*
X92035547Y-136379080D01*
X91801074Y-136336775D01*
X91793733Y-136335219D01*
X91528197Y-136270511D01*
X91526889Y-136270185D01*
X91292810Y-136210440D01*
X91285964Y-136208482D01*
X91027165Y-136126343D01*
X91025539Y-136125814D01*
X90994033Y-136115328D01*
X90794608Y-136048952D01*
X90788278Y-136046653D01*
X90640193Y-135988256D01*
X90536738Y-135947458D01*
X90534823Y-135946684D01*
X90308933Y-135853117D01*
X90303130Y-135850537D01*
X90059651Y-135734744D01*
X90057403Y-135733647D01*
X89838122Y-135623883D01*
X89832864Y-135621091D01*
X89766674Y-135583875D01*
X89598292Y-135489197D01*
X89595793Y-135487753D01*
X89384484Y-135362378D01*
X89379749Y-135359423D01*
X89155007Y-135212015D01*
X89152295Y-135210184D01*
X88950227Y-135069886D01*
X88946022Y-135066834D01*
X88732057Y-134904579D01*
X88729176Y-134902327D01*
X88664862Y-134850500D01*
X88537432Y-134747811D01*
X88533817Y-134744779D01*
X88331435Y-134568310D01*
X88328487Y-134565655D01*
X88148226Y-134397826D01*
X88145041Y-134394752D01*
X87955246Y-134204957D01*
X87952172Y-134201772D01*
X87893037Y-134138257D01*
X87784337Y-134021505D01*
X87781695Y-134018572D01*
X87605212Y-133816172D01*
X87602196Y-133812576D01*
X87447663Y-133620812D01*
X87445419Y-133617941D01*
X87432193Y-133600500D01*
X87283153Y-133403962D01*
X87280124Y-133399787D01*
X87139807Y-133197693D01*
X87137983Y-133194991D01*
X87136015Y-133191991D01*
X86990571Y-132970243D01*
X86987620Y-132965514D01*
X86862245Y-132754205D01*
X86860801Y-132751706D01*
X86819479Y-132678216D01*
X86728891Y-132517105D01*
X86726129Y-132511902D01*
X86616343Y-132292580D01*
X86615282Y-132290404D01*
X86499457Y-132046861D01*
X86496881Y-132041065D01*
X86473827Y-131985407D01*
X86403285Y-131815105D01*
X86402590Y-131813385D01*
X86303335Y-131561692D01*
X86301046Y-131555390D01*
X86287467Y-131514592D01*
X86224126Y-131324282D01*
X86223705Y-131322988D01*
X86141503Y-131063991D01*
X86139570Y-131057232D01*
X86079758Y-130822892D01*
X86079543Y-130822026D01*
X86027959Y-130610351D01*
X86014779Y-130556265D01*
X86013223Y-130548924D01*
X85970870Y-130314179D01*
X85970805Y-130313811D01*
X85923738Y-130040826D01*
X85922646Y-130033013D01*
X85921498Y-130022331D01*
X85898004Y-129803815D01*
X85868856Y-129520283D01*
X85868288Y-129512064D01*
X85861508Y-129322264D01*
X85850571Y-129002107D01*
X85850500Y-128997875D01*
X85850500Y-121000000D01*
X97994340Y-121000000D01*
X98014936Y-121235407D01*
X98041395Y-121334152D01*
X98076097Y-121463663D01*
X98175965Y-121677830D01*
X98311505Y-121871401D01*
X98478599Y-122038495D01*
X98672170Y-122174035D01*
X98886337Y-122273903D01*
X99114592Y-122335063D01*
X99350000Y-122355659D01*
X99585408Y-122335063D01*
X99813663Y-122273903D01*
X100027830Y-122174035D01*
X100221401Y-122038495D01*
X100388495Y-121871401D01*
X100524035Y-121677830D01*
X100623903Y-121463663D01*
X100685063Y-121235408D01*
X100705659Y-121000000D01*
X100685063Y-120764592D01*
X100623903Y-120536337D01*
X100524035Y-120322171D01*
X100388495Y-120128599D01*
X100221401Y-119961505D01*
X100027830Y-119825965D01*
X99813663Y-119726097D01*
X99752501Y-119709709D01*
X99585407Y-119664936D01*
X99350000Y-119644340D01*
X99114592Y-119664936D01*
X98886336Y-119726097D01*
X98672170Y-119825965D01*
X98478598Y-119961505D01*
X98311505Y-120128598D01*
X98175965Y-120322170D01*
X98076097Y-120536336D01*
X98014936Y-120764592D01*
X97994340Y-121000000D01*
X85850500Y-121000000D01*
X85850500Y-117542607D01*
X102295641Y-117542607D01*
X102306483Y-117601771D01*
X102307610Y-117609172D01*
X102314860Y-117668873D01*
X102318450Y-117678339D01*
X102324475Y-117699952D01*
X102326303Y-117709929D01*
X102350991Y-117764783D01*
X102353856Y-117771701D01*
X102370123Y-117814592D01*
X102375182Y-117827930D01*
X102380941Y-117836273D01*
X102391961Y-117855813D01*
X102396120Y-117865054D01*
X102433216Y-117912405D01*
X102437651Y-117918432D01*
X102471817Y-117967929D01*
X102516847Y-118007822D01*
X102522283Y-118012940D01*
X110137058Y-125627715D01*
X110142178Y-125633153D01*
X110182071Y-125678183D01*
X110182072Y-125678184D01*
X110206992Y-125695385D01*
X110231310Y-125712171D01*
X110231573Y-125712352D01*
X110237591Y-125716780D01*
X110284944Y-125753878D01*
X110294180Y-125758034D01*
X110313731Y-125769062D01*
X110322066Y-125774816D01*
X110322068Y-125774816D01*
X110322070Y-125774818D01*
X110378326Y-125796152D01*
X110385220Y-125799009D01*
X110440069Y-125823695D01*
X110450044Y-125825522D01*
X110471656Y-125831547D01*
X110481128Y-125835140D01*
X110540841Y-125842390D01*
X110548185Y-125843507D01*
X110607394Y-125854358D01*
X110664102Y-125850927D01*
X110667434Y-125850726D01*
X110674921Y-125850500D01*
X124441844Y-125850500D01*
X124480162Y-125856569D01*
X124514728Y-125874181D01*
X124597270Y-125934151D01*
X124597271Y-125934151D01*
X124597272Y-125934152D01*
X124770197Y-126011144D01*
X124955352Y-126050500D01*
X124955354Y-126050500D01*
X125144646Y-126050500D01*
X125144648Y-126050500D01*
X125268083Y-126024262D01*
X125329803Y-126011144D01*
X125502730Y-125934151D01*
X125612556Y-125854358D01*
X125655870Y-125822889D01*
X125699154Y-125774818D01*
X125782533Y-125682216D01*
X125877179Y-125518284D01*
X125935674Y-125338256D01*
X125955460Y-125150000D01*
X125935674Y-124961744D01*
X125877179Y-124781716D01*
X125877179Y-124781715D01*
X125782533Y-124617783D01*
X125655870Y-124477110D01*
X125502730Y-124365848D01*
X125329802Y-124288855D01*
X125144648Y-124249500D01*
X125144646Y-124249500D01*
X124955354Y-124249500D01*
X124955352Y-124249500D01*
X124770197Y-124288855D01*
X124597272Y-124365847D01*
X124514730Y-124425818D01*
X124480162Y-124443431D01*
X124441844Y-124449500D01*
X110991519Y-124449500D01*
X110944066Y-124440061D01*
X110903838Y-124413181D01*
X103736819Y-117246162D01*
X103709939Y-117205934D01*
X103700500Y-117158481D01*
X103700500Y-113000000D01*
X105994340Y-113000000D01*
X106014936Y-113235407D01*
X106031314Y-113296530D01*
X106076097Y-113463663D01*
X106175965Y-113677830D01*
X106311505Y-113871401D01*
X106478599Y-114038495D01*
X106672170Y-114174035D01*
X106886337Y-114273903D01*
X107114592Y-114335063D01*
X107350000Y-114355659D01*
X107585408Y-114335063D01*
X107813663Y-114273903D01*
X108027830Y-114174035D01*
X108221401Y-114038495D01*
X108388495Y-113871401D01*
X108524035Y-113677830D01*
X108623903Y-113463663D01*
X108685063Y-113235408D01*
X108705659Y-113000000D01*
X108685063Y-112764592D01*
X108623903Y-112536337D01*
X108524035Y-112322171D01*
X108388495Y-112128599D01*
X108221401Y-111961505D01*
X108027830Y-111825965D01*
X107813663Y-111726097D01*
X107752501Y-111709709D01*
X107585407Y-111664936D01*
X107350000Y-111644340D01*
X107114592Y-111664936D01*
X106886336Y-111726097D01*
X106672170Y-111825965D01*
X106478598Y-111961505D01*
X106311505Y-112128598D01*
X106175965Y-112322170D01*
X106076097Y-112536336D01*
X106014936Y-112764592D01*
X105994340Y-113000000D01*
X103700500Y-113000000D01*
X103700500Y-112841519D01*
X103709939Y-112794066D01*
X103736819Y-112753838D01*
X106068487Y-110422170D01*
X108422188Y-108068468D01*
X108472579Y-108037890D01*
X108531399Y-108034035D01*
X108585353Y-108057775D01*
X108622249Y-108103746D01*
X108633749Y-108161559D01*
X108617254Y-108218151D01*
X108522820Y-108381715D01*
X108464326Y-108561742D01*
X108456920Y-108632208D01*
X108444540Y-108750000D01*
X108460284Y-108899802D01*
X108463048Y-108926095D01*
X108457811Y-108976899D01*
X108432542Y-109021284D01*
X108392185Y-109066837D01*
X108387053Y-109072289D01*
X108344525Y-109114817D01*
X108339284Y-109123488D01*
X108325990Y-109141556D01*
X108319265Y-109149147D01*
X108291319Y-109202392D01*
X108287643Y-109208911D01*
X108256521Y-109260395D01*
X108253506Y-109270071D01*
X108244921Y-109290796D01*
X108240210Y-109299771D01*
X108225814Y-109358179D01*
X108223803Y-109365391D01*
X108205913Y-109422804D01*
X108205301Y-109432921D01*
X108201927Y-109455096D01*
X108199500Y-109464945D01*
X108199500Y-109525079D01*
X108199274Y-109532566D01*
X108195642Y-109592606D01*
X108197469Y-109602576D01*
X108199500Y-109624927D01*
X108199500Y-109635058D01*
X108213888Y-109693436D01*
X108215460Y-109700756D01*
X108226305Y-109759934D01*
X108230466Y-109769179D01*
X108237785Y-109790388D01*
X108240210Y-109800225D01*
X108268154Y-109853468D01*
X108271433Y-109860202D01*
X108296122Y-109915059D01*
X108302374Y-109923039D01*
X108314557Y-109941882D01*
X108319264Y-109950851D01*
X108359146Y-109995869D01*
X108363940Y-110001621D01*
X108374711Y-110015369D01*
X108387059Y-110027717D01*
X108392194Y-110033171D01*
X108429189Y-110074930D01*
X108449854Y-110107177D01*
X108459693Y-110144192D01*
X108464325Y-110188253D01*
X108522820Y-110368284D01*
X108617466Y-110532216D01*
X108744129Y-110672889D01*
X108897267Y-110784150D01*
X108981309Y-110821568D01*
X109070197Y-110861144D01*
X109070198Y-110861144D01*
X109082104Y-110866445D01*
X109081740Y-110867262D01*
X109091644Y-110870910D01*
X109120195Y-110892223D01*
X119255687Y-121027715D01*
X119260807Y-121033153D01*
X119297519Y-121074592D01*
X119300701Y-121078184D01*
X119350198Y-121112349D01*
X119356231Y-121116788D01*
X119403572Y-121153877D01*
X119412803Y-121158031D01*
X119432355Y-121169058D01*
X119440699Y-121174818D01*
X119496951Y-121196151D01*
X119503857Y-121199012D01*
X119558697Y-121223694D01*
X119568659Y-121225519D01*
X119590279Y-121231546D01*
X119599754Y-121235139D01*
X119599757Y-121235140D01*
X119659485Y-121242392D01*
X119666830Y-121243509D01*
X119726023Y-121254357D01*
X119786050Y-121250726D01*
X119793538Y-121250500D01*
X122691844Y-121250500D01*
X122730162Y-121256569D01*
X122764728Y-121274181D01*
X122847270Y-121334151D01*
X122847271Y-121334151D01*
X122847272Y-121334152D01*
X123020197Y-121411144D01*
X123205352Y-121450500D01*
X123205354Y-121450500D01*
X123394646Y-121450500D01*
X123394648Y-121450500D01*
X123518083Y-121424262D01*
X123579803Y-121411144D01*
X123752730Y-121334151D01*
X123859513Y-121256569D01*
X123905870Y-121222889D01*
X123949154Y-121174818D01*
X124032533Y-121082216D01*
X124127179Y-120918284D01*
X124185674Y-120738256D01*
X124205460Y-120550000D01*
X124185674Y-120361744D01*
X124127179Y-120181716D01*
X124127179Y-120181715D01*
X124032533Y-120017783D01*
X123905870Y-119877110D01*
X123752730Y-119765848D01*
X123579802Y-119688855D01*
X123394648Y-119649500D01*
X123394646Y-119649500D01*
X123205354Y-119649500D01*
X123205352Y-119649500D01*
X123020197Y-119688855D01*
X122847272Y-119765847D01*
X122764730Y-119825818D01*
X122730162Y-119843431D01*
X122691844Y-119849500D01*
X120110148Y-119849500D01*
X120062695Y-119840061D01*
X120022467Y-119813181D01*
X115909286Y-115700000D01*
X122744340Y-115700000D01*
X122764936Y-115935407D01*
X122780795Y-115994592D01*
X122826097Y-116163663D01*
X122925965Y-116377830D01*
X123061505Y-116571401D01*
X123228599Y-116738495D01*
X123422170Y-116874035D01*
X123636337Y-116973903D01*
X123864592Y-117035063D01*
X124100000Y-117055659D01*
X124335408Y-117035063D01*
X124563663Y-116973903D01*
X124777830Y-116874035D01*
X124971401Y-116738495D01*
X125138495Y-116571401D01*
X125274035Y-116377830D01*
X125373903Y-116163663D01*
X125435063Y-115935408D01*
X125455659Y-115700000D01*
X125435063Y-115464592D01*
X125373903Y-115236337D01*
X125274035Y-115022171D01*
X125138495Y-114828599D01*
X124971401Y-114661505D01*
X124777830Y-114525965D01*
X124563663Y-114426097D01*
X124478866Y-114403376D01*
X124335407Y-114364936D01*
X124100000Y-114344340D01*
X123864592Y-114364936D01*
X123636336Y-114426097D01*
X123422170Y-114525965D01*
X123228598Y-114661505D01*
X123061505Y-114828598D01*
X122925965Y-115022170D01*
X122826097Y-115236336D01*
X122764936Y-115464592D01*
X122744340Y-115700000D01*
X115909286Y-115700000D01*
X113221467Y-113012181D01*
X113191217Y-112962818D01*
X113186675Y-112905102D01*
X113208830Y-112851615D01*
X113252853Y-112814015D01*
X113309148Y-112800500D01*
X126085977Y-112800500D01*
X126150305Y-112818491D01*
X126195966Y-112867243D01*
X126209712Y-112932610D01*
X126187552Y-112995623D01*
X126175965Y-113012170D01*
X126076097Y-113226336D01*
X126014936Y-113454592D01*
X125994340Y-113690000D01*
X126014936Y-113925407D01*
X126044660Y-114036337D01*
X126076097Y-114153663D01*
X126175965Y-114367830D01*
X126311505Y-114561401D01*
X126478599Y-114728495D01*
X126664160Y-114858426D01*
X126703024Y-114902743D01*
X126717035Y-114960000D01*
X126703024Y-115017257D01*
X126664160Y-115061574D01*
X126498134Y-115177827D01*
X126478595Y-115191508D01*
X126311505Y-115358598D01*
X126175965Y-115552170D01*
X126076097Y-115766336D01*
X126014936Y-115994592D01*
X125994340Y-116230000D01*
X126014936Y-116465407D01*
X126059709Y-116632502D01*
X126076097Y-116693663D01*
X126175965Y-116907830D01*
X126311505Y-117101401D01*
X126478599Y-117268495D01*
X126664160Y-117398426D01*
X126703024Y-117442743D01*
X126717035Y-117500000D01*
X126703024Y-117557257D01*
X126664159Y-117601575D01*
X126478595Y-117731508D01*
X126311505Y-117898598D01*
X126175965Y-118092170D01*
X126076097Y-118306336D01*
X126014936Y-118534592D01*
X125994340Y-118770000D01*
X126014936Y-119005407D01*
X126059709Y-119172502D01*
X126076097Y-119233663D01*
X126175965Y-119447830D01*
X126311505Y-119641401D01*
X126478599Y-119808495D01*
X126664160Y-119938426D01*
X126703024Y-119982743D01*
X126717035Y-120040000D01*
X126703024Y-120097257D01*
X126664159Y-120141575D01*
X126478595Y-120271508D01*
X126311505Y-120438598D01*
X126175965Y-120632170D01*
X126076097Y-120846336D01*
X126014936Y-121074592D01*
X125994340Y-121309999D01*
X126014936Y-121545407D01*
X126050418Y-121677827D01*
X126076097Y-121773663D01*
X126175965Y-121987830D01*
X126311505Y-122181401D01*
X126478599Y-122348495D01*
X126664160Y-122478426D01*
X126703024Y-122522743D01*
X126717035Y-122580000D01*
X126703024Y-122637257D01*
X126664159Y-122681575D01*
X126478595Y-122811508D01*
X126311505Y-122978598D01*
X126175965Y-123172170D01*
X126076097Y-123386336D01*
X126014936Y-123614592D01*
X125994340Y-123849999D01*
X126014936Y-124085407D01*
X126058905Y-124249500D01*
X126076097Y-124313663D01*
X126175965Y-124527830D01*
X126311505Y-124721401D01*
X126478599Y-124888495D01*
X126664597Y-125018732D01*
X126703460Y-125063048D01*
X126717471Y-125120305D01*
X126703461Y-125177561D01*
X126664595Y-125221880D01*
X126478919Y-125351892D01*
X126311890Y-125518921D01*
X126176400Y-125712421D01*
X126076569Y-125926507D01*
X126019364Y-126139999D01*
X126019364Y-126140000D01*
X128680636Y-126140000D01*
X128680635Y-126139999D01*
X128623430Y-125926507D01*
X128523599Y-125712421D01*
X128388109Y-125518921D01*
X128221081Y-125351893D01*
X128035404Y-125221880D01*
X127996539Y-125177562D01*
X127982528Y-125120305D01*
X127996539Y-125063048D01*
X128035402Y-125018732D01*
X128221401Y-124888495D01*
X128388495Y-124721401D01*
X128524035Y-124527830D01*
X128623903Y-124313663D01*
X128685063Y-124085408D01*
X128705659Y-123850000D01*
X128685063Y-123614592D01*
X128623903Y-123386337D01*
X128524035Y-123172171D01*
X128388495Y-122978599D01*
X128221401Y-122811505D01*
X128035839Y-122681573D01*
X127996975Y-122637257D01*
X127982964Y-122580000D01*
X127996975Y-122522743D01*
X128035839Y-122478426D01*
X128221401Y-122348495D01*
X128388495Y-122181401D01*
X128524035Y-121987830D01*
X128623903Y-121773663D01*
X128685063Y-121545408D01*
X128705659Y-121310000D01*
X128685063Y-121074592D01*
X128623903Y-120846337D01*
X128524035Y-120632171D01*
X128388495Y-120438599D01*
X128221401Y-120271505D01*
X128035839Y-120141573D01*
X127996976Y-120097257D01*
X127982965Y-120040000D01*
X127996976Y-119982743D01*
X128035839Y-119938426D01*
X128221401Y-119808495D01*
X128388495Y-119641401D01*
X128524035Y-119447830D01*
X128623903Y-119233663D01*
X128685063Y-119005408D01*
X128705659Y-118770000D01*
X128685063Y-118534592D01*
X128623903Y-118306337D01*
X128524035Y-118092171D01*
X128388495Y-117898599D01*
X128221401Y-117731505D01*
X128035839Y-117601573D01*
X127996975Y-117557257D01*
X127982964Y-117500000D01*
X127996975Y-117442743D01*
X128035839Y-117398426D01*
X128221401Y-117268495D01*
X128388495Y-117101401D01*
X128523653Y-116908374D01*
X128567970Y-116869511D01*
X128625227Y-116855500D01*
X131528243Y-116855500D01*
X131578677Y-116866220D01*
X131620392Y-116896526D01*
X131644131Y-116922890D01*
X131797269Y-117034151D01*
X131970197Y-117111144D01*
X132155352Y-117150500D01*
X132155354Y-117150500D01*
X132344646Y-117150500D01*
X132344648Y-117150500D01*
X132468084Y-117124262D01*
X132529803Y-117111144D01*
X132702730Y-117034151D01*
X132785656Y-116973902D01*
X132855870Y-116922889D01*
X132879608Y-116896526D01*
X132982533Y-116782216D01*
X133077179Y-116618284D01*
X133135674Y-116438256D01*
X133155460Y-116250000D01*
X133135674Y-116061744D01*
X133123342Y-116023793D01*
X133120956Y-115955478D01*
X133155136Y-115896277D01*
X133215492Y-115864185D01*
X133229803Y-115861144D01*
X133229804Y-115861143D01*
X133229806Y-115861143D01*
X133402730Y-115784151D01*
X133555870Y-115672889D01*
X133682533Y-115532216D01*
X133777179Y-115368284D01*
X133820051Y-115236337D01*
X133835674Y-115188256D01*
X133855460Y-115000000D01*
X133835674Y-114811744D01*
X133795628Y-114688495D01*
X133777179Y-114631715D01*
X133682533Y-114467783D01*
X133555870Y-114327110D01*
X133402730Y-114215848D01*
X133229802Y-114138855D01*
X133044648Y-114099500D01*
X133044646Y-114099500D01*
X132985453Y-114099500D01*
X132938000Y-114090061D01*
X132897772Y-114063181D01*
X132700802Y-113866211D01*
X132687906Y-113850113D01*
X132636775Y-113802098D01*
X132633978Y-113799387D01*
X132614470Y-113779879D01*
X132611290Y-113777412D01*
X132602424Y-113769839D01*
X132570582Y-113739938D01*
X132553024Y-113730285D01*
X132536764Y-113719604D01*
X132520936Y-113707327D01*
X132480851Y-113689980D01*
X132470361Y-113684841D01*
X132432091Y-113663802D01*
X132419608Y-113660597D01*
X132362764Y-113628174D01*
X132040802Y-113306211D01*
X132027906Y-113290113D01*
X131976775Y-113242098D01*
X131973978Y-113239387D01*
X131954470Y-113219879D01*
X131951290Y-113217412D01*
X131942424Y-113209839D01*
X131910582Y-113179938D01*
X131893024Y-113170285D01*
X131876764Y-113159604D01*
X131860936Y-113147327D01*
X131820851Y-113129980D01*
X131810361Y-113124841D01*
X131772091Y-113103802D01*
X131752691Y-113098821D01*
X131734284Y-113092519D01*
X131715897Y-113084562D01*
X131672758Y-113077729D01*
X131661324Y-113075361D01*
X131619019Y-113064500D01*
X131598984Y-113064500D01*
X131579586Y-113062973D01*
X131572162Y-113061797D01*
X131559805Y-113059840D01*
X131559804Y-113059840D01*
X131526751Y-113062964D01*
X131516325Y-113063950D01*
X131504656Y-113064500D01*
X128625226Y-113064500D01*
X128567969Y-113050489D01*
X128523651Y-113011623D01*
X128449065Y-112905102D01*
X128388495Y-112818599D01*
X128221401Y-112651505D01*
X128035839Y-112521573D01*
X127996974Y-112477255D01*
X127982964Y-112419999D01*
X127996975Y-112362742D01*
X128035837Y-112318428D01*
X128221401Y-112188495D01*
X128388495Y-112021401D01*
X128524035Y-111827830D01*
X128623903Y-111613663D01*
X128685063Y-111385408D01*
X128705659Y-111150000D01*
X128685063Y-110914592D01*
X128623903Y-110686337D01*
X128524035Y-110472171D01*
X128388495Y-110278599D01*
X128221401Y-110111505D01*
X128035839Y-109981573D01*
X127996975Y-109937257D01*
X127982964Y-109880000D01*
X127996975Y-109822743D01*
X128035839Y-109778426D01*
X128221401Y-109648495D01*
X128388495Y-109481401D01*
X128524035Y-109287830D01*
X128623903Y-109073663D01*
X128685063Y-108845408D01*
X128705659Y-108610000D01*
X128703437Y-108584608D01*
X128685063Y-108374592D01*
X128647769Y-108235408D01*
X128623903Y-108146337D01*
X128524035Y-107932171D01*
X128388495Y-107738599D01*
X128221401Y-107571505D01*
X128035839Y-107441573D01*
X127996974Y-107397255D01*
X127982964Y-107339999D01*
X127996975Y-107282742D01*
X128035837Y-107238428D01*
X128221401Y-107108495D01*
X128388495Y-106941401D01*
X128524035Y-106747830D01*
X128623903Y-106533663D01*
X128685063Y-106305408D01*
X128705659Y-106070000D01*
X128685063Y-105834592D01*
X128623903Y-105606337D01*
X128524035Y-105392171D01*
X128388495Y-105198599D01*
X128221401Y-105031505D01*
X128035839Y-104901573D01*
X127996975Y-104857257D01*
X127982964Y-104800000D01*
X127996975Y-104742743D01*
X128035839Y-104698426D01*
X128221401Y-104568495D01*
X128388495Y-104401401D01*
X128524035Y-104207830D01*
X128623903Y-103993663D01*
X128685063Y-103765408D01*
X128705659Y-103530000D01*
X128685063Y-103294592D01*
X128623903Y-103066337D01*
X128524035Y-102852171D01*
X128388495Y-102658599D01*
X128221401Y-102491505D01*
X128035839Y-102361573D01*
X127996975Y-102317257D01*
X127982964Y-102260000D01*
X127996975Y-102202743D01*
X128035839Y-102158426D01*
X128221401Y-102028495D01*
X128388495Y-101861401D01*
X128524035Y-101667830D01*
X128623903Y-101453663D01*
X128685063Y-101225408D01*
X128705659Y-100990000D01*
X128685063Y-100754592D01*
X128623903Y-100526337D01*
X128524035Y-100312171D01*
X128388495Y-100118599D01*
X128221401Y-99951505D01*
X128035839Y-99821573D01*
X127996975Y-99777257D01*
X127982964Y-99720000D01*
X127996975Y-99662743D01*
X128035839Y-99618426D01*
X128221401Y-99488495D01*
X128388495Y-99321401D01*
X128524035Y-99127830D01*
X128623903Y-98913663D01*
X128685063Y-98685408D01*
X128705659Y-98450000D01*
X128685063Y-98214592D01*
X128623903Y-97986337D01*
X128524035Y-97772171D01*
X128388495Y-97578599D01*
X128221401Y-97411505D01*
X128035839Y-97281573D01*
X127996974Y-97237255D01*
X127982964Y-97179999D01*
X127996975Y-97122742D01*
X128035837Y-97078428D01*
X128221401Y-96948495D01*
X128388495Y-96781401D01*
X128524035Y-96587830D01*
X128623903Y-96373663D01*
X128685063Y-96145408D01*
X128705659Y-95910000D01*
X128704011Y-95891169D01*
X128685063Y-95674592D01*
X128683845Y-95670047D01*
X128623903Y-95446337D01*
X128524035Y-95232171D01*
X128388495Y-95038599D01*
X128221401Y-94871505D01*
X128035839Y-94741573D01*
X127996975Y-94697257D01*
X127982964Y-94640000D01*
X127996975Y-94582743D01*
X128035839Y-94538426D01*
X128221401Y-94408495D01*
X128388495Y-94241401D01*
X128524035Y-94047830D01*
X128623903Y-93833663D01*
X128685063Y-93605408D01*
X128705659Y-93370000D01*
X128685063Y-93134592D01*
X128623903Y-92906337D01*
X128524035Y-92692171D01*
X128388495Y-92498599D01*
X128221401Y-92331505D01*
X128035839Y-92201573D01*
X127996975Y-92157257D01*
X127982964Y-92100000D01*
X127996975Y-92042743D01*
X128035839Y-91998426D01*
X128221401Y-91868495D01*
X128388495Y-91701401D01*
X128524035Y-91507830D01*
X128623903Y-91293663D01*
X128685063Y-91065408D01*
X128705659Y-90830000D01*
X128704004Y-90811089D01*
X128685063Y-90594592D01*
X128652166Y-90471817D01*
X128623903Y-90366337D01*
X128524035Y-90152171D01*
X128388495Y-89958599D01*
X128221401Y-89791505D01*
X128035839Y-89661573D01*
X127996975Y-89617257D01*
X127982964Y-89560000D01*
X127996975Y-89502743D01*
X128035839Y-89458426D01*
X128221401Y-89328495D01*
X128388495Y-89161401D01*
X128524035Y-88967830D01*
X128623903Y-88753663D01*
X128685063Y-88525408D01*
X128705659Y-88290000D01*
X128685063Y-88054592D01*
X128623903Y-87826337D01*
X128524035Y-87612171D01*
X128388495Y-87418599D01*
X128221401Y-87251505D01*
X128035839Y-87121573D01*
X127996976Y-87077257D01*
X127982965Y-87020000D01*
X127996976Y-86962743D01*
X128035839Y-86918426D01*
X128221401Y-86788495D01*
X128388495Y-86621401D01*
X128524035Y-86427830D01*
X128623903Y-86213663D01*
X128685063Y-85985408D01*
X128705659Y-85750000D01*
X128685063Y-85514592D01*
X128623903Y-85286337D01*
X128524035Y-85072171D01*
X128388495Y-84878599D01*
X128221401Y-84711505D01*
X128035839Y-84581573D01*
X127996975Y-84537257D01*
X127982964Y-84480000D01*
X127996975Y-84422743D01*
X128035839Y-84378426D01*
X128221401Y-84248495D01*
X128388495Y-84081401D01*
X128524035Y-83887830D01*
X128623903Y-83673663D01*
X128685063Y-83445408D01*
X128705659Y-83210000D01*
X128699629Y-83141084D01*
X128685063Y-82974592D01*
X128656578Y-82868284D01*
X128623903Y-82746337D01*
X128524035Y-82532171D01*
X128388495Y-82338599D01*
X128221401Y-82171505D01*
X128035839Y-82041573D01*
X127996975Y-81997257D01*
X127982964Y-81940000D01*
X127996975Y-81882743D01*
X128035839Y-81838426D01*
X128221401Y-81708495D01*
X128388495Y-81541401D01*
X128524035Y-81347830D01*
X128623903Y-81133663D01*
X128685063Y-80905408D01*
X128705659Y-80670000D01*
X128696993Y-80570955D01*
X128685063Y-80434592D01*
X128667296Y-80368284D01*
X128623903Y-80206337D01*
X128524035Y-79992171D01*
X128388495Y-79798599D01*
X128221401Y-79631505D01*
X128035839Y-79501573D01*
X127996975Y-79457257D01*
X127982964Y-79400000D01*
X127996975Y-79342743D01*
X128035839Y-79298426D01*
X128221401Y-79168495D01*
X128388495Y-79001401D01*
X128524035Y-78807830D01*
X128623903Y-78593663D01*
X128685063Y-78365408D01*
X128705659Y-78130000D01*
X128685063Y-77894592D01*
X128623903Y-77666337D01*
X128524035Y-77452171D01*
X128388495Y-77258599D01*
X128221401Y-77091505D01*
X128035839Y-76961573D01*
X127996975Y-76917257D01*
X127982964Y-76860000D01*
X127996975Y-76802743D01*
X128035839Y-76758426D01*
X128221401Y-76628495D01*
X128388495Y-76461401D01*
X128524035Y-76267830D01*
X128623903Y-76053663D01*
X128685063Y-75825408D01*
X128705659Y-75590000D01*
X128685063Y-75354592D01*
X128623903Y-75126337D01*
X128524035Y-74912171D01*
X128388495Y-74718599D01*
X128221401Y-74551505D01*
X128035839Y-74421573D01*
X127996974Y-74377255D01*
X127982964Y-74319999D01*
X127996975Y-74262742D01*
X128035837Y-74218428D01*
X128221401Y-74088495D01*
X128388495Y-73921401D01*
X128524035Y-73727830D01*
X128577236Y-73613739D01*
X128617812Y-73565051D01*
X128677150Y-73542773D01*
X128739745Y-73552729D01*
X128789243Y-73592317D01*
X128812712Y-73651193D01*
X128814859Y-73668869D01*
X128818450Y-73678339D01*
X128824475Y-73699952D01*
X128826303Y-73709929D01*
X128850991Y-73764783D01*
X128853856Y-73771701D01*
X128872584Y-73821081D01*
X128875182Y-73827930D01*
X128880941Y-73836273D01*
X128891961Y-73855813D01*
X128896120Y-73865054D01*
X128933216Y-73912405D01*
X128937651Y-73918432D01*
X128971817Y-73967929D01*
X129016847Y-74007822D01*
X129022283Y-74012940D01*
X131487058Y-76477715D01*
X131492178Y-76483153D01*
X131532071Y-76528183D01*
X131581577Y-76562355D01*
X131587597Y-76566785D01*
X131634941Y-76603877D01*
X131634942Y-76603877D01*
X131634943Y-76603878D01*
X131644184Y-76608037D01*
X131663730Y-76619061D01*
X131672070Y-76624818D01*
X131728313Y-76646147D01*
X131735217Y-76649007D01*
X131790069Y-76673695D01*
X131800044Y-76675522D01*
X131821656Y-76681547D01*
X131831128Y-76685140D01*
X131890841Y-76692390D01*
X131898185Y-76693507D01*
X131957394Y-76704358D01*
X132014102Y-76700927D01*
X132017434Y-76700726D01*
X132024921Y-76700500D01*
X136475079Y-76700500D01*
X136482566Y-76700726D01*
X136485706Y-76700915D01*
X136542606Y-76704358D01*
X136601782Y-76693513D01*
X136609181Y-76692387D01*
X136668872Y-76685140D01*
X136678335Y-76681550D01*
X136699958Y-76675522D01*
X136709932Y-76673695D01*
X136764808Y-76648996D01*
X136771673Y-76646152D01*
X136827930Y-76624818D01*
X136836270Y-76619060D01*
X136855819Y-76608035D01*
X136865057Y-76603878D01*
X136912413Y-76566775D01*
X136918420Y-76562355D01*
X136967929Y-76528183D01*
X137007823Y-76483149D01*
X137012908Y-76477747D01*
X137163840Y-76326816D01*
X137204067Y-76299939D01*
X137251519Y-76290500D01*
X141367289Y-76290500D01*
X141424546Y-76304511D01*
X141468863Y-76343376D01*
X141551505Y-76461401D01*
X141718599Y-76628495D01*
X141904160Y-76758426D01*
X141943024Y-76802743D01*
X141957035Y-76860000D01*
X141943024Y-76917257D01*
X141904159Y-76961575D01*
X141718595Y-77091508D01*
X141551505Y-77258598D01*
X141415965Y-77452170D01*
X141316097Y-77666336D01*
X141254936Y-77894592D01*
X141234340Y-78129999D01*
X141254936Y-78365407D01*
X141272704Y-78431716D01*
X141316097Y-78593663D01*
X141415965Y-78807830D01*
X141551505Y-79001401D01*
X141718599Y-79168495D01*
X141904160Y-79298426D01*
X141943024Y-79342743D01*
X141957035Y-79400000D01*
X141943024Y-79457257D01*
X141904159Y-79501575D01*
X141718599Y-79631505D01*
X141586922Y-79763182D01*
X141546694Y-79790061D01*
X141499241Y-79799500D01*
X139758656Y-79799500D01*
X139720338Y-79793431D01*
X139685770Y-79775818D01*
X139603227Y-79715847D01*
X139430302Y-79638855D01*
X139245148Y-79599500D01*
X139245146Y-79599500D01*
X139055854Y-79599500D01*
X139055852Y-79599500D01*
X138870697Y-79638855D01*
X138697769Y-79715848D01*
X138544629Y-79827110D01*
X138417966Y-79967783D01*
X138323320Y-80131715D01*
X138264826Y-80311742D01*
X138245040Y-80500000D01*
X138264826Y-80688257D01*
X138323320Y-80868284D01*
X138417966Y-81032216D01*
X138544629Y-81172889D01*
X138697769Y-81284151D01*
X138870697Y-81361144D01*
X139055852Y-81400500D01*
X139055854Y-81400500D01*
X139245146Y-81400500D01*
X139245148Y-81400500D01*
X139368583Y-81374262D01*
X139430303Y-81361144D01*
X139603230Y-81284151D01*
X139685771Y-81224181D01*
X139720338Y-81206569D01*
X139758656Y-81200500D01*
X141268267Y-81200500D01*
X141334892Y-81219919D01*
X141380649Y-81272095D01*
X141394073Y-81300884D01*
X141415965Y-81347830D01*
X141551505Y-81541401D01*
X141718599Y-81708495D01*
X141904160Y-81838426D01*
X141943024Y-81882743D01*
X141957035Y-81940000D01*
X141943024Y-81997257D01*
X141904158Y-82041575D01*
X141722360Y-82168872D01*
X141718595Y-82171508D01*
X141551505Y-82338598D01*
X141415965Y-82532170D01*
X141316097Y-82746336D01*
X141254936Y-82974592D01*
X141234340Y-83210000D01*
X141254936Y-83445407D01*
X141291535Y-83581994D01*
X141316097Y-83673663D01*
X141415965Y-83887830D01*
X141551505Y-84081401D01*
X141718599Y-84248495D01*
X141904160Y-84378426D01*
X141943024Y-84422743D01*
X141957035Y-84480000D01*
X141943024Y-84537257D01*
X141904159Y-84581575D01*
X141718595Y-84711508D01*
X141551505Y-84878598D01*
X141503874Y-84946623D01*
X141459556Y-84985489D01*
X141402299Y-84999500D01*
X139958156Y-84999500D01*
X139919838Y-84993431D01*
X139885270Y-84975818D01*
X139859589Y-84957160D01*
X139802730Y-84915849D01*
X139802729Y-84915848D01*
X139802727Y-84915847D01*
X139629802Y-84838855D01*
X139444648Y-84799500D01*
X139444646Y-84799500D01*
X139255354Y-84799500D01*
X139255352Y-84799500D01*
X139070197Y-84838855D01*
X138897269Y-84915848D01*
X138744129Y-85027110D01*
X138617466Y-85167783D01*
X138522820Y-85331715D01*
X138464326Y-85511742D01*
X138450966Y-85638855D01*
X138444540Y-85700000D01*
X138447808Y-85731089D01*
X138464326Y-85888257D01*
X138522820Y-86068284D01*
X138617466Y-86232216D01*
X138744129Y-86372889D01*
X138897269Y-86484151D01*
X139070197Y-86561144D01*
X139255352Y-86600500D01*
X139255354Y-86600500D01*
X139444646Y-86600500D01*
X139444648Y-86600500D01*
X139615651Y-86564152D01*
X139629803Y-86561144D01*
X139802730Y-86484151D01*
X139885271Y-86424181D01*
X139919838Y-86406569D01*
X139958156Y-86400500D01*
X141332277Y-86400500D01*
X141389533Y-86414510D01*
X141433851Y-86453376D01*
X141551504Y-86621400D01*
X141551505Y-86621401D01*
X141718599Y-86788495D01*
X141904160Y-86918426D01*
X141943024Y-86962743D01*
X141957035Y-87020000D01*
X141943024Y-87077257D01*
X141904159Y-87121575D01*
X141718595Y-87251508D01*
X141551505Y-87418598D01*
X141415965Y-87612170D01*
X141316097Y-87826336D01*
X141254936Y-88054592D01*
X141234340Y-88289999D01*
X141254936Y-88525407D01*
X141285335Y-88638856D01*
X141316097Y-88753663D01*
X141415965Y-88967830D01*
X141551505Y-89161401D01*
X141718599Y-89328495D01*
X141904160Y-89458426D01*
X141943024Y-89502743D01*
X141957035Y-89560000D01*
X141943024Y-89617257D01*
X141904159Y-89661575D01*
X141718595Y-89791508D01*
X141551505Y-89958598D01*
X141415965Y-90152170D01*
X141316097Y-90366336D01*
X141254936Y-90594592D01*
X141234340Y-90830000D01*
X141254936Y-91065407D01*
X141274617Y-91138856D01*
X141316097Y-91293663D01*
X141415965Y-91507830D01*
X141551505Y-91701401D01*
X141718599Y-91868495D01*
X141904160Y-91998426D01*
X141943024Y-92042743D01*
X141957035Y-92100000D01*
X141943024Y-92157257D01*
X141904158Y-92201575D01*
X141726026Y-92326305D01*
X141718595Y-92331508D01*
X141551505Y-92498598D01*
X141415965Y-92692170D01*
X141316097Y-92906336D01*
X141254936Y-93134592D01*
X141234340Y-93370000D01*
X141254936Y-93605407D01*
X141298043Y-93766285D01*
X141316097Y-93833663D01*
X141415965Y-94047830D01*
X141551505Y-94241401D01*
X141718599Y-94408495D01*
X141904160Y-94538426D01*
X141943024Y-94582743D01*
X141957035Y-94640000D01*
X141943024Y-94697257D01*
X141904159Y-94741575D01*
X141718595Y-94871508D01*
X141551505Y-95038597D01*
X141545886Y-95046623D01*
X141501568Y-95085489D01*
X141444311Y-95099500D01*
X140958156Y-95099500D01*
X140919838Y-95093431D01*
X140885270Y-95075818D01*
X140882389Y-95073725D01*
X140802730Y-95015849D01*
X140802729Y-95015848D01*
X140802727Y-95015847D01*
X140629802Y-94938855D01*
X140444648Y-94899500D01*
X140444646Y-94899500D01*
X140255354Y-94899500D01*
X140255352Y-94899500D01*
X140070197Y-94938855D01*
X139897269Y-95015848D01*
X139744129Y-95127110D01*
X139617466Y-95267783D01*
X139522820Y-95431715D01*
X139464326Y-95611742D01*
X139444540Y-95799999D01*
X139464326Y-95988257D01*
X139522820Y-96168284D01*
X139617466Y-96332216D01*
X139744129Y-96472889D01*
X139897269Y-96584151D01*
X140070197Y-96661144D01*
X140255352Y-96700500D01*
X140255354Y-96700500D01*
X140444646Y-96700500D01*
X140444648Y-96700500D01*
X140609309Y-96665500D01*
X140629803Y-96661144D01*
X140802730Y-96584151D01*
X140885271Y-96524181D01*
X140919838Y-96506569D01*
X140958156Y-96500500D01*
X141296246Y-96500500D01*
X141362871Y-96519920D01*
X141408628Y-96572096D01*
X141415962Y-96587826D01*
X141415965Y-96587830D01*
X141551505Y-96781401D01*
X141718599Y-96948495D01*
X141904160Y-97078426D01*
X141943024Y-97122743D01*
X141957035Y-97180000D01*
X141943024Y-97237257D01*
X141904159Y-97281575D01*
X141873738Y-97302875D01*
X141757114Y-97384537D01*
X141718595Y-97411508D01*
X141551505Y-97578598D01*
X141415965Y-97772170D01*
X141316097Y-97986336D01*
X141254936Y-98214592D01*
X141234340Y-98449999D01*
X141254936Y-98685407D01*
X141299709Y-98852501D01*
X141316097Y-98913663D01*
X141415965Y-99127830D01*
X141551505Y-99321401D01*
X141718599Y-99488495D01*
X141904160Y-99618426D01*
X141943024Y-99662743D01*
X141957035Y-99720000D01*
X141943024Y-99777257D01*
X141904159Y-99821575D01*
X141718595Y-99951508D01*
X141551505Y-100118598D01*
X141415965Y-100312170D01*
X141316097Y-100526336D01*
X141254936Y-100754592D01*
X141234340Y-100990000D01*
X141254936Y-101225407D01*
X141283422Y-101331716D01*
X141316097Y-101453663D01*
X141415965Y-101667830D01*
X141551505Y-101861401D01*
X141718599Y-102028495D01*
X141904160Y-102158426D01*
X141943024Y-102202743D01*
X141957035Y-102260000D01*
X141943024Y-102317257D01*
X141904159Y-102361575D01*
X141718595Y-102491508D01*
X141551505Y-102658598D01*
X141415965Y-102852170D01*
X141316097Y-103066336D01*
X141254936Y-103294592D01*
X141234340Y-103529999D01*
X141254936Y-103765407D01*
X141271163Y-103825965D01*
X141316097Y-103993663D01*
X141415965Y-104207830D01*
X141551505Y-104401401D01*
X141718599Y-104568495D01*
X141904160Y-104698426D01*
X141943024Y-104742743D01*
X141957035Y-104800000D01*
X141943024Y-104857257D01*
X141904158Y-104901575D01*
X141814790Y-104964152D01*
X141718595Y-105031508D01*
X141551505Y-105198598D01*
X141415965Y-105392170D01*
X141316097Y-105606336D01*
X141254936Y-105834592D01*
X141234340Y-106069999D01*
X141254936Y-106305407D01*
X141297983Y-106466061D01*
X141316097Y-106533663D01*
X141415965Y-106747830D01*
X141551505Y-106941401D01*
X141718599Y-107108495D01*
X141904160Y-107238426D01*
X141943024Y-107282743D01*
X141957035Y-107340000D01*
X141943024Y-107397257D01*
X141904160Y-107441574D01*
X141768825Y-107536337D01*
X141718595Y-107571508D01*
X141551505Y-107738598D01*
X141415965Y-107932170D01*
X141316097Y-108146336D01*
X141254936Y-108374592D01*
X141234340Y-108610000D01*
X141254936Y-108845407D01*
X141290169Y-108976899D01*
X141316097Y-109073663D01*
X141415965Y-109287830D01*
X141551505Y-109481401D01*
X141718599Y-109648495D01*
X141904597Y-109778732D01*
X141943460Y-109823048D01*
X141957471Y-109880305D01*
X141943461Y-109937561D01*
X141904595Y-109981880D01*
X141718919Y-110111892D01*
X141551890Y-110278921D01*
X141416400Y-110472421D01*
X141316569Y-110686507D01*
X141259364Y-110899999D01*
X141259364Y-110900000D01*
X143920636Y-110900000D01*
X143920635Y-110899999D01*
X143863430Y-110686507D01*
X143763599Y-110472421D01*
X143628109Y-110278921D01*
X143461081Y-110111893D01*
X143275404Y-109981880D01*
X143236539Y-109937562D01*
X143222528Y-109880305D01*
X143236539Y-109823048D01*
X143275402Y-109778732D01*
X143461401Y-109648495D01*
X143628495Y-109481401D01*
X143640018Y-109464945D01*
X143641116Y-109463377D01*
X143685434Y-109424511D01*
X143742691Y-109410500D01*
X149147060Y-109410500D01*
X149194513Y-109419939D01*
X149234741Y-109446819D01*
X155000240Y-115212318D01*
X155032334Y-115267905D01*
X155032334Y-115332093D01*
X155000240Y-115387680D01*
X144137896Y-126250024D01*
X144077053Y-126283404D01*
X144007804Y-126278865D01*
X143951839Y-126237829D01*
X143926687Y-126173150D01*
X143925063Y-126154592D01*
X143897172Y-126050500D01*
X143863903Y-125926337D01*
X143764035Y-125712171D01*
X143628495Y-125518599D01*
X143461401Y-125351505D01*
X143275839Y-125221573D01*
X143236975Y-125177257D01*
X143222964Y-125120000D01*
X143236975Y-125062743D01*
X143275839Y-125018426D01*
X143461401Y-124888495D01*
X143628495Y-124721401D01*
X143764035Y-124527830D01*
X143863903Y-124313663D01*
X143925063Y-124085408D01*
X143945659Y-123850000D01*
X143925063Y-123614592D01*
X143863903Y-123386337D01*
X143764035Y-123172171D01*
X143628495Y-122978599D01*
X143461401Y-122811505D01*
X143275839Y-122681573D01*
X143236975Y-122637257D01*
X143222964Y-122580000D01*
X143236975Y-122522743D01*
X143275839Y-122478426D01*
X143461401Y-122348495D01*
X143628495Y-122181401D01*
X143764035Y-121987830D01*
X143863903Y-121773663D01*
X143925063Y-121545408D01*
X143945659Y-121310000D01*
X143925063Y-121074592D01*
X143863903Y-120846337D01*
X143764035Y-120632171D01*
X143628495Y-120438599D01*
X143461401Y-120271505D01*
X143275839Y-120141573D01*
X143236976Y-120097257D01*
X143222965Y-120040000D01*
X143236976Y-119982743D01*
X143275839Y-119938426D01*
X143461401Y-119808495D01*
X143628495Y-119641401D01*
X143764035Y-119447830D01*
X143863903Y-119233663D01*
X143925063Y-119005408D01*
X143945659Y-118770000D01*
X143925063Y-118534592D01*
X143863903Y-118306337D01*
X143764035Y-118092171D01*
X143628495Y-117898599D01*
X143461401Y-117731505D01*
X143275839Y-117601573D01*
X143236975Y-117557257D01*
X143222964Y-117500000D01*
X143236975Y-117442743D01*
X143275839Y-117398426D01*
X143461401Y-117268495D01*
X143628495Y-117101401D01*
X143764035Y-116907830D01*
X143863903Y-116693663D01*
X143925063Y-116465408D01*
X143945659Y-116230000D01*
X143925063Y-115994592D01*
X143863903Y-115766337D01*
X143764035Y-115552171D01*
X143628495Y-115358599D01*
X143461401Y-115191505D01*
X143275839Y-115061573D01*
X143236974Y-115017255D01*
X143222964Y-114959999D01*
X143236975Y-114902742D01*
X143275837Y-114858428D01*
X143461401Y-114728495D01*
X143628495Y-114561401D01*
X143739146Y-114403375D01*
X143783463Y-114364511D01*
X143840720Y-114350500D01*
X145627289Y-114350500D01*
X145684546Y-114364511D01*
X145728863Y-114403376D01*
X145811505Y-114521401D01*
X145978599Y-114688495D01*
X146172170Y-114824035D01*
X146386337Y-114923903D01*
X146614592Y-114985063D01*
X146850000Y-115005659D01*
X147085408Y-114985063D01*
X147313663Y-114923903D01*
X147527830Y-114824035D01*
X147721401Y-114688495D01*
X147888495Y-114521401D01*
X148024035Y-114327830D01*
X148123903Y-114113663D01*
X148185063Y-113885408D01*
X148205659Y-113650000D01*
X148203749Y-113628174D01*
X148185063Y-113414592D01*
X148174713Y-113375964D01*
X148123903Y-113186337D01*
X148024035Y-112972171D01*
X147888495Y-112778599D01*
X147721401Y-112611505D01*
X147527830Y-112475965D01*
X147313663Y-112376097D01*
X147234692Y-112354937D01*
X147085407Y-112314936D01*
X146850000Y-112294340D01*
X146614592Y-112314936D01*
X146386336Y-112376097D01*
X146172170Y-112475965D01*
X145978598Y-112611505D01*
X145811505Y-112778598D01*
X145728864Y-112896623D01*
X145684546Y-112935489D01*
X145627289Y-112949500D01*
X143784703Y-112949500D01*
X143727446Y-112935489D01*
X143683128Y-112896623D01*
X143628494Y-112818598D01*
X143461404Y-112651508D01*
X143461401Y-112651505D01*
X143275402Y-112521267D01*
X143236539Y-112476951D01*
X143222528Y-112419694D01*
X143236539Y-112362437D01*
X143275405Y-112318119D01*
X143461078Y-112188109D01*
X143628106Y-112021081D01*
X143763600Y-111827576D01*
X143863430Y-111613492D01*
X143920636Y-111400000D01*
X141259364Y-111400000D01*
X141316569Y-111613492D01*
X141416399Y-111827576D01*
X141551893Y-112021081D01*
X141718918Y-112188106D01*
X141904595Y-112318119D01*
X141943460Y-112362437D01*
X141957471Y-112419694D01*
X141943460Y-112476951D01*
X141904595Y-112521269D01*
X141718595Y-112651508D01*
X141551505Y-112818598D01*
X141415965Y-113012170D01*
X141316097Y-113226336D01*
X141254936Y-113454592D01*
X141234340Y-113690000D01*
X141254936Y-113925407D01*
X141284660Y-114036337D01*
X141316097Y-114153663D01*
X141415965Y-114367830D01*
X141551505Y-114561401D01*
X141718599Y-114728495D01*
X141904160Y-114858426D01*
X141943024Y-114902743D01*
X141957035Y-114960000D01*
X141943024Y-115017257D01*
X141904160Y-115061574D01*
X141738134Y-115177827D01*
X141718595Y-115191508D01*
X141551505Y-115358598D01*
X141415965Y-115552170D01*
X141316097Y-115766336D01*
X141254936Y-115994592D01*
X141234340Y-116230000D01*
X141254936Y-116465407D01*
X141299709Y-116632502D01*
X141316097Y-116693663D01*
X141415965Y-116907830D01*
X141551505Y-117101401D01*
X141718599Y-117268495D01*
X141904160Y-117398426D01*
X141943024Y-117442743D01*
X141957035Y-117500000D01*
X141943024Y-117557257D01*
X141904159Y-117601575D01*
X141718595Y-117731508D01*
X141551505Y-117898598D01*
X141415965Y-118092170D01*
X141316097Y-118306336D01*
X141254936Y-118534592D01*
X141234340Y-118770000D01*
X141254936Y-119005407D01*
X141299709Y-119172502D01*
X141316097Y-119233663D01*
X141415965Y-119447830D01*
X141551505Y-119641401D01*
X141718599Y-119808495D01*
X141904160Y-119938426D01*
X141943024Y-119982743D01*
X141957035Y-120040000D01*
X141943024Y-120097257D01*
X141904159Y-120141575D01*
X141718595Y-120271508D01*
X141551505Y-120438598D01*
X141415965Y-120632170D01*
X141316097Y-120846336D01*
X141254936Y-121074592D01*
X141234340Y-121309999D01*
X141254936Y-121545407D01*
X141290418Y-121677827D01*
X141316097Y-121773663D01*
X141415965Y-121987830D01*
X141551505Y-122181401D01*
X141718599Y-122348495D01*
X141904160Y-122478426D01*
X141943024Y-122522743D01*
X141957035Y-122580000D01*
X141943024Y-122637257D01*
X141904159Y-122681575D01*
X141718595Y-122811508D01*
X141551505Y-122978598D01*
X141415965Y-123172170D01*
X141316097Y-123386336D01*
X141254936Y-123614592D01*
X141234340Y-123849999D01*
X141254936Y-124085407D01*
X141298905Y-124249500D01*
X141316097Y-124313663D01*
X141415965Y-124527830D01*
X141551505Y-124721401D01*
X141718599Y-124888495D01*
X141904160Y-125018426D01*
X141943024Y-125062743D01*
X141957035Y-125120000D01*
X141943024Y-125177257D01*
X141904159Y-125221575D01*
X141718595Y-125351508D01*
X141551505Y-125518598D01*
X141415965Y-125712170D01*
X141316097Y-125926336D01*
X141254936Y-126154592D01*
X141234340Y-126390000D01*
X141254936Y-126625407D01*
X141299709Y-126792501D01*
X141316097Y-126853663D01*
X141415965Y-127067830D01*
X141551505Y-127261401D01*
X141551508Y-127261404D01*
X141673430Y-127383326D01*
X141704726Y-127436072D01*
X141706915Y-127497365D01*
X141679462Y-127552209D01*
X141629083Y-127587189D01*
X141497669Y-127636204D01*
X141382454Y-127722454D01*
X141296204Y-127837668D01*
X141245909Y-127972516D01*
X141239500Y-128032131D01*
X141239500Y-128105500D01*
X141222887Y-128167500D01*
X141177500Y-128212887D01*
X141115500Y-128229500D01*
X128824499Y-128229500D01*
X128762499Y-128212887D01*
X128717112Y-128167500D01*
X128700499Y-128105500D01*
X128700499Y-128032130D01*
X128699061Y-128018755D01*
X128694091Y-127972517D01*
X128643796Y-127837669D01*
X128557546Y-127722454D01*
X128442331Y-127636204D01*
X128310399Y-127586996D01*
X128260021Y-127552018D01*
X128232568Y-127497173D01*
X128234757Y-127435880D01*
X128266053Y-127383133D01*
X128388109Y-127261077D01*
X128523600Y-127067576D01*
X128623430Y-126853492D01*
X128680636Y-126640000D01*
X126019364Y-126640000D01*
X126076569Y-126853492D01*
X126176399Y-127067576D01*
X126311893Y-127261081D01*
X126433946Y-127383134D01*
X126465242Y-127435880D01*
X126467431Y-127497173D01*
X126439978Y-127552018D01*
X126389599Y-127586997D01*
X126257669Y-127636204D01*
X126142454Y-127722454D01*
X126056204Y-127837668D01*
X126005909Y-127972516D01*
X126000938Y-128018755D01*
X125980339Y-128075003D01*
X125935776Y-128115032D01*
X125877648Y-128129500D01*
X125479803Y-128129500D01*
X125442480Y-128138017D01*
X125428780Y-128140345D01*
X125390743Y-128144631D01*
X125354623Y-128157270D01*
X125341268Y-128161118D01*
X125303938Y-128169639D01*
X125269453Y-128186246D01*
X125256613Y-128191565D01*
X125220475Y-128204211D01*
X125188064Y-128224576D01*
X125175899Y-128231300D01*
X125141413Y-128247908D01*
X125111487Y-128271773D01*
X125100152Y-128279815D01*
X125067740Y-128300181D01*
X125018306Y-128349615D01*
X120302432Y-133065488D01*
X120265187Y-133091086D01*
X120097269Y-133165848D01*
X119944129Y-133277110D01*
X119817466Y-133417783D01*
X119722820Y-133581715D01*
X119664326Y-133761742D01*
X119644540Y-133949999D01*
X119664326Y-134138257D01*
X119722820Y-134318284D01*
X119817466Y-134482216D01*
X119944129Y-134622889D01*
X120097269Y-134734151D01*
X120270197Y-134811144D01*
X120455352Y-134850500D01*
X120455354Y-134850500D01*
X120644646Y-134850500D01*
X120644648Y-134850500D01*
X120800149Y-134817447D01*
X120829803Y-134811144D01*
X121002730Y-134734151D01*
X121155871Y-134622888D01*
X121282533Y-134482216D01*
X121377179Y-134318284D01*
X121398487Y-134252702D01*
X121428734Y-134203342D01*
X123882077Y-131750000D01*
X157394340Y-131750000D01*
X157414936Y-131985407D01*
X157459709Y-132152501D01*
X157476097Y-132213663D01*
X157575965Y-132427830D01*
X157711505Y-132621401D01*
X157878599Y-132788495D01*
X158072170Y-132924035D01*
X158286337Y-133023903D01*
X158514592Y-133085063D01*
X158750000Y-133105659D01*
X158985408Y-133085063D01*
X159213663Y-133023903D01*
X159427830Y-132924035D01*
X159621401Y-132788495D01*
X159788495Y-132621401D01*
X159924035Y-132427830D01*
X160023903Y-132213663D01*
X160085063Y-131985408D01*
X160105659Y-131750000D01*
X160085063Y-131514592D01*
X160023903Y-131286337D01*
X159924035Y-131072171D01*
X159788495Y-130878599D01*
X159621401Y-130711505D01*
X159427830Y-130575965D01*
X159213663Y-130476097D01*
X159152501Y-130459709D01*
X158985407Y-130414936D01*
X158750000Y-130394340D01*
X158514592Y-130414936D01*
X158286336Y-130476097D01*
X158072170Y-130575965D01*
X157878598Y-130711505D01*
X157711505Y-130878598D01*
X157575965Y-131072170D01*
X157476097Y-131286336D01*
X157414936Y-131514592D01*
X157394340Y-131750000D01*
X123882077Y-131750000D01*
X125798488Y-129833589D01*
X125851232Y-129802295D01*
X125912525Y-129800106D01*
X125967370Y-129827559D01*
X126002349Y-129877938D01*
X126005908Y-129887482D01*
X126005909Y-129887483D01*
X126056204Y-130022331D01*
X126142454Y-130137546D01*
X126257669Y-130223796D01*
X126392517Y-130274091D01*
X126452127Y-130280500D01*
X128247872Y-130280499D01*
X128307483Y-130274091D01*
X128442331Y-130223796D01*
X128557546Y-130137546D01*
X128643796Y-130022331D01*
X128694091Y-129887483D01*
X128700500Y-129827873D01*
X128700500Y-129754500D01*
X128717113Y-129692500D01*
X128762500Y-129647113D01*
X128824500Y-129630500D01*
X141115501Y-129630500D01*
X141177501Y-129647113D01*
X141222888Y-129692500D01*
X141239501Y-129754500D01*
X141239501Y-129827872D01*
X141245909Y-129887483D01*
X141296204Y-130022331D01*
X141382454Y-130137546D01*
X141497669Y-130223796D01*
X141632517Y-130274091D01*
X141692127Y-130280500D01*
X143487872Y-130280499D01*
X143547483Y-130274091D01*
X143682331Y-130223796D01*
X143797546Y-130137546D01*
X143883796Y-130022331D01*
X143934091Y-129887483D01*
X143940500Y-129827873D01*
X143940499Y-128762938D01*
X143949938Y-128715486D01*
X143976815Y-128675261D01*
X154302077Y-118350000D01*
X164644340Y-118350000D01*
X164664936Y-118585407D01*
X164703098Y-118727830D01*
X164726097Y-118813663D01*
X164825965Y-119027830D01*
X164961505Y-119221401D01*
X165128599Y-119388495D01*
X165322170Y-119524035D01*
X165536337Y-119623903D01*
X165764592Y-119685063D01*
X166000000Y-119705659D01*
X166235408Y-119685063D01*
X166463663Y-119623903D01*
X166677830Y-119524035D01*
X166871401Y-119388495D01*
X167038495Y-119221401D01*
X167174035Y-119027830D01*
X167273903Y-118813663D01*
X167335063Y-118585408D01*
X167355659Y-118350000D01*
X167335063Y-118114592D01*
X167317756Y-118049999D01*
X168294340Y-118049999D01*
X168314936Y-118285407D01*
X168332244Y-118350000D01*
X168376097Y-118513663D01*
X168475965Y-118727830D01*
X168611505Y-118921401D01*
X168778599Y-119088495D01*
X168972170Y-119224035D01*
X169186337Y-119323903D01*
X169414592Y-119385063D01*
X169650000Y-119405659D01*
X169885408Y-119385063D01*
X170113663Y-119323903D01*
X170327830Y-119224035D01*
X170521401Y-119088495D01*
X170688495Y-118921401D01*
X170824035Y-118727830D01*
X170923903Y-118513663D01*
X170985063Y-118285408D01*
X171005659Y-118050000D01*
X170998478Y-117967928D01*
X170985063Y-117814592D01*
X170923903Y-117586337D01*
X170824035Y-117372171D01*
X170688495Y-117178599D01*
X170521401Y-117011505D01*
X170327830Y-116875965D01*
X170113663Y-116776097D01*
X170052502Y-116759709D01*
X169885407Y-116714936D01*
X169650000Y-116694340D01*
X169414592Y-116714936D01*
X169186336Y-116776097D01*
X168972170Y-116875965D01*
X168778598Y-117011505D01*
X168611505Y-117178598D01*
X168475965Y-117372170D01*
X168376097Y-117586336D01*
X168314936Y-117814592D01*
X168294340Y-118049999D01*
X167317756Y-118049999D01*
X167273903Y-117886337D01*
X167174035Y-117672171D01*
X167038495Y-117478599D01*
X166871401Y-117311505D01*
X166677830Y-117175965D01*
X166463663Y-117076097D01*
X166402501Y-117059709D01*
X166235407Y-117014936D01*
X166000000Y-116994340D01*
X165764592Y-117014936D01*
X165536336Y-117076097D01*
X165322170Y-117175965D01*
X165128598Y-117311505D01*
X164961505Y-117478598D01*
X164825965Y-117672170D01*
X164726097Y-117886336D01*
X164664936Y-118114592D01*
X164644340Y-118350000D01*
X154302077Y-118350000D01*
X156515258Y-116136819D01*
X156555487Y-116109939D01*
X156602940Y-116100500D01*
X166957633Y-116100500D01*
X167008069Y-116111221D01*
X167120197Y-116161144D01*
X167305352Y-116200500D01*
X167305354Y-116200500D01*
X167494646Y-116200500D01*
X167494648Y-116200500D01*
X167618083Y-116174262D01*
X167679803Y-116161144D01*
X167852730Y-116084151D01*
X167883571Y-116061744D01*
X168005870Y-115972889D01*
X168132533Y-115832216D01*
X168227179Y-115668284D01*
X168247904Y-115604500D01*
X168285674Y-115488256D01*
X168305460Y-115300000D01*
X168285674Y-115111744D01*
X168243230Y-114981115D01*
X168227179Y-114931715D01*
X168132533Y-114767783D01*
X168005870Y-114627110D01*
X167899737Y-114550000D01*
X172344340Y-114550000D01*
X172364936Y-114785407D01*
X172388092Y-114871825D01*
X172426097Y-115013663D01*
X172525965Y-115227830D01*
X172661505Y-115421401D01*
X172828599Y-115588495D01*
X173022170Y-115724035D01*
X173236337Y-115823903D01*
X173464592Y-115885063D01*
X173700000Y-115905659D01*
X173935408Y-115885063D01*
X174163663Y-115823903D01*
X174377830Y-115724035D01*
X174571401Y-115588495D01*
X174738495Y-115421401D01*
X174874035Y-115227830D01*
X174973903Y-115013663D01*
X175035063Y-114785408D01*
X175047482Y-114643466D01*
X175053659Y-114572862D01*
X175068107Y-114531293D01*
X175063732Y-114518706D01*
X175281891Y-114518706D01*
X175300715Y-114572861D01*
X175314936Y-114735407D01*
X175347899Y-114858425D01*
X175376097Y-114963663D01*
X175475965Y-115177830D01*
X175611505Y-115371401D01*
X175778599Y-115538495D01*
X175972170Y-115674035D01*
X176186337Y-115773903D01*
X176414592Y-115835063D01*
X176650000Y-115855659D01*
X176885408Y-115835063D01*
X177113663Y-115773903D01*
X177327830Y-115674035D01*
X177521401Y-115538495D01*
X177688495Y-115371401D01*
X177824035Y-115177830D01*
X177923903Y-114963663D01*
X177985063Y-114735408D01*
X178005659Y-114500000D01*
X177985063Y-114264592D01*
X177923903Y-114036337D01*
X177824035Y-113822171D01*
X177688495Y-113628599D01*
X177521401Y-113461505D01*
X177327830Y-113325965D01*
X177113663Y-113226097D01*
X176995147Y-113194341D01*
X176885407Y-113164936D01*
X176650000Y-113144340D01*
X176414592Y-113164936D01*
X176186336Y-113226097D01*
X175972170Y-113325965D01*
X175778598Y-113461505D01*
X175611505Y-113628598D01*
X175475965Y-113822170D01*
X175376097Y-114036336D01*
X175314936Y-114264592D01*
X175296340Y-114477138D01*
X175281891Y-114518706D01*
X175063732Y-114518706D01*
X175049284Y-114477137D01*
X175035063Y-114314592D01*
X175035062Y-114314591D01*
X174973903Y-114086337D01*
X174874035Y-113872171D01*
X174738495Y-113678599D01*
X174571401Y-113511505D01*
X174377830Y-113375965D01*
X174163663Y-113276097D01*
X174102502Y-113259709D01*
X173935407Y-113214936D01*
X173700000Y-113194340D01*
X173464592Y-113214936D01*
X173236336Y-113276097D01*
X173022170Y-113375965D01*
X172828598Y-113511505D01*
X172661505Y-113678598D01*
X172525965Y-113872170D01*
X172426097Y-114086336D01*
X172364936Y-114314592D01*
X172344340Y-114550000D01*
X167899737Y-114550000D01*
X167852730Y-114515848D01*
X167679802Y-114438855D01*
X167494648Y-114399500D01*
X167494646Y-114399500D01*
X167305354Y-114399500D01*
X167305352Y-114399500D01*
X167120197Y-114438855D01*
X167008069Y-114488779D01*
X166957633Y-114499500D01*
X156602940Y-114499500D01*
X156555487Y-114490061D01*
X156515259Y-114463181D01*
X153152077Y-111099999D01*
X169994340Y-111099999D01*
X170014936Y-111335407D01*
X170044040Y-111444023D01*
X170076097Y-111563663D01*
X170175965Y-111777830D01*
X170311505Y-111971401D01*
X170478599Y-112138495D01*
X170672170Y-112274035D01*
X170886337Y-112373903D01*
X171114592Y-112435063D01*
X171350000Y-112455659D01*
X171585408Y-112435063D01*
X171813663Y-112373903D01*
X172027830Y-112274035D01*
X172221401Y-112138495D01*
X172388495Y-111971401D01*
X172524035Y-111777830D01*
X172623903Y-111563663D01*
X172685063Y-111335408D01*
X172705659Y-111100000D01*
X172685063Y-110864592D01*
X172623903Y-110636337D01*
X172524035Y-110422171D01*
X172388495Y-110228599D01*
X172221401Y-110061505D01*
X172027830Y-109925965D01*
X171813663Y-109826097D01*
X171752502Y-109809709D01*
X171585407Y-109764936D01*
X171350000Y-109744340D01*
X171114592Y-109764936D01*
X170886336Y-109826097D01*
X170672170Y-109925965D01*
X170478598Y-110061505D01*
X170311505Y-110228598D01*
X170175965Y-110422170D01*
X170076097Y-110636336D01*
X170014936Y-110864592D01*
X169994340Y-111099999D01*
X153152077Y-111099999D01*
X150032262Y-107980184D01*
X149999850Y-107959818D01*
X149988510Y-107951772D01*
X149958586Y-107927908D01*
X149924095Y-107911298D01*
X149911933Y-107904576D01*
X149886915Y-107888856D01*
X149879520Y-107884209D01*
X149843398Y-107871570D01*
X149830553Y-107866250D01*
X149796058Y-107849638D01*
X149758736Y-107841119D01*
X149745380Y-107837272D01*
X149709252Y-107824631D01*
X149671219Y-107820345D01*
X149657518Y-107818017D01*
X149620196Y-107809500D01*
X149620194Y-107809500D01*
X149574954Y-107809500D01*
X143742691Y-107809500D01*
X143685434Y-107795489D01*
X143641116Y-107756623D01*
X143628494Y-107738597D01*
X143461404Y-107571508D01*
X143461401Y-107571505D01*
X143275839Y-107441573D01*
X143236974Y-107397255D01*
X143222964Y-107339999D01*
X143236975Y-107282742D01*
X143275837Y-107238428D01*
X143461401Y-107108495D01*
X143628495Y-106941401D01*
X143764035Y-106747830D01*
X143863903Y-106533663D01*
X143925063Y-106305408D01*
X143945659Y-106070000D01*
X143925063Y-105834592D01*
X143863903Y-105606337D01*
X143764035Y-105392171D01*
X143628495Y-105198599D01*
X143461401Y-105031505D01*
X143275839Y-104901573D01*
X143236975Y-104857257D01*
X143222964Y-104800000D01*
X143236975Y-104742743D01*
X143275839Y-104698426D01*
X143461401Y-104568495D01*
X143628495Y-104401401D01*
X143764035Y-104207830D01*
X143863903Y-103993663D01*
X143925063Y-103765408D01*
X143945659Y-103530000D01*
X143925063Y-103294592D01*
X143863903Y-103066337D01*
X143764035Y-102852171D01*
X143628495Y-102658599D01*
X143461401Y-102491505D01*
X143275839Y-102361573D01*
X143236975Y-102317257D01*
X143222964Y-102260000D01*
X143236975Y-102202743D01*
X143275839Y-102158426D01*
X143461401Y-102028495D01*
X143628495Y-101861401D01*
X143711136Y-101743376D01*
X143755454Y-101704511D01*
X143812711Y-101690500D01*
X160648481Y-101690500D01*
X160695934Y-101699939D01*
X160736162Y-101726819D01*
X163973495Y-104964152D01*
X163997734Y-104998449D01*
X164009134Y-105038869D01*
X164014325Y-105088254D01*
X164072820Y-105268284D01*
X164167466Y-105432216D01*
X164294129Y-105572889D01*
X164447269Y-105684151D01*
X164620197Y-105761144D01*
X164805352Y-105800500D01*
X164805354Y-105800500D01*
X164994646Y-105800500D01*
X164994648Y-105800500D01*
X165119781Y-105773902D01*
X165179803Y-105761144D01*
X165352730Y-105684151D01*
X165505871Y-105572888D01*
X165516858Y-105560685D01*
X165572750Y-105525075D01*
X165639004Y-105523339D01*
X165696689Y-105555975D01*
X166113181Y-105972467D01*
X166140061Y-106012695D01*
X166149500Y-106060148D01*
X166149500Y-108584608D01*
X166141264Y-108629045D01*
X166117650Y-108667580D01*
X166117466Y-108667783D01*
X166022820Y-108831715D01*
X165964326Y-109011742D01*
X165944540Y-109200000D01*
X165964326Y-109388257D01*
X166022820Y-109568284D01*
X166117466Y-109732216D01*
X166244129Y-109872889D01*
X166397269Y-109984151D01*
X166570197Y-110061144D01*
X166755352Y-110100500D01*
X166755354Y-110100500D01*
X166944646Y-110100500D01*
X166944648Y-110100500D01*
X167068084Y-110074262D01*
X167129803Y-110061144D01*
X167302730Y-109984151D01*
X167316322Y-109974276D01*
X167455870Y-109872889D01*
X167467294Y-109860202D01*
X167582533Y-109732216D01*
X167677179Y-109568284D01*
X167735674Y-109388256D01*
X167755460Y-109200000D01*
X167735674Y-109011744D01*
X167696790Y-108892072D01*
X167677179Y-108831715D01*
X167582533Y-108667783D01*
X167582350Y-108667580D01*
X167558736Y-108629045D01*
X167550500Y-108584608D01*
X167550500Y-105743550D01*
X167550726Y-105736063D01*
X167553866Y-105684151D01*
X167554358Y-105676023D01*
X167543507Y-105616814D01*
X167542390Y-105609470D01*
X167535140Y-105549757D01*
X167531547Y-105540285D01*
X167525522Y-105518673D01*
X167523695Y-105508698D01*
X167499009Y-105453849D01*
X167496152Y-105446955D01*
X167474818Y-105390699D01*
X167474816Y-105390697D01*
X167474816Y-105390695D01*
X167469062Y-105382360D01*
X167458033Y-105362806D01*
X167453878Y-105353573D01*
X167416780Y-105306220D01*
X167412352Y-105300202D01*
X167378184Y-105250701D01*
X167378183Y-105250700D01*
X167333153Y-105210807D01*
X167327715Y-105205687D01*
X167122028Y-105000000D01*
X169794340Y-105000000D01*
X169814936Y-105235407D01*
X169856547Y-105390699D01*
X169876097Y-105463663D01*
X169975965Y-105677830D01*
X170111505Y-105871401D01*
X170278599Y-106038495D01*
X170472170Y-106174035D01*
X170686337Y-106273903D01*
X170914592Y-106335063D01*
X171150000Y-106355659D01*
X171385408Y-106335063D01*
X171613663Y-106273903D01*
X171827830Y-106174035D01*
X172021401Y-106038495D01*
X172188495Y-105871401D01*
X172324035Y-105677830D01*
X172423903Y-105463663D01*
X172485063Y-105235408D01*
X172505659Y-105000000D01*
X172485063Y-104764592D01*
X172423903Y-104536337D01*
X172324035Y-104322171D01*
X172188495Y-104128599D01*
X172021401Y-103961505D01*
X171827830Y-103825965D01*
X171613663Y-103726097D01*
X171552502Y-103709709D01*
X171385407Y-103664936D01*
X171150000Y-103644340D01*
X170914592Y-103664936D01*
X170686336Y-103726097D01*
X170472170Y-103825965D01*
X170278598Y-103961505D01*
X170111505Y-104128598D01*
X169975965Y-104322170D01*
X169876097Y-104536336D01*
X169814936Y-104764592D01*
X169794340Y-105000000D01*
X167122028Y-105000000D01*
X165222027Y-103099999D01*
X175144540Y-103099999D01*
X175164326Y-103288257D01*
X175222821Y-103468284D01*
X175232887Y-103485718D01*
X175249500Y-103547718D01*
X175249500Y-106290196D01*
X175258017Y-106327518D01*
X175260345Y-106341219D01*
X175264631Y-106379252D01*
X175277272Y-106415380D01*
X175281119Y-106428736D01*
X175289638Y-106466058D01*
X175306250Y-106500553D01*
X175311570Y-106513398D01*
X175324209Y-106549520D01*
X175334770Y-106566327D01*
X175344576Y-106581933D01*
X175351298Y-106594095D01*
X175367908Y-106628586D01*
X175391772Y-106658510D01*
X175399818Y-106669850D01*
X175420184Y-106702262D01*
X177713181Y-108995259D01*
X177740061Y-109035487D01*
X177749500Y-109082940D01*
X177749500Y-110852282D01*
X177732887Y-110914282D01*
X177722821Y-110931715D01*
X177664326Y-111111742D01*
X177644540Y-111300000D01*
X177664326Y-111488257D01*
X177722820Y-111668284D01*
X177817466Y-111832216D01*
X177944129Y-111972889D01*
X178097269Y-112084151D01*
X178270197Y-112161144D01*
X178455352Y-112200500D01*
X178455354Y-112200500D01*
X178644646Y-112200500D01*
X178644648Y-112200500D01*
X178778404Y-112172069D01*
X178829803Y-112161144D01*
X179002730Y-112084151D01*
X179089094Y-112021404D01*
X179155870Y-111972889D01*
X179282533Y-111832216D01*
X179377179Y-111668284D01*
X179384959Y-111644340D01*
X179435674Y-111488256D01*
X179455460Y-111300000D01*
X179435674Y-111111744D01*
X179377179Y-110931716D01*
X179367112Y-110914280D01*
X179350500Y-110852282D01*
X179350500Y-109999949D01*
X182855312Y-109999949D01*
X182867661Y-110066009D01*
X182944652Y-110264747D01*
X183056844Y-110445945D01*
X183200431Y-110603451D01*
X183370510Y-110731890D01*
X183561290Y-110826886D01*
X183766279Y-110885211D01*
X183925328Y-110899949D01*
X184178499Y-110899949D01*
X184178499Y-109999949D01*
X182855312Y-109999949D01*
X179350500Y-109999949D01*
X179350500Y-109545503D01*
X181141437Y-109545503D01*
X181141438Y-109545504D01*
X181243647Y-109608789D01*
X181442385Y-109685780D01*
X181651885Y-109724943D01*
X181865007Y-109724943D01*
X182074506Y-109685780D01*
X182273241Y-109608790D01*
X182375453Y-109545503D01*
X181758447Y-108928496D01*
X181758446Y-108928496D01*
X181141437Y-109545503D01*
X179350500Y-109545503D01*
X179350500Y-109454272D01*
X179365527Y-109395104D01*
X179406965Y-109350277D01*
X179464771Y-109330654D01*
X179524935Y-109340991D01*
X179570197Y-109361144D01*
X179570200Y-109361144D01*
X179570201Y-109361145D01*
X179755352Y-109400500D01*
X179755354Y-109400500D01*
X179944646Y-109400500D01*
X179944648Y-109400500D01*
X180119297Y-109363377D01*
X180129803Y-109361144D01*
X180302730Y-109284151D01*
X180455871Y-109172888D01*
X180537185Y-109082579D01*
X180586681Y-109049121D01*
X180646083Y-109042692D01*
X180701597Y-109064790D01*
X180740331Y-109110283D01*
X180776507Y-109182935D01*
X180785280Y-109194552D01*
X180785281Y-109194552D01*
X181404892Y-108574944D01*
X182111999Y-108574944D01*
X182731608Y-109194552D01*
X182771976Y-109191751D01*
X182832606Y-109202903D01*
X182880372Y-109241874D01*
X182903470Y-109299030D01*
X182896189Y-109360245D01*
X182867662Y-109433883D01*
X182855312Y-109499949D01*
X184178499Y-109499949D01*
X184178499Y-108599949D01*
X183925328Y-108599949D01*
X183766279Y-108614686D01*
X183561290Y-108673011D01*
X183370510Y-108768007D01*
X183200428Y-108896449D01*
X183064521Y-109045530D01*
X183009016Y-109080610D01*
X182943380Y-109082430D01*
X182886017Y-109050478D01*
X182853012Y-108993715D01*
X182853619Y-108928056D01*
X182893708Y-108787160D01*
X182913372Y-108574942D01*
X182893708Y-108362723D01*
X182835383Y-108157734D01*
X182740387Y-107966954D01*
X182731609Y-107955331D01*
X182111999Y-108574943D01*
X182111999Y-108574944D01*
X181404892Y-108574944D01*
X181404892Y-108574943D01*
X180785280Y-107955331D01*
X180783089Y-107955484D01*
X180717527Y-107941919D01*
X180668574Y-107896247D01*
X180650500Y-107831782D01*
X180650500Y-107604381D01*
X181141437Y-107604381D01*
X181758446Y-108221389D01*
X181758447Y-108221389D01*
X182375453Y-107604381D01*
X182375452Y-107604380D01*
X182273244Y-107541096D01*
X182074506Y-107464105D01*
X181865007Y-107424943D01*
X181651885Y-107424943D01*
X181442385Y-107464105D01*
X181243649Y-107541096D01*
X181141437Y-107604381D01*
X180650500Y-107604381D01*
X180650500Y-104695617D01*
X181141437Y-104695617D01*
X181141438Y-104695618D01*
X181243647Y-104758903D01*
X181442385Y-104835894D01*
X181651885Y-104875057D01*
X181865007Y-104875057D01*
X182074506Y-104835894D01*
X182273241Y-104758904D01*
X182375453Y-104695617D01*
X181758447Y-104078610D01*
X181758446Y-104078610D01*
X181141437Y-104695617D01*
X180650500Y-104695617D01*
X180650500Y-104468217D01*
X180668574Y-104403753D01*
X180717526Y-104358081D01*
X180783087Y-104344515D01*
X180785280Y-104344667D01*
X181404892Y-103725058D01*
X182111999Y-103725058D01*
X182731609Y-104344667D01*
X182740386Y-104333045D01*
X182835383Y-104142265D01*
X182893708Y-103937276D01*
X182913372Y-103725057D01*
X182893708Y-103512839D01*
X182853619Y-103371943D01*
X182853012Y-103306284D01*
X182886017Y-103249521D01*
X182943380Y-103217569D01*
X183009017Y-103219389D01*
X183064522Y-103254469D01*
X183200431Y-103403553D01*
X183370510Y-103531992D01*
X183561290Y-103626988D01*
X183766279Y-103685313D01*
X183925328Y-103700051D01*
X184178499Y-103700051D01*
X184178499Y-102800051D01*
X182855312Y-102800051D01*
X182867661Y-102866113D01*
X182896189Y-102939752D01*
X182903470Y-103000967D01*
X182880372Y-103058124D01*
X182832606Y-103097095D01*
X182771976Y-103108247D01*
X182731609Y-103105445D01*
X182111999Y-103725057D01*
X182111999Y-103725058D01*
X181404892Y-103725058D01*
X181404892Y-103725057D01*
X180785280Y-103105445D01*
X180783089Y-103105598D01*
X180717527Y-103092033D01*
X180668574Y-103046361D01*
X180650500Y-102981896D01*
X180650500Y-102782940D01*
X180656158Y-102754495D01*
X181141437Y-102754495D01*
X181758446Y-103371503D01*
X181758447Y-103371503D01*
X182375453Y-102754495D01*
X182375452Y-102754494D01*
X182273244Y-102691210D01*
X182074506Y-102614219D01*
X181865007Y-102575057D01*
X181651885Y-102575057D01*
X181442385Y-102614219D01*
X181243649Y-102691210D01*
X181141437Y-102754495D01*
X180656158Y-102754495D01*
X180659939Y-102735487D01*
X180686816Y-102695261D01*
X180997568Y-102384508D01*
X181034804Y-102358917D01*
X181167018Y-102300051D01*
X182855312Y-102300051D01*
X184178499Y-102300051D01*
X184178499Y-101400051D01*
X183925328Y-101400051D01*
X183766279Y-101414788D01*
X183561290Y-101473113D01*
X183370510Y-101568109D01*
X183200431Y-101696548D01*
X183056844Y-101854054D01*
X182944652Y-102035252D01*
X182867661Y-102233990D01*
X182855312Y-102300051D01*
X181167018Y-102300051D01*
X181202730Y-102284151D01*
X181202730Y-102284150D01*
X181202732Y-102284150D01*
X181355870Y-102172889D01*
X181368894Y-102158425D01*
X181482533Y-102032216D01*
X181577179Y-101868284D01*
X181635674Y-101688256D01*
X181655460Y-101500000D01*
X181635674Y-101311744D01*
X181598488Y-101197297D01*
X181577179Y-101131715D01*
X181482533Y-100967783D01*
X181355870Y-100827110D01*
X181202730Y-100715848D01*
X181029802Y-100638855D01*
X180844648Y-100599500D01*
X180844646Y-100599500D01*
X180655354Y-100599500D01*
X180655352Y-100599500D01*
X180470197Y-100638855D01*
X180297269Y-100715848D01*
X180144129Y-100827110D01*
X180017465Y-100967785D01*
X179922821Y-101131715D01*
X179901511Y-101197297D01*
X179871262Y-101246658D01*
X179289152Y-101828767D01*
X179289150Y-101828771D01*
X179220185Y-101897735D01*
X179199817Y-101930151D01*
X179191772Y-101941489D01*
X179167908Y-101971413D01*
X179151300Y-102005899D01*
X179144576Y-102018064D01*
X179124211Y-102050475D01*
X179111565Y-102086613D01*
X179106246Y-102099453D01*
X179089639Y-102133938D01*
X179081118Y-102171268D01*
X179077270Y-102184623D01*
X179064631Y-102220743D01*
X179060345Y-102258780D01*
X179058017Y-102272480D01*
X179049500Y-102309803D01*
X179049500Y-107768060D01*
X179035985Y-107824355D01*
X178998385Y-107868378D01*
X178944898Y-107890533D01*
X178887182Y-107885991D01*
X178837819Y-107855741D01*
X176886819Y-105904741D01*
X176859939Y-105864513D01*
X176850500Y-105817060D01*
X176850500Y-103547718D01*
X176867113Y-103485718D01*
X176877179Y-103468284D01*
X176935674Y-103288256D01*
X176955460Y-103100000D01*
X176935674Y-102911744D01*
X176893823Y-102782940D01*
X176877179Y-102731715D01*
X176782533Y-102567783D01*
X176655870Y-102427110D01*
X176502730Y-102315848D01*
X176329802Y-102238855D01*
X176144648Y-102199500D01*
X176144646Y-102199500D01*
X175955354Y-102199500D01*
X175955352Y-102199500D01*
X175770197Y-102238855D01*
X175597269Y-102315848D01*
X175444129Y-102427110D01*
X175317466Y-102567783D01*
X175222820Y-102731715D01*
X175164326Y-102911742D01*
X175144540Y-103099999D01*
X165222027Y-103099999D01*
X160094311Y-97972283D01*
X160089193Y-97966847D01*
X160049300Y-97921817D01*
X159999803Y-97887651D01*
X159993776Y-97883216D01*
X159946425Y-97846120D01*
X159937184Y-97841961D01*
X159917644Y-97830941D01*
X159909301Y-97825182D01*
X159909298Y-97825181D01*
X159909297Y-97825180D01*
X159853072Y-97803856D01*
X159846154Y-97800991D01*
X159791300Y-97776303D01*
X159781323Y-97774475D01*
X159759710Y-97768450D01*
X159750244Y-97764860D01*
X159690543Y-97757610D01*
X159683142Y-97756483D01*
X159623978Y-97745641D01*
X159563937Y-97749274D01*
X159556450Y-97749500D01*
X143812711Y-97749500D01*
X143755454Y-97735489D01*
X143711136Y-97696623D01*
X143695227Y-97673902D01*
X143628495Y-97578599D01*
X143461401Y-97411505D01*
X143275839Y-97281573D01*
X143236974Y-97237255D01*
X143222964Y-97179999D01*
X143236975Y-97122742D01*
X143275837Y-97078428D01*
X143461401Y-96948495D01*
X143628495Y-96781401D01*
X143764035Y-96587830D01*
X143863903Y-96373663D01*
X143925063Y-96145408D01*
X143945659Y-95910000D01*
X143944011Y-95891169D01*
X143936035Y-95799999D01*
X147094340Y-95799999D01*
X147114936Y-96035407D01*
X147155303Y-96186059D01*
X147176097Y-96263663D01*
X147275965Y-96477830D01*
X147411505Y-96671401D01*
X147578599Y-96838495D01*
X147772170Y-96974035D01*
X147986337Y-97073903D01*
X148214592Y-97135063D01*
X148450000Y-97155659D01*
X148685408Y-97135063D01*
X148913663Y-97073903D01*
X149127830Y-96974035D01*
X149321401Y-96838495D01*
X149488495Y-96671401D01*
X149624035Y-96477830D01*
X149660328Y-96399999D01*
X174944340Y-96399999D01*
X174964936Y-96635407D01*
X174993598Y-96742374D01*
X175026097Y-96863663D01*
X175125965Y-97077830D01*
X175261505Y-97271401D01*
X175428599Y-97438495D01*
X175622170Y-97574035D01*
X175836337Y-97673903D01*
X176064592Y-97735063D01*
X176300000Y-97755659D01*
X176535408Y-97735063D01*
X176763663Y-97673903D01*
X176977830Y-97574035D01*
X177171401Y-97438495D01*
X177338495Y-97271401D01*
X177474035Y-97077830D01*
X177573903Y-96863663D01*
X177635063Y-96635408D01*
X177655659Y-96400000D01*
X177653193Y-96371819D01*
X177635063Y-96164592D01*
X177613308Y-96083401D01*
X177573903Y-95936337D01*
X177474035Y-95722171D01*
X177338495Y-95528599D01*
X177171401Y-95361505D01*
X176977830Y-95225965D01*
X176763663Y-95126097D01*
X176702502Y-95109709D01*
X176535407Y-95064936D01*
X176300000Y-95044340D01*
X176064592Y-95064936D01*
X175836336Y-95126097D01*
X175622170Y-95225965D01*
X175428598Y-95361505D01*
X175261505Y-95528598D01*
X175125965Y-95722170D01*
X175026097Y-95936336D01*
X174964936Y-96164592D01*
X174944340Y-96399999D01*
X149660328Y-96399999D01*
X149723903Y-96263663D01*
X149785063Y-96035408D01*
X149805659Y-95800000D01*
X149800710Y-95743439D01*
X149785063Y-95564592D01*
X149775419Y-95528599D01*
X149723903Y-95336337D01*
X149624035Y-95122171D01*
X149488495Y-94928599D01*
X149321401Y-94761505D01*
X149127830Y-94625965D01*
X148913663Y-94526097D01*
X148852502Y-94509709D01*
X148685407Y-94464936D01*
X148450000Y-94444340D01*
X148214592Y-94464936D01*
X147986336Y-94526097D01*
X147772170Y-94625965D01*
X147578598Y-94761505D01*
X147411505Y-94928598D01*
X147275965Y-95122170D01*
X147176097Y-95336336D01*
X147114936Y-95564592D01*
X147094340Y-95799999D01*
X143936035Y-95799999D01*
X143925063Y-95674592D01*
X143923845Y-95670047D01*
X143863903Y-95446337D01*
X143764035Y-95232171D01*
X143628495Y-95038599D01*
X143461401Y-94871505D01*
X143275839Y-94741573D01*
X143236974Y-94697255D01*
X143222964Y-94639999D01*
X143236975Y-94582742D01*
X143275837Y-94538428D01*
X143461401Y-94408495D01*
X143628495Y-94241401D01*
X143764035Y-94047830D01*
X143863903Y-93833663D01*
X143925063Y-93605408D01*
X143945659Y-93370000D01*
X143925063Y-93134592D01*
X143863903Y-92906337D01*
X143764035Y-92692171D01*
X143628495Y-92498599D01*
X143461401Y-92331505D01*
X143275839Y-92201573D01*
X143236975Y-92157257D01*
X143222964Y-92100000D01*
X143236975Y-92042743D01*
X143275839Y-91998426D01*
X143461401Y-91868495D01*
X143628495Y-91701401D01*
X143764035Y-91507830D01*
X143863903Y-91293663D01*
X143925063Y-91065408D01*
X143945659Y-90830000D01*
X143925063Y-90594592D01*
X143863903Y-90366337D01*
X143764035Y-90152171D01*
X143628495Y-89958599D01*
X143461401Y-89791505D01*
X143275839Y-89661573D01*
X143236975Y-89617257D01*
X143222964Y-89560000D01*
X143236975Y-89502743D01*
X143275839Y-89458426D01*
X143461401Y-89328495D01*
X143628495Y-89161401D01*
X143764035Y-88967830D01*
X143863903Y-88753663D01*
X143925063Y-88525408D01*
X143945659Y-88290000D01*
X143929857Y-88109392D01*
X143925063Y-88054592D01*
X143919067Y-88032216D01*
X143863903Y-87826337D01*
X143851621Y-87799999D01*
X144444340Y-87799999D01*
X144464936Y-88035407D01*
X144501774Y-88172887D01*
X144526097Y-88263663D01*
X144625965Y-88477830D01*
X144761505Y-88671401D01*
X144928599Y-88838495D01*
X145122170Y-88974035D01*
X145336337Y-89073903D01*
X145564592Y-89135063D01*
X145800000Y-89155659D01*
X146035408Y-89135063D01*
X146263663Y-89073903D01*
X146477830Y-88974035D01*
X146671401Y-88838495D01*
X146838495Y-88671401D01*
X146974035Y-88477830D01*
X147073903Y-88263663D01*
X147135063Y-88035408D01*
X147155659Y-87800000D01*
X147135063Y-87564592D01*
X147073903Y-87336337D01*
X146974035Y-87122171D01*
X146838495Y-86928599D01*
X146671401Y-86761505D01*
X146477830Y-86625965D01*
X146263663Y-86526097D01*
X146202502Y-86509709D01*
X146035407Y-86464936D01*
X145800000Y-86444340D01*
X145564592Y-86464936D01*
X145336336Y-86526097D01*
X145122170Y-86625965D01*
X144928598Y-86761505D01*
X144761505Y-86928598D01*
X144625965Y-87122170D01*
X144526097Y-87336336D01*
X144464936Y-87564592D01*
X144444340Y-87799999D01*
X143851621Y-87799999D01*
X143764035Y-87612171D01*
X143628495Y-87418599D01*
X143461401Y-87251505D01*
X143275839Y-87121573D01*
X143236976Y-87077257D01*
X143222965Y-87020000D01*
X143236976Y-86962743D01*
X143275839Y-86918426D01*
X143461401Y-86788495D01*
X143628495Y-86621401D01*
X143764035Y-86427830D01*
X143863903Y-86213663D01*
X143925063Y-85985408D01*
X143945659Y-85750000D01*
X143925063Y-85514592D01*
X143863903Y-85286337D01*
X143764035Y-85072171D01*
X143628495Y-84878599D01*
X143461401Y-84711505D01*
X143275839Y-84581573D01*
X143236975Y-84537257D01*
X143222964Y-84480000D01*
X143236975Y-84422743D01*
X143275839Y-84378426D01*
X143461401Y-84248495D01*
X143628495Y-84081401D01*
X143764035Y-83887830D01*
X143863903Y-83673663D01*
X143925063Y-83445408D01*
X143945659Y-83210000D01*
X143939629Y-83141084D01*
X143925063Y-82974592D01*
X143896578Y-82868284D01*
X143863903Y-82746337D01*
X143764035Y-82532171D01*
X143741508Y-82499999D01*
X159094540Y-82499999D01*
X159114326Y-82688257D01*
X159172820Y-82868284D01*
X159267466Y-83032216D01*
X159394129Y-83172889D01*
X159547269Y-83284151D01*
X159720197Y-83361144D01*
X159905352Y-83400500D01*
X159905354Y-83400500D01*
X160094646Y-83400500D01*
X160094648Y-83400500D01*
X160218083Y-83374262D01*
X160279803Y-83361144D01*
X160391930Y-83311221D01*
X160442367Y-83300500D01*
X160617060Y-83300500D01*
X160664513Y-83309939D01*
X160704741Y-83336819D01*
X161621262Y-84253340D01*
X161651512Y-84302703D01*
X161672820Y-84368284D01*
X161767466Y-84532216D01*
X161894129Y-84672889D01*
X162047269Y-84784151D01*
X162220197Y-84861144D01*
X162405352Y-84900500D01*
X162405354Y-84900500D01*
X162594646Y-84900500D01*
X162594648Y-84900500D01*
X162718083Y-84874262D01*
X162779803Y-84861144D01*
X162952730Y-84784151D01*
X163105871Y-84672888D01*
X163232533Y-84532216D01*
X163327179Y-84368284D01*
X163385674Y-84188256D01*
X163405460Y-84000000D01*
X163385674Y-83811744D01*
X163355332Y-83718363D01*
X163327179Y-83631715D01*
X163232533Y-83467783D01*
X163105870Y-83327110D01*
X162952730Y-83215848D01*
X162784809Y-83141084D01*
X162747564Y-83115486D01*
X161502262Y-81870184D01*
X161469850Y-81849818D01*
X161458510Y-81841772D01*
X161428586Y-81817908D01*
X161394095Y-81801298D01*
X161381933Y-81794576D01*
X161366327Y-81784770D01*
X161349520Y-81774209D01*
X161313398Y-81761570D01*
X161300553Y-81756250D01*
X161266058Y-81739638D01*
X161228736Y-81731119D01*
X161215380Y-81727272D01*
X161179252Y-81714631D01*
X161141219Y-81710345D01*
X161127518Y-81708017D01*
X161090196Y-81699500D01*
X161090194Y-81699500D01*
X161044954Y-81699500D01*
X160442367Y-81699500D01*
X160391931Y-81688779D01*
X160279802Y-81638855D01*
X160094648Y-81599500D01*
X160094646Y-81599500D01*
X159905354Y-81599500D01*
X159905352Y-81599500D01*
X159720197Y-81638855D01*
X159547269Y-81715848D01*
X159394129Y-81827110D01*
X159267466Y-81967783D01*
X159172820Y-82131715D01*
X159114326Y-82311742D01*
X159094540Y-82499999D01*
X143741508Y-82499999D01*
X143628495Y-82338599D01*
X143461401Y-82171505D01*
X143275839Y-82041573D01*
X143236975Y-81997257D01*
X143222964Y-81940000D01*
X143236975Y-81882743D01*
X143275839Y-81838426D01*
X143461401Y-81708495D01*
X143628495Y-81541401D01*
X143764035Y-81347830D01*
X143863903Y-81133663D01*
X143925063Y-80905408D01*
X143945659Y-80670000D01*
X143925063Y-80434592D01*
X143863903Y-80206337D01*
X143764035Y-79992171D01*
X143628495Y-79798599D01*
X143461401Y-79631505D01*
X143275839Y-79501573D01*
X143236975Y-79457257D01*
X143222964Y-79400000D01*
X143236975Y-79342743D01*
X143275839Y-79298426D01*
X143461401Y-79168495D01*
X143628495Y-79001401D01*
X143711136Y-78883376D01*
X143755454Y-78844511D01*
X143812711Y-78830500D01*
X150345079Y-78830500D01*
X150352566Y-78830726D01*
X150355706Y-78830915D01*
X150412606Y-78834358D01*
X150471782Y-78823513D01*
X150479181Y-78822387D01*
X150538872Y-78815140D01*
X150548335Y-78811550D01*
X150569958Y-78805522D01*
X150579932Y-78803695D01*
X150634808Y-78778996D01*
X150641673Y-78776152D01*
X150697930Y-78754818D01*
X150706270Y-78749060D01*
X150725819Y-78738035D01*
X150735057Y-78733878D01*
X150782413Y-78696775D01*
X150788420Y-78692355D01*
X150837929Y-78658183D01*
X150877823Y-78613150D01*
X150882924Y-78607731D01*
X151790655Y-77700000D01*
X168694340Y-77700000D01*
X168714936Y-77935407D01*
X168737009Y-78017783D01*
X168776097Y-78163663D01*
X168875965Y-78377830D01*
X169011505Y-78571401D01*
X169178599Y-78738495D01*
X169372170Y-78874035D01*
X169586337Y-78973903D01*
X169814592Y-79035063D01*
X170050000Y-79055659D01*
X170285408Y-79035063D01*
X170513663Y-78973903D01*
X170727830Y-78874035D01*
X170921401Y-78738495D01*
X171088495Y-78571401D01*
X171103480Y-78550000D01*
X175094540Y-78550000D01*
X175114326Y-78738257D01*
X175172820Y-78918284D01*
X175263399Y-79075172D01*
X175273050Y-79096208D01*
X175274208Y-79099517D01*
X175294572Y-79131926D01*
X175301297Y-79144095D01*
X175317907Y-79178584D01*
X175341772Y-79208510D01*
X175349818Y-79219850D01*
X175370184Y-79252262D01*
X178871262Y-82753340D01*
X178901512Y-82802703D01*
X178922820Y-82868284D01*
X179017466Y-83032216D01*
X179144129Y-83172889D01*
X179297269Y-83284151D01*
X179470197Y-83361144D01*
X179655352Y-83400500D01*
X179655354Y-83400500D01*
X179844646Y-83400500D01*
X179844648Y-83400500D01*
X179968083Y-83374262D01*
X180029803Y-83361144D01*
X180202730Y-83284151D01*
X180296740Y-83215849D01*
X180355870Y-83172889D01*
X180384508Y-83141084D01*
X180482533Y-83032216D01*
X180577179Y-82868284D01*
X180635674Y-82688256D01*
X180655460Y-82500000D01*
X180635674Y-82311744D01*
X180589252Y-82168872D01*
X180577179Y-82131715D01*
X180482533Y-81967783D01*
X180355870Y-81827110D01*
X180202730Y-81715848D01*
X180034809Y-81641084D01*
X179997564Y-81615486D01*
X176933383Y-78551305D01*
X176909143Y-78517007D01*
X176897743Y-78476584D01*
X176885674Y-78361742D01*
X176827179Y-78181715D01*
X176732533Y-78017783D01*
X176605870Y-77877110D01*
X176452730Y-77765848D01*
X176279802Y-77688855D01*
X176094648Y-77649500D01*
X176094646Y-77649500D01*
X175905354Y-77649500D01*
X175905352Y-77649500D01*
X175720197Y-77688855D01*
X175547269Y-77765848D01*
X175394129Y-77877110D01*
X175267466Y-78017783D01*
X175172820Y-78181715D01*
X175114326Y-78361742D01*
X175094540Y-78550000D01*
X171103480Y-78550000D01*
X171224035Y-78377830D01*
X171323903Y-78163663D01*
X171385063Y-77935408D01*
X171405659Y-77700000D01*
X171385063Y-77464592D01*
X171323903Y-77236337D01*
X171224035Y-77022171D01*
X171088495Y-76828599D01*
X170921401Y-76661505D01*
X170727830Y-76525965D01*
X170513663Y-76426097D01*
X170452502Y-76409709D01*
X170285407Y-76364936D01*
X170050000Y-76344340D01*
X169814592Y-76364936D01*
X169586336Y-76426097D01*
X169372170Y-76525965D01*
X169178598Y-76661505D01*
X169011505Y-76828598D01*
X168875965Y-77022170D01*
X168776097Y-77236336D01*
X168714936Y-77464592D01*
X168694340Y-77700000D01*
X151790655Y-77700000D01*
X153477731Y-76012924D01*
X153483150Y-76007823D01*
X153528183Y-75967929D01*
X153562377Y-75918389D01*
X153566770Y-75912419D01*
X153603878Y-75865056D01*
X153608035Y-75855818D01*
X153619061Y-75836268D01*
X153624818Y-75827930D01*
X153646152Y-75771674D01*
X153648994Y-75764811D01*
X153673695Y-75709931D01*
X153675522Y-75699956D01*
X153681549Y-75678339D01*
X153685140Y-75668872D01*
X153692387Y-75609179D01*
X153693514Y-75601777D01*
X153695672Y-75590000D01*
X153704358Y-75542606D01*
X153700726Y-75482566D01*
X153700500Y-75475079D01*
X153700500Y-70024921D01*
X153700726Y-70017434D01*
X153702542Y-69987409D01*
X153704358Y-69957394D01*
X153693507Y-69898185D01*
X153692390Y-69890840D01*
X153685140Y-69831128D01*
X153681546Y-69821651D01*
X153675521Y-69800034D01*
X153673697Y-69790081D01*
X153673695Y-69790068D01*
X153650218Y-69737905D01*
X153649009Y-69735218D01*
X153646151Y-69728322D01*
X153624818Y-69672070D01*
X153619061Y-69663730D01*
X153608035Y-69644181D01*
X153605638Y-69638855D01*
X153603878Y-69634943D01*
X153603877Y-69634942D01*
X153603877Y-69634941D01*
X153566785Y-69587597D01*
X153562355Y-69581577D01*
X153528183Y-69532071D01*
X153491982Y-69500000D01*
X180644340Y-69500000D01*
X180664936Y-69735407D01*
X180699280Y-69863579D01*
X180726097Y-69963663D01*
X180825965Y-70177830D01*
X180961505Y-70371401D01*
X181128599Y-70538495D01*
X181322170Y-70674035D01*
X181536337Y-70773903D01*
X181764592Y-70835063D01*
X182000000Y-70855659D01*
X182235408Y-70835063D01*
X182463663Y-70773903D01*
X182677830Y-70674035D01*
X182871401Y-70538495D01*
X183038495Y-70371401D01*
X183174035Y-70177830D01*
X183273903Y-69963663D01*
X183335063Y-69735408D01*
X183355659Y-69500000D01*
X183335063Y-69264592D01*
X183273903Y-69036337D01*
X183174035Y-68822171D01*
X183038495Y-68628599D01*
X182871401Y-68461505D01*
X182677830Y-68325965D01*
X182463663Y-68226097D01*
X182402348Y-68209668D01*
X182235407Y-68164936D01*
X181999999Y-68144340D01*
X181764592Y-68164936D01*
X181536336Y-68226097D01*
X181322170Y-68325965D01*
X181128598Y-68461505D01*
X180961505Y-68628598D01*
X180825965Y-68822170D01*
X180726097Y-69036336D01*
X180664936Y-69264592D01*
X180644340Y-69500000D01*
X153491982Y-69500000D01*
X153483153Y-69492178D01*
X153477715Y-69487058D01*
X148090656Y-64099999D01*
X157844340Y-64099999D01*
X157864936Y-64335407D01*
X157909709Y-64502502D01*
X157926097Y-64563663D01*
X158025965Y-64777830D01*
X158161505Y-64971401D01*
X158328599Y-65138495D01*
X158522170Y-65274035D01*
X158736337Y-65373903D01*
X158964592Y-65435063D01*
X159200000Y-65455659D01*
X159435408Y-65435063D01*
X159663663Y-65373903D01*
X159877830Y-65274035D01*
X160071401Y-65138495D01*
X160238495Y-64971401D01*
X160374035Y-64777830D01*
X160473903Y-64563663D01*
X160535063Y-64335408D01*
X160555659Y-64100000D01*
X160546065Y-63990348D01*
X160535063Y-63864592D01*
X160505387Y-63753838D01*
X160473903Y-63636337D01*
X160374035Y-63422171D01*
X160238495Y-63228599D01*
X160071401Y-63061505D01*
X159877830Y-62925965D01*
X159663663Y-62826097D01*
X159602502Y-62809709D01*
X159435407Y-62764936D01*
X159200000Y-62744340D01*
X158964592Y-62764936D01*
X158736336Y-62826097D01*
X158522170Y-62925965D01*
X158328598Y-63061505D01*
X158161505Y-63228598D01*
X158025965Y-63422170D01*
X157926097Y-63636336D01*
X157864936Y-63864592D01*
X157844340Y-64099999D01*
X148090656Y-64099999D01*
X144512940Y-60522283D01*
X144507822Y-60516847D01*
X144467929Y-60471817D01*
X144418432Y-60437651D01*
X144412405Y-60433216D01*
X144365054Y-60396120D01*
X144355813Y-60391961D01*
X144336273Y-60380941D01*
X144327930Y-60375182D01*
X144327927Y-60375181D01*
X144327926Y-60375180D01*
X144271701Y-60353856D01*
X144264783Y-60350991D01*
X144209929Y-60326303D01*
X144199952Y-60324475D01*
X144178339Y-60318450D01*
X144168873Y-60314860D01*
X144109172Y-60307610D01*
X144101771Y-60306483D01*
X144042607Y-60295641D01*
X143982566Y-60299274D01*
X143975079Y-60299500D01*
X124024910Y-60299500D01*
X124017423Y-60299274D01*
X123957391Y-60295642D01*
X123898242Y-60306481D01*
X123890843Y-60307608D01*
X123831122Y-60314860D01*
X123821641Y-60318456D01*
X123800036Y-60324479D01*
X123790069Y-60326305D01*
X123735234Y-60350984D01*
X123728318Y-60353848D01*
X123672069Y-60375181D01*
X123663725Y-60380941D01*
X123644183Y-60391963D01*
X123634944Y-60396121D01*
X123587594Y-60433216D01*
X123581566Y-60437652D01*
X123532067Y-60471819D01*
X123492183Y-60516838D01*
X123487051Y-60522290D01*
X117522290Y-66487051D01*
X117516838Y-66492183D01*
X117471816Y-66532070D01*
X117437649Y-66581568D01*
X117433213Y-66587597D01*
X117396121Y-66634942D01*
X117391961Y-66644186D01*
X117380941Y-66663725D01*
X117375182Y-66672069D01*
X117353853Y-66728305D01*
X117350989Y-66735219D01*
X117326303Y-66790070D01*
X117324475Y-66800047D01*
X117318454Y-66821648D01*
X117314859Y-66831128D01*
X117307609Y-66890827D01*
X117306483Y-66898226D01*
X117295641Y-66957391D01*
X117299274Y-67017434D01*
X117299500Y-67024921D01*
X117299500Y-76884608D01*
X117291264Y-76929045D01*
X117267650Y-76967580D01*
X117267466Y-76967783D01*
X117172820Y-77131715D01*
X117114326Y-77311742D01*
X117094540Y-77500000D01*
X117114326Y-77688257D01*
X117172820Y-77868284D01*
X117198926Y-77913500D01*
X117215539Y-77975500D01*
X117198926Y-78037500D01*
X117153539Y-78082887D01*
X117091539Y-78099500D01*
X112858156Y-78099500D01*
X112819838Y-78093431D01*
X112785270Y-78075818D01*
X112702727Y-78015847D01*
X112529802Y-77938855D01*
X112344648Y-77899500D01*
X112344646Y-77899500D01*
X112155354Y-77899500D01*
X112155352Y-77899500D01*
X111970197Y-77938855D01*
X111797269Y-78015848D01*
X111644129Y-78127110D01*
X111517466Y-78267783D01*
X111422820Y-78431715D01*
X111364326Y-78611742D01*
X111344540Y-78799999D01*
X111364326Y-78988257D01*
X111422820Y-79168284D01*
X111517466Y-79332216D01*
X111644129Y-79472889D01*
X111797269Y-79584151D01*
X111970197Y-79661144D01*
X112155352Y-79700500D01*
X112155354Y-79700500D01*
X112344646Y-79700500D01*
X112344648Y-79700500D01*
X112521927Y-79662818D01*
X112529803Y-79661144D01*
X112702730Y-79584151D01*
X112785271Y-79524181D01*
X112819838Y-79506569D01*
X112858156Y-79500500D01*
X117044784Y-79500500D01*
X117101079Y-79514015D01*
X117145102Y-79551615D01*
X117167257Y-79605102D01*
X117162715Y-79662818D01*
X117114326Y-79811742D01*
X117094540Y-80000000D01*
X117114326Y-80188257D01*
X117141550Y-80272042D01*
X117144193Y-80339307D01*
X117111300Y-80398041D01*
X111937027Y-85572315D01*
X111908514Y-85593607D01*
X111875127Y-85605924D01*
X111720197Y-85638855D01*
X111547269Y-85715848D01*
X111394129Y-85827110D01*
X111267466Y-85967783D01*
X111172820Y-86131715D01*
X111114326Y-86311742D01*
X111094540Y-86500000D01*
X111114326Y-86688257D01*
X111172820Y-86868284D01*
X111267466Y-87032216D01*
X111394129Y-87172889D01*
X111547269Y-87284151D01*
X111720197Y-87361144D01*
X111905352Y-87400500D01*
X111905354Y-87400500D01*
X112094646Y-87400500D01*
X112094648Y-87400500D01*
X112218084Y-87374262D01*
X112279803Y-87361144D01*
X112452730Y-87284151D01*
X112452730Y-87284150D01*
X112605870Y-87172889D01*
X112642943Y-87131716D01*
X112732533Y-87032216D01*
X112827179Y-86868284D01*
X112885674Y-86688256D01*
X112890864Y-86638866D01*
X112902263Y-86598450D01*
X112926500Y-86564155D01*
X118477731Y-81012924D01*
X118483151Y-81007822D01*
X118528183Y-80967929D01*
X118562358Y-80918416D01*
X118566779Y-80912407D01*
X118603877Y-80865057D01*
X118608033Y-80855820D01*
X118619058Y-80836273D01*
X118624818Y-80827930D01*
X118646154Y-80771668D01*
X118649014Y-80764766D01*
X118673694Y-80709932D01*
X118675519Y-80699971D01*
X118681545Y-80678348D01*
X118685140Y-80668872D01*
X118692208Y-80610655D01*
X118702435Y-80574254D01*
X118723154Y-80542631D01*
X118732533Y-80532216D01*
X118827179Y-80368284D01*
X118882069Y-80199348D01*
X118915116Y-80147276D01*
X118969162Y-80117564D01*
X119030838Y-80117564D01*
X119084884Y-80147276D01*
X119117931Y-80199350D01*
X119172820Y-80368284D01*
X119267466Y-80532216D01*
X119267650Y-80532420D01*
X119291264Y-80570955D01*
X119299500Y-80615392D01*
X119299500Y-81658481D01*
X119290061Y-81705934D01*
X119263181Y-81746162D01*
X112437027Y-88572315D01*
X112408514Y-88593607D01*
X112375127Y-88605924D01*
X112220197Y-88638855D01*
X112047269Y-88715848D01*
X111894129Y-88827110D01*
X111767466Y-88967784D01*
X111681887Y-89116012D01*
X111636500Y-89161399D01*
X111574500Y-89178012D01*
X111512500Y-89161399D01*
X111467113Y-89116012D01*
X111450500Y-89054012D01*
X111450500Y-88924921D01*
X111450726Y-88917434D01*
X111450927Y-88914102D01*
X111454358Y-88857394D01*
X111443507Y-88798185D01*
X111442390Y-88790840D01*
X111435140Y-88731128D01*
X111431546Y-88721651D01*
X111425521Y-88700034D01*
X111423695Y-88690068D01*
X111399009Y-88635218D01*
X111396151Y-88628322D01*
X111374818Y-88572070D01*
X111369061Y-88563730D01*
X111358035Y-88544181D01*
X111357153Y-88542222D01*
X111353878Y-88534943D01*
X111353877Y-88534942D01*
X111353877Y-88534941D01*
X111316785Y-88487597D01*
X111312355Y-88481577D01*
X111278183Y-88432071D01*
X111233153Y-88392178D01*
X111227715Y-88387058D01*
X110276503Y-87435846D01*
X110252263Y-87401548D01*
X110240864Y-87361130D01*
X110235674Y-87311744D01*
X110185944Y-87158692D01*
X110177179Y-87131715D01*
X110082533Y-86967783D01*
X109955870Y-86827110D01*
X109802730Y-86715848D01*
X109629802Y-86638855D01*
X109444648Y-86599500D01*
X109444646Y-86599500D01*
X109255354Y-86599500D01*
X109255352Y-86599500D01*
X109070197Y-86638855D01*
X108897269Y-86715848D01*
X108744129Y-86827110D01*
X108617466Y-86967783D01*
X108522820Y-87131715D01*
X108464326Y-87311742D01*
X108444540Y-87500000D01*
X108464326Y-87688257D01*
X108522820Y-87868284D01*
X108617466Y-88032216D01*
X108744127Y-88172887D01*
X108884236Y-88274682D01*
X108921835Y-88318705D01*
X108935350Y-88375000D01*
X108921835Y-88431295D01*
X108884236Y-88475318D01*
X108744127Y-88577112D01*
X108617466Y-88717783D01*
X108522820Y-88881715D01*
X108464326Y-89061742D01*
X108444540Y-89250000D01*
X108464326Y-89438257D01*
X108522820Y-89618284D01*
X108617466Y-89782216D01*
X108744127Y-89922887D01*
X108884236Y-90024682D01*
X108921835Y-90068705D01*
X108935350Y-90125000D01*
X108921835Y-90181294D01*
X108884236Y-90225317D01*
X108814730Y-90275817D01*
X108780163Y-90293431D01*
X108741844Y-90299500D01*
X106524910Y-90299500D01*
X106517423Y-90299274D01*
X106457391Y-90295642D01*
X106398242Y-90306481D01*
X106390843Y-90307608D01*
X106331122Y-90314860D01*
X106321641Y-90318456D01*
X106300036Y-90324479D01*
X106290067Y-90326306D01*
X106235228Y-90350986D01*
X106228313Y-90353850D01*
X106172067Y-90375182D01*
X106163720Y-90380943D01*
X106144192Y-90391957D01*
X106134948Y-90396118D01*
X106087597Y-90433214D01*
X106081568Y-90437649D01*
X106032070Y-90471816D01*
X105992183Y-90516838D01*
X105987051Y-90522290D01*
X104022290Y-92487051D01*
X104016838Y-92492183D01*
X103971816Y-92532070D01*
X103937649Y-92581568D01*
X103933213Y-92587597D01*
X103896121Y-92634942D01*
X103891961Y-92644186D01*
X103880941Y-92663725D01*
X103875182Y-92672069D01*
X103853853Y-92728305D01*
X103850989Y-92735219D01*
X103826303Y-92790070D01*
X103824475Y-92800047D01*
X103818454Y-92821648D01*
X103814859Y-92831128D01*
X103807609Y-92890827D01*
X103806483Y-92898226D01*
X103795641Y-92957391D01*
X103799274Y-93017434D01*
X103799500Y-93024921D01*
X103799500Y-99125079D01*
X103799274Y-99132566D01*
X103795641Y-99192607D01*
X103806483Y-99251771D01*
X103807610Y-99259172D01*
X103814860Y-99318873D01*
X103818450Y-99328339D01*
X103824475Y-99349952D01*
X103826303Y-99359929D01*
X103850991Y-99414783D01*
X103853856Y-99421701D01*
X103875180Y-99477926D01*
X103875182Y-99477930D01*
X103880941Y-99486273D01*
X103891961Y-99505813D01*
X103896120Y-99515054D01*
X103933216Y-99562405D01*
X103937651Y-99568432D01*
X103971817Y-99617929D01*
X104016847Y-99657822D01*
X104022283Y-99662940D01*
X108423495Y-104064152D01*
X108447734Y-104098449D01*
X108459134Y-104138869D01*
X108464325Y-104188254D01*
X108522820Y-104368284D01*
X108617466Y-104532216D01*
X108617650Y-104532420D01*
X108641264Y-104570955D01*
X108649500Y-104615392D01*
X108649500Y-105808481D01*
X108640061Y-105855934D01*
X108613181Y-105896162D01*
X102522290Y-111987051D01*
X102516838Y-111992183D01*
X102471816Y-112032070D01*
X102437649Y-112081568D01*
X102433213Y-112087597D01*
X102396121Y-112134942D01*
X102391961Y-112144186D01*
X102380941Y-112163725D01*
X102375182Y-112172069D01*
X102353853Y-112228305D01*
X102350989Y-112235219D01*
X102326303Y-112290070D01*
X102324475Y-112300047D01*
X102318454Y-112321648D01*
X102314859Y-112331128D01*
X102307609Y-112390827D01*
X102306483Y-112398226D01*
X102295641Y-112457391D01*
X102299274Y-112517434D01*
X102299500Y-112524921D01*
X102299500Y-117475079D01*
X102299274Y-117482566D01*
X102295641Y-117542607D01*
X85850500Y-117542607D01*
X85850500Y-107999999D01*
X101994340Y-107999999D01*
X102014936Y-108235407D01*
X102052231Y-108374592D01*
X102076097Y-108463663D01*
X102175965Y-108677830D01*
X102311505Y-108871401D01*
X102478599Y-109038495D01*
X102672170Y-109174035D01*
X102886337Y-109273903D01*
X103114592Y-109335063D01*
X103350000Y-109355659D01*
X103585408Y-109335063D01*
X103813663Y-109273903D01*
X104027830Y-109174035D01*
X104221401Y-109038495D01*
X104388495Y-108871401D01*
X104524035Y-108677830D01*
X104623903Y-108463663D01*
X104685063Y-108235408D01*
X104705659Y-108000000D01*
X104702143Y-107959818D01*
X104685063Y-107764592D01*
X104656996Y-107659843D01*
X104623903Y-107536337D01*
X104524035Y-107322171D01*
X104388495Y-107128599D01*
X104221401Y-106961505D01*
X104027830Y-106825965D01*
X103813663Y-106726097D01*
X103752502Y-106709709D01*
X103585407Y-106664936D01*
X103350000Y-106644340D01*
X103114592Y-106664936D01*
X102886336Y-106726097D01*
X102672170Y-106825965D01*
X102478598Y-106961505D01*
X102311505Y-107128598D01*
X102175965Y-107322170D01*
X102076097Y-107536336D01*
X102014936Y-107764592D01*
X101994340Y-107999999D01*
X85850500Y-107999999D01*
X85850500Y-104500000D01*
X101994340Y-104500000D01*
X102014936Y-104735407D01*
X102032244Y-104800000D01*
X102076097Y-104963663D01*
X102175965Y-105177830D01*
X102311505Y-105371401D01*
X102478599Y-105538495D01*
X102672170Y-105674035D01*
X102886337Y-105773903D01*
X103114592Y-105835063D01*
X103350000Y-105855659D01*
X103585408Y-105835063D01*
X103813663Y-105773903D01*
X104027830Y-105674035D01*
X104221401Y-105538495D01*
X104388495Y-105371401D01*
X104524035Y-105177830D01*
X104623903Y-104963663D01*
X104685063Y-104735408D01*
X104705659Y-104500000D01*
X104685063Y-104264592D01*
X104623903Y-104036337D01*
X104524035Y-103822171D01*
X104388495Y-103628599D01*
X104221401Y-103461505D01*
X104027830Y-103325965D01*
X103813663Y-103226097D01*
X103752502Y-103209709D01*
X103585407Y-103164936D01*
X103350000Y-103144340D01*
X103114592Y-103164936D01*
X102886336Y-103226097D01*
X102672170Y-103325965D01*
X102478598Y-103461505D01*
X102311505Y-103628598D01*
X102175965Y-103822170D01*
X102076097Y-104036336D01*
X102014936Y-104264592D01*
X101994340Y-104500000D01*
X85850500Y-104500000D01*
X85850500Y-96162359D01*
X93701199Y-96162359D01*
X93731650Y-96186059D01*
X93935700Y-96296485D01*
X94155140Y-96371819D01*
X94383993Y-96410008D01*
X94616007Y-96410008D01*
X94844859Y-96371819D01*
X95064296Y-96296486D01*
X95268353Y-96186056D01*
X95298798Y-96162359D01*
X96241204Y-96162359D01*
X96271655Y-96186059D01*
X96475705Y-96296485D01*
X96695145Y-96371819D01*
X96923998Y-96410008D01*
X97156012Y-96410008D01*
X97384864Y-96371819D01*
X97604301Y-96296486D01*
X97808358Y-96186056D01*
X97838803Y-96162359D01*
X98781210Y-96162359D01*
X98811661Y-96186059D01*
X99015711Y-96296485D01*
X99235151Y-96371819D01*
X99464004Y-96410008D01*
X99696018Y-96410008D01*
X99924870Y-96371819D01*
X100144307Y-96296486D01*
X100348364Y-96186056D01*
X100378809Y-96162359D01*
X101321215Y-96162359D01*
X101351666Y-96186059D01*
X101555716Y-96296485D01*
X101775156Y-96371819D01*
X102004009Y-96410008D01*
X102236023Y-96410008D01*
X102464875Y-96371819D01*
X102684312Y-96296486D01*
X102888369Y-96186056D01*
X102918814Y-96162359D01*
X102120016Y-95363561D01*
X101321215Y-96162359D01*
X100378809Y-96162359D01*
X99580011Y-95363561D01*
X98781210Y-96162359D01*
X97838803Y-96162359D01*
X97040005Y-95363561D01*
X96241204Y-96162359D01*
X95298798Y-96162359D01*
X94500000Y-95363561D01*
X93701199Y-96162359D01*
X85850500Y-96162359D01*
X85850500Y-95010008D01*
X93095201Y-95010008D01*
X93114361Y-95241225D01*
X93171319Y-95466147D01*
X93264516Y-95678617D01*
X93348812Y-95807641D01*
X94146447Y-95010009D01*
X94853553Y-95010009D01*
X95651186Y-95807642D01*
X95666193Y-95784673D01*
X95710984Y-95743439D01*
X95770002Y-95728494D01*
X95829020Y-95743439D01*
X95873811Y-95784673D01*
X95888817Y-95807641D01*
X96686452Y-95010009D01*
X97393558Y-95010009D01*
X98191191Y-95807642D01*
X98206197Y-95784673D01*
X98250989Y-95743439D01*
X98310006Y-95728493D01*
X98369024Y-95743438D01*
X98413816Y-95784672D01*
X98428823Y-95807642D01*
X99226458Y-95010009D01*
X99226458Y-95010008D01*
X99933564Y-95010008D01*
X100731197Y-95807642D01*
X100746204Y-95784673D01*
X100790995Y-95743439D01*
X100850013Y-95728494D01*
X100909031Y-95743439D01*
X100953822Y-95784673D01*
X100968828Y-95807641D01*
X101766463Y-95010009D01*
X101766463Y-95010008D01*
X102473569Y-95010008D01*
X103271202Y-95807642D01*
X103355499Y-95678615D01*
X103448696Y-95466146D01*
X103505654Y-95241225D01*
X103524814Y-95010008D01*
X103505654Y-94778790D01*
X103448696Y-94553868D01*
X103355500Y-94341400D01*
X103271202Y-94212372D01*
X102473569Y-95010008D01*
X101766463Y-95010008D01*
X100968828Y-94212373D01*
X100953822Y-94235342D01*
X100909030Y-94276575D01*
X100850013Y-94291520D01*
X100790996Y-94276575D01*
X100746204Y-94235342D01*
X100731197Y-94212372D01*
X99933564Y-95010008D01*
X99226458Y-95010008D01*
X98428822Y-94212372D01*
X98413815Y-94235343D01*
X98369024Y-94276576D01*
X98310006Y-94291521D01*
X98250989Y-94276575D01*
X98206198Y-94235342D01*
X98191191Y-94212372D01*
X97393558Y-95010008D01*
X97393558Y-95010009D01*
X96686452Y-95010009D01*
X96686452Y-95010008D01*
X95888817Y-94212373D01*
X95873811Y-94235342D01*
X95829019Y-94276575D01*
X95770002Y-94291520D01*
X95710985Y-94276575D01*
X95666193Y-94235342D01*
X95651186Y-94212372D01*
X94853553Y-95010008D01*
X94853553Y-95010009D01*
X94146447Y-95010009D01*
X94146447Y-95010008D01*
X93348812Y-94212373D01*
X93264516Y-94341398D01*
X93171319Y-94553868D01*
X93114361Y-94778790D01*
X93095201Y-95010008D01*
X85850500Y-95010008D01*
X85850500Y-93857655D01*
X93701200Y-93857655D01*
X94500000Y-94656455D01*
X94500001Y-94656455D01*
X95298799Y-93857656D01*
X95298799Y-93857655D01*
X96241205Y-93857655D01*
X97040005Y-94656455D01*
X97040006Y-94656455D01*
X97838804Y-93857656D01*
X97838804Y-93857655D01*
X98781211Y-93857655D01*
X99580011Y-94656455D01*
X99580012Y-94656455D01*
X100378810Y-93857656D01*
X100378810Y-93857655D01*
X101321216Y-93857655D01*
X102120016Y-94656455D01*
X102120017Y-94656455D01*
X102918815Y-93857656D01*
X102918815Y-93857655D01*
X102888365Y-93833956D01*
X102684315Y-93723530D01*
X102464875Y-93648196D01*
X102236023Y-93610008D01*
X102004009Y-93610008D01*
X101775156Y-93648196D01*
X101555719Y-93723529D01*
X101351661Y-93833960D01*
X101321216Y-93857654D01*
X101321216Y-93857655D01*
X100378810Y-93857655D01*
X100348360Y-93833956D01*
X100144310Y-93723530D01*
X99924870Y-93648196D01*
X99696018Y-93610008D01*
X99464004Y-93610008D01*
X99235151Y-93648196D01*
X99015714Y-93723529D01*
X98811656Y-93833960D01*
X98781211Y-93857654D01*
X98781211Y-93857655D01*
X97838804Y-93857655D01*
X97808354Y-93833956D01*
X97604304Y-93723530D01*
X97384864Y-93648196D01*
X97156012Y-93610008D01*
X96923998Y-93610008D01*
X96695145Y-93648196D01*
X96475708Y-93723529D01*
X96271650Y-93833960D01*
X96241205Y-93857654D01*
X96241205Y-93857655D01*
X95298799Y-93857655D01*
X95268349Y-93833956D01*
X95064299Y-93723530D01*
X94844859Y-93648196D01*
X94616007Y-93610008D01*
X94383993Y-93610008D01*
X94155140Y-93648196D01*
X93935703Y-93723529D01*
X93731645Y-93833960D01*
X93701200Y-93857654D01*
X93701200Y-93857655D01*
X85850500Y-93857655D01*
X85850500Y-87389992D01*
X93094699Y-87389992D01*
X93113865Y-87621291D01*
X93113865Y-87621293D01*
X93113866Y-87621297D01*
X93165790Y-87826337D01*
X93170844Y-87846295D01*
X93229997Y-87981150D01*
X93264076Y-88058841D01*
X93391021Y-88253145D01*
X93548216Y-88423905D01*
X93731374Y-88566462D01*
X93935497Y-88676928D01*
X94035104Y-88711123D01*
X94155015Y-88752289D01*
X94155017Y-88752289D01*
X94155019Y-88752290D01*
X94383951Y-88790492D01*
X94616048Y-88790492D01*
X94616049Y-88790492D01*
X94844981Y-88752290D01*
X95064503Y-88676928D01*
X95268626Y-88566462D01*
X95299614Y-88542343D01*
X96241204Y-88542343D01*
X96271655Y-88566043D01*
X96475705Y-88676469D01*
X96695145Y-88751803D01*
X96923998Y-88789992D01*
X97156012Y-88789992D01*
X97384864Y-88751803D01*
X97604301Y-88676470D01*
X97808358Y-88566040D01*
X97838803Y-88542343D01*
X97040005Y-87743545D01*
X96241204Y-88542343D01*
X95299614Y-88542343D01*
X95451784Y-88423905D01*
X95608979Y-88253145D01*
X95666493Y-88165113D01*
X95711282Y-88123882D01*
X95770299Y-88108936D01*
X95829317Y-88123881D01*
X95874108Y-88165114D01*
X95888816Y-88187626D01*
X96686452Y-87389993D01*
X97393558Y-87389993D01*
X98191191Y-88187626D01*
X98205900Y-88165113D01*
X98250691Y-88123880D01*
X98309709Y-88108934D01*
X98368726Y-88123879D01*
X98413517Y-88165112D01*
X98471032Y-88253145D01*
X98628227Y-88423905D01*
X98811385Y-88566462D01*
X99015508Y-88676928D01*
X99115115Y-88711123D01*
X99235026Y-88752289D01*
X99235028Y-88752289D01*
X99235030Y-88752290D01*
X99463962Y-88790492D01*
X99696059Y-88790492D01*
X99696060Y-88790492D01*
X99924992Y-88752290D01*
X100144514Y-88676928D01*
X100348637Y-88566462D01*
X100531795Y-88423905D01*
X100688990Y-88253145D01*
X100746206Y-88165568D01*
X100790995Y-88124338D01*
X100850013Y-88109392D01*
X100909030Y-88124337D01*
X100953820Y-88165568D01*
X101011037Y-88253145D01*
X101168232Y-88423905D01*
X101351390Y-88566462D01*
X101555513Y-88676928D01*
X101655120Y-88711123D01*
X101775031Y-88752289D01*
X101775033Y-88752289D01*
X101775035Y-88752290D01*
X102003967Y-88790492D01*
X102236064Y-88790492D01*
X102236065Y-88790492D01*
X102464997Y-88752290D01*
X102684519Y-88676928D01*
X102888642Y-88566462D01*
X103071800Y-88423905D01*
X103228995Y-88253145D01*
X103355940Y-88058841D01*
X103449173Y-87846292D01*
X103506150Y-87621297D01*
X103525316Y-87389992D01*
X103506150Y-87158687D01*
X103449173Y-86933692D01*
X103355940Y-86721143D01*
X103228995Y-86526839D01*
X103071800Y-86356079D01*
X102888642Y-86213522D01*
X102684519Y-86103056D01*
X102684515Y-86103054D01*
X102684514Y-86103054D01*
X102465000Y-86027694D01*
X102293298Y-85999042D01*
X102236065Y-85989492D01*
X102003967Y-85989492D01*
X101958180Y-85997132D01*
X101775031Y-86027694D01*
X101555517Y-86103054D01*
X101351388Y-86213523D01*
X101168231Y-86356079D01*
X101011034Y-86526842D01*
X100953821Y-86614413D01*
X100909030Y-86655646D01*
X100850013Y-86670591D01*
X100790995Y-86655646D01*
X100746204Y-86614412D01*
X100737115Y-86600500D01*
X100688990Y-86526839D01*
X100531795Y-86356079D01*
X100348637Y-86213522D01*
X100144514Y-86103056D01*
X100144510Y-86103054D01*
X100144509Y-86103054D01*
X99924995Y-86027694D01*
X99753293Y-85999042D01*
X99696060Y-85989492D01*
X99463962Y-85989492D01*
X99418175Y-85997132D01*
X99235026Y-86027694D01*
X99015512Y-86103054D01*
X98811383Y-86213523D01*
X98628226Y-86356079D01*
X98471029Y-86526842D01*
X98413517Y-86614871D01*
X98368726Y-86656104D01*
X98309708Y-86671049D01*
X98250691Y-86656103D01*
X98205900Y-86614870D01*
X98191191Y-86592356D01*
X97393558Y-87389992D01*
X97393558Y-87389993D01*
X96686452Y-87389993D01*
X96686452Y-87389992D01*
X95888816Y-86592356D01*
X95874108Y-86614869D01*
X95829317Y-86656102D01*
X95770300Y-86671047D01*
X95711282Y-86656102D01*
X95666491Y-86614868D01*
X95655765Y-86598450D01*
X95608979Y-86526839D01*
X95451784Y-86356079D01*
X95299612Y-86237639D01*
X96241205Y-86237639D01*
X97040005Y-87036439D01*
X97040006Y-87036439D01*
X97838804Y-86237640D01*
X97838804Y-86237639D01*
X97808354Y-86213940D01*
X97604304Y-86103514D01*
X97384864Y-86028180D01*
X97156012Y-85989992D01*
X96923998Y-85989992D01*
X96695145Y-86028180D01*
X96475708Y-86103513D01*
X96271650Y-86213944D01*
X96241205Y-86237638D01*
X96241205Y-86237639D01*
X95299612Y-86237639D01*
X95268626Y-86213522D01*
X95064503Y-86103056D01*
X95064499Y-86103054D01*
X95064498Y-86103054D01*
X94844984Y-86027694D01*
X94673282Y-85999042D01*
X94616049Y-85989492D01*
X94383951Y-85989492D01*
X94338164Y-85997132D01*
X94155015Y-86027694D01*
X93935501Y-86103054D01*
X93731372Y-86213523D01*
X93548215Y-86356079D01*
X93391020Y-86526840D01*
X93264076Y-86721142D01*
X93170844Y-86933688D01*
X93170842Y-86933692D01*
X93170843Y-86933692D01*
X93120697Y-87131715D01*
X93113865Y-87158692D01*
X93094699Y-87389992D01*
X85850500Y-87389992D01*
X85850500Y-84797999D01*
X105862340Y-84797999D01*
X105882936Y-85033407D01*
X105927709Y-85200502D01*
X105944097Y-85261663D01*
X106043965Y-85475830D01*
X106179505Y-85669401D01*
X106346599Y-85836495D01*
X106540170Y-85972035D01*
X106754337Y-86071903D01*
X106977561Y-86131715D01*
X106982592Y-86133063D01*
X107217999Y-86153659D01*
X107217999Y-86153658D01*
X107218000Y-86153659D01*
X107453408Y-86133063D01*
X107681663Y-86071903D01*
X107895830Y-85972035D01*
X108089401Y-85836495D01*
X108256495Y-85669401D01*
X108392035Y-85475830D01*
X108491903Y-85261663D01*
X108553063Y-85033408D01*
X108573659Y-84798000D01*
X108566091Y-84711505D01*
X108553063Y-84562592D01*
X108503716Y-84378425D01*
X108491903Y-84334337D01*
X108392035Y-84120171D01*
X108256495Y-83926599D01*
X108089401Y-83759505D01*
X107895830Y-83623965D01*
X107681663Y-83524097D01*
X107620501Y-83507709D01*
X107453407Y-83462936D01*
X107217999Y-83442340D01*
X106982592Y-83462936D01*
X106754336Y-83524097D01*
X106540170Y-83623965D01*
X106346598Y-83759505D01*
X106179505Y-83926598D01*
X106043965Y-84120170D01*
X105944097Y-84334336D01*
X105882936Y-84562592D01*
X105862340Y-84797999D01*
X85850500Y-84797999D01*
X85850500Y-76072008D01*
X97444572Y-76072008D01*
X97463738Y-76303308D01*
X97463738Y-76303310D01*
X97463739Y-76303314D01*
X97520675Y-76528147D01*
X97520717Y-76528312D01*
X97599809Y-76708623D01*
X97613949Y-76740858D01*
X97740894Y-76935162D01*
X97898089Y-77105922D01*
X98081247Y-77248479D01*
X98285370Y-77358945D01*
X98353794Y-77382435D01*
X98504888Y-77434306D01*
X98504890Y-77434306D01*
X98504892Y-77434307D01*
X98733824Y-77472509D01*
X98965921Y-77472509D01*
X98965922Y-77472509D01*
X99194854Y-77434307D01*
X99414376Y-77358945D01*
X99618499Y-77248479D01*
X99801657Y-77105922D01*
X99958852Y-76935162D01*
X99996129Y-76878105D01*
X100040918Y-76836874D01*
X100099935Y-76821928D01*
X100158953Y-76836873D01*
X100203743Y-76878104D01*
X100241021Y-76935162D01*
X100398216Y-77105922D01*
X100581374Y-77248479D01*
X100785497Y-77358945D01*
X100853921Y-77382435D01*
X101005015Y-77434306D01*
X101005017Y-77434306D01*
X101005019Y-77434307D01*
X101233951Y-77472509D01*
X101466048Y-77472509D01*
X101466049Y-77472509D01*
X101694981Y-77434307D01*
X101914503Y-77358945D01*
X102118626Y-77248479D01*
X102149614Y-77224360D01*
X103051072Y-77224360D01*
X103081523Y-77248060D01*
X103285573Y-77358486D01*
X103505013Y-77433820D01*
X103733866Y-77472009D01*
X103965880Y-77472009D01*
X104194732Y-77433820D01*
X104414169Y-77358487D01*
X104618226Y-77248057D01*
X104648671Y-77224360D01*
X103849873Y-76425562D01*
X103051072Y-77224360D01*
X102149614Y-77224360D01*
X102301784Y-77105922D01*
X102458979Y-76935162D01*
X102496425Y-76877845D01*
X102541215Y-76836612D01*
X102600233Y-76821666D01*
X102659251Y-76836611D01*
X102694683Y-76869228D01*
X102698684Y-76869643D01*
X103496320Y-76072010D01*
X104203426Y-76072010D01*
X105001059Y-76869643D01*
X105085356Y-76740616D01*
X105178553Y-76528147D01*
X105235511Y-76303226D01*
X105254671Y-76072009D01*
X105235511Y-75840791D01*
X105178553Y-75615869D01*
X105085357Y-75403401D01*
X105001059Y-75274373D01*
X104203426Y-76072009D01*
X104203426Y-76072010D01*
X103496320Y-76072010D01*
X103496320Y-76072009D01*
X102698684Y-75274373D01*
X102694683Y-75274788D01*
X102659251Y-75307406D01*
X102600233Y-75322351D01*
X102541216Y-75307405D01*
X102496425Y-75266172D01*
X102458979Y-75208856D01*
X102301784Y-75038096D01*
X102149612Y-74919656D01*
X103051073Y-74919656D01*
X103849873Y-75718456D01*
X103849874Y-75718456D01*
X104648672Y-74919657D01*
X104648672Y-74919656D01*
X104618222Y-74895957D01*
X104414172Y-74785531D01*
X104194732Y-74710197D01*
X103965880Y-74672009D01*
X103733866Y-74672009D01*
X103505013Y-74710197D01*
X103285576Y-74785530D01*
X103081518Y-74895961D01*
X103051073Y-74919655D01*
X103051073Y-74919656D01*
X102149612Y-74919656D01*
X102118626Y-74895539D01*
X101914503Y-74785073D01*
X101914499Y-74785071D01*
X101914498Y-74785071D01*
X101694984Y-74709711D01*
X101523281Y-74681059D01*
X101466049Y-74671509D01*
X101233951Y-74671509D01*
X101188164Y-74679149D01*
X101005015Y-74709711D01*
X100785501Y-74785071D01*
X100581372Y-74895540D01*
X100398215Y-75038096D01*
X100241018Y-75208859D01*
X100203744Y-75265911D01*
X100158953Y-75307144D01*
X100099935Y-75322089D01*
X100040918Y-75307144D01*
X99996127Y-75265910D01*
X99994344Y-75263181D01*
X99958852Y-75208856D01*
X99801657Y-75038096D01*
X99618499Y-74895539D01*
X99414376Y-74785073D01*
X99414372Y-74785071D01*
X99414371Y-74785071D01*
X99194857Y-74709711D01*
X99023154Y-74681059D01*
X98965922Y-74671509D01*
X98733824Y-74671509D01*
X98688037Y-74679149D01*
X98504888Y-74709711D01*
X98285374Y-74785071D01*
X98081245Y-74895540D01*
X97898088Y-75038096D01*
X97740893Y-75208857D01*
X97613949Y-75403159D01*
X97520717Y-75615705D01*
X97520715Y-75615709D01*
X97520716Y-75615709D01*
X97502188Y-75688876D01*
X97463738Y-75840709D01*
X97444572Y-76072008D01*
X85850500Y-76072008D01*
X85850500Y-69191667D01*
X94499576Y-69191667D01*
X94514498Y-69400303D01*
X94573803Y-69672927D01*
X94573805Y-69672932D01*
X94671307Y-69934346D01*
X94688799Y-69966380D01*
X94805018Y-70179220D01*
X94860877Y-70253838D01*
X94972221Y-70402577D01*
X95169508Y-70599864D01*
X95287588Y-70688257D01*
X95392864Y-70767066D01*
X95480407Y-70814867D01*
X95637739Y-70900778D01*
X95899153Y-70998280D01*
X95899156Y-70998280D01*
X95899157Y-70998281D01*
X95937959Y-71006721D01*
X96171782Y-71057587D01*
X96430171Y-71076067D01*
X96450075Y-71077491D01*
X96450075Y-71077490D01*
X96450076Y-71077491D01*
X96728370Y-71057587D01*
X97000999Y-70998280D01*
X97262413Y-70900778D01*
X97507289Y-70767065D01*
X97730644Y-70599864D01*
X97927931Y-70402577D01*
X98095132Y-70179222D01*
X98228845Y-69934346D01*
X98326347Y-69672932D01*
X98385654Y-69400303D01*
X98400576Y-69191667D01*
X104299424Y-69191667D01*
X104314346Y-69400303D01*
X104373651Y-69672927D01*
X104373653Y-69672932D01*
X104471155Y-69934346D01*
X104488647Y-69966380D01*
X104604866Y-70179220D01*
X104660725Y-70253838D01*
X104772069Y-70402577D01*
X104969356Y-70599864D01*
X105087436Y-70688257D01*
X105192712Y-70767066D01*
X105280255Y-70814867D01*
X105437587Y-70900778D01*
X105699001Y-70998280D01*
X105699004Y-70998280D01*
X105699005Y-70998281D01*
X105737807Y-71006721D01*
X105971630Y-71057587D01*
X106230019Y-71076067D01*
X106249923Y-71077491D01*
X106249923Y-71077490D01*
X106249924Y-71077491D01*
X106528218Y-71057587D01*
X106800847Y-70998280D01*
X107062261Y-70900778D01*
X107307137Y-70767065D01*
X107530492Y-70599864D01*
X107727779Y-70402577D01*
X107894980Y-70179222D01*
X108028693Y-69934346D01*
X108126195Y-69672932D01*
X108185502Y-69400303D01*
X108200424Y-69191666D01*
X108200424Y-68952352D01*
X108185502Y-68743715D01*
X108126195Y-68471086D01*
X108028693Y-68209672D01*
X107894980Y-67964796D01*
X107727779Y-67741441D01*
X107530492Y-67544154D01*
X107418814Y-67460553D01*
X107307135Y-67376951D01*
X107132048Y-67281347D01*
X107062261Y-67243240D01*
X106800847Y-67145738D01*
X106800842Y-67145736D01*
X106528218Y-67086431D01*
X106249924Y-67066526D01*
X105971629Y-67086431D01*
X105699005Y-67145736D01*
X105568293Y-67194489D01*
X105437587Y-67243240D01*
X105437584Y-67243241D01*
X105437583Y-67243242D01*
X105192712Y-67376951D01*
X104969353Y-67544156D01*
X104772071Y-67741438D01*
X104604866Y-67964797D01*
X104495582Y-68164937D01*
X104471155Y-68209672D01*
X104427780Y-68325965D01*
X104373651Y-68471090D01*
X104314346Y-68743714D01*
X104299424Y-68952351D01*
X104299424Y-69191667D01*
X98400576Y-69191667D01*
X98400576Y-69191666D01*
X98400576Y-68952352D01*
X98385654Y-68743715D01*
X98326347Y-68471086D01*
X98228845Y-68209672D01*
X98095132Y-67964796D01*
X97927931Y-67741441D01*
X97730644Y-67544154D01*
X97618966Y-67460553D01*
X97507287Y-67376951D01*
X97332200Y-67281347D01*
X97262413Y-67243240D01*
X97000999Y-67145738D01*
X97000994Y-67145736D01*
X96728370Y-67086431D01*
X96450076Y-67066526D01*
X96171781Y-67086431D01*
X95899157Y-67145736D01*
X95768445Y-67194489D01*
X95637739Y-67243240D01*
X95637736Y-67243241D01*
X95637735Y-67243242D01*
X95392864Y-67376951D01*
X95169505Y-67544156D01*
X94972223Y-67741438D01*
X94805018Y-67964797D01*
X94695734Y-68164937D01*
X94671307Y-68209672D01*
X94627932Y-68325965D01*
X94573803Y-68471090D01*
X94514498Y-68743714D01*
X94499576Y-68952351D01*
X94499576Y-69191667D01*
X85850500Y-69191667D01*
X85850500Y-66499999D01*
X108494340Y-66499999D01*
X108514936Y-66735407D01*
X108543369Y-66841519D01*
X108576097Y-66963663D01*
X108675965Y-67177830D01*
X108811505Y-67371401D01*
X108978599Y-67538495D01*
X109172170Y-67674035D01*
X109386337Y-67773903D01*
X109614592Y-67835063D01*
X109850000Y-67855659D01*
X110085408Y-67835063D01*
X110313663Y-67773903D01*
X110527830Y-67674035D01*
X110721401Y-67538495D01*
X110888495Y-67371401D01*
X111024035Y-67177830D01*
X111123903Y-66963663D01*
X111185063Y-66735408D01*
X111205659Y-66500000D01*
X111185063Y-66264592D01*
X111123903Y-66036337D01*
X111024035Y-65822171D01*
X110888495Y-65628599D01*
X110721401Y-65461505D01*
X110527830Y-65325965D01*
X110313663Y-65226097D01*
X110252501Y-65209709D01*
X110085407Y-65164936D01*
X109850000Y-65144340D01*
X109614592Y-65164936D01*
X109386336Y-65226097D01*
X109172170Y-65325965D01*
X108978598Y-65461505D01*
X108811505Y-65628598D01*
X108675965Y-65822170D01*
X108576097Y-66036336D01*
X108514936Y-66264592D01*
X108494340Y-66499999D01*
X85850500Y-66499999D01*
X85850500Y-58099999D01*
X180644340Y-58099999D01*
X180664936Y-58335407D01*
X180709709Y-58502501D01*
X180726097Y-58563663D01*
X180825965Y-58777830D01*
X180961505Y-58971401D01*
X181128599Y-59138495D01*
X181322170Y-59274035D01*
X181536337Y-59373903D01*
X181764592Y-59435063D01*
X182000000Y-59455659D01*
X182235408Y-59435063D01*
X182463663Y-59373903D01*
X182677830Y-59274035D01*
X182871401Y-59138495D01*
X183038495Y-58971401D01*
X183174035Y-58777830D01*
X183273903Y-58563663D01*
X183335063Y-58335408D01*
X183355659Y-58100000D01*
X183335063Y-57864592D01*
X183273903Y-57636337D01*
X183174035Y-57422171D01*
X183038495Y-57228599D01*
X182871401Y-57061505D01*
X182677830Y-56925965D01*
X182463663Y-56826097D01*
X182402502Y-56809709D01*
X182235407Y-56764936D01*
X182000000Y-56744340D01*
X181764592Y-56764936D01*
X181536336Y-56826097D01*
X181322170Y-56925965D01*
X181128598Y-57061505D01*
X180961505Y-57228598D01*
X180825965Y-57422170D01*
X180726097Y-57636336D01*
X180664936Y-57864592D01*
X180644340Y-58099999D01*
X85850500Y-58099999D01*
X85850500Y-49040006D01*
X87844356Y-49040006D01*
X87864891Y-49287822D01*
X87864891Y-49287825D01*
X87864892Y-49287827D01*
X87925937Y-49528887D01*
X87970960Y-49631529D01*
X88025825Y-49756610D01*
X88025827Y-49756613D01*
X88161836Y-49964791D01*
X88330256Y-50147744D01*
X88330259Y-50147746D01*
X88526485Y-50300476D01*
X88526487Y-50300477D01*
X88526491Y-50300480D01*
X88745190Y-50418834D01*
X88980386Y-50499577D01*
X89225665Y-50540506D01*
X89474335Y-50540506D01*
X89719614Y-50499577D01*
X89954810Y-50418834D01*
X90173509Y-50300480D01*
X90369744Y-50147744D01*
X90538164Y-49964791D01*
X90674173Y-49756613D01*
X90774063Y-49528887D01*
X90835108Y-49287827D01*
X90855643Y-49040006D01*
X180844356Y-49040006D01*
X180864891Y-49287822D01*
X180864891Y-49287825D01*
X180864892Y-49287827D01*
X180925937Y-49528887D01*
X180970960Y-49631529D01*
X181025825Y-49756610D01*
X181025827Y-49756613D01*
X181161836Y-49964791D01*
X181330256Y-50147744D01*
X181330259Y-50147746D01*
X181526485Y-50300476D01*
X181526487Y-50300477D01*
X181526491Y-50300480D01*
X181745190Y-50418834D01*
X181980386Y-50499577D01*
X182225665Y-50540506D01*
X182474335Y-50540506D01*
X182719614Y-50499577D01*
X182954810Y-50418834D01*
X183173509Y-50300480D01*
X183369744Y-50147744D01*
X183538164Y-49964791D01*
X183674173Y-49756613D01*
X183774063Y-49528887D01*
X183835108Y-49287827D01*
X183855643Y-49040006D01*
X183835108Y-48792185D01*
X183774063Y-48551125D01*
X183674173Y-48323399D01*
X183543254Y-48123012D01*
X183524119Y-48071337D01*
X183529265Y-48016471D01*
X183557675Y-47969253D01*
X183578815Y-47955372D01*
X183577816Y-47954037D01*
X183707188Y-47857188D01*
X183793352Y-47742089D01*
X183843597Y-47607375D01*
X183850000Y-47547824D01*
X183850000Y-46750000D01*
X180850000Y-46750000D01*
X180850000Y-47547824D01*
X180856402Y-47607375D01*
X180906647Y-47742089D01*
X180992811Y-47857188D01*
X181122184Y-47954037D01*
X181121184Y-47955372D01*
X181142329Y-47969257D01*
X181170736Y-48016475D01*
X181175879Y-48071338D01*
X181156744Y-48123013D01*
X181025826Y-48323398D01*
X180925938Y-48551123D01*
X180864891Y-48792189D01*
X180844356Y-49040006D01*
X90855643Y-49040006D01*
X90835108Y-48792185D01*
X90774063Y-48551125D01*
X90674173Y-48323399D01*
X90543254Y-48123012D01*
X90524119Y-48071337D01*
X90529265Y-48016471D01*
X90557675Y-47969253D01*
X90578815Y-47955372D01*
X90577816Y-47954037D01*
X90707188Y-47857188D01*
X90793352Y-47742089D01*
X90843597Y-47607375D01*
X90850000Y-47547824D01*
X90850000Y-46750000D01*
X87850000Y-46750000D01*
X87850000Y-47547824D01*
X87856402Y-47607375D01*
X87906647Y-47742089D01*
X87992811Y-47857188D01*
X88122184Y-47954037D01*
X88121184Y-47955372D01*
X88142329Y-47969257D01*
X88170736Y-48016475D01*
X88175879Y-48071338D01*
X88156744Y-48123013D01*
X88025826Y-48323398D01*
X87925938Y-48551123D01*
X87864891Y-48792189D01*
X87844356Y-49040006D01*
X85850500Y-49040006D01*
X85850500Y-46250000D01*
X87850000Y-46250000D01*
X89100000Y-46250000D01*
X89100000Y-45000000D01*
X89600000Y-45000000D01*
X89600000Y-46250000D01*
X90850000Y-46250000D01*
X180850000Y-46250000D01*
X182100000Y-46250000D01*
X182100000Y-45000000D01*
X182600000Y-45000000D01*
X182600000Y-46250000D01*
X183850000Y-46250000D01*
X183850000Y-45452176D01*
X183843597Y-45392624D01*
X183793352Y-45257910D01*
X183707188Y-45142811D01*
X183592089Y-45056647D01*
X183457375Y-45006402D01*
X183397824Y-45000000D01*
X182600000Y-45000000D01*
X182100000Y-45000000D01*
X181302176Y-45000000D01*
X181242624Y-45006402D01*
X181107910Y-45056647D01*
X180992811Y-45142811D01*
X180906647Y-45257910D01*
X180856402Y-45392624D01*
X180850000Y-45452176D01*
X180850000Y-46250000D01*
X90850000Y-46250000D01*
X90850000Y-45452176D01*
X90843597Y-45392624D01*
X90793352Y-45257910D01*
X90707188Y-45142811D01*
X90592089Y-45056647D01*
X90457375Y-45006402D01*
X90397824Y-45000000D01*
X89600000Y-45000000D01*
X89100000Y-45000000D01*
X88302176Y-45000000D01*
X88242624Y-45006402D01*
X88107910Y-45056647D01*
X87992811Y-45142811D01*
X87906647Y-45257910D01*
X87856402Y-45392624D01*
X87850000Y-45452176D01*
X87850000Y-46250000D01*
X85850500Y-46250000D01*
X85850500Y-44002125D01*
X85850572Y-43997892D01*
X85852718Y-43935063D01*
X85861491Y-43678233D01*
X85861530Y-43678234D01*
X85861498Y-43678046D01*
X85868288Y-43487928D01*
X85868856Y-43479720D01*
X85898015Y-43196081D01*
X85922647Y-42966971D01*
X85923738Y-42959172D01*
X85945077Y-42835408D01*
X85970862Y-42685859D01*
X85986353Y-42599999D01*
X175794340Y-42599999D01*
X175814936Y-42835407D01*
X175853363Y-42978818D01*
X175876097Y-43063663D01*
X175975965Y-43277830D01*
X176111505Y-43471401D01*
X176278599Y-43638495D01*
X176472170Y-43774035D01*
X176686337Y-43873903D01*
X176914591Y-43935062D01*
X176914592Y-43935063D01*
X177149999Y-43955659D01*
X177149999Y-43955658D01*
X177150000Y-43955659D01*
X177385408Y-43935063D01*
X177613663Y-43873903D01*
X177827830Y-43774035D01*
X178021401Y-43638495D01*
X178188495Y-43471401D01*
X178324035Y-43277830D01*
X178423903Y-43063663D01*
X178485063Y-42835408D01*
X178505659Y-42600000D01*
X178485063Y-42364592D01*
X178423903Y-42136337D01*
X178324035Y-41922171D01*
X178188495Y-41728599D01*
X178021401Y-41561505D01*
X177827830Y-41425965D01*
X177613663Y-41326097D01*
X177552501Y-41309709D01*
X177385407Y-41264936D01*
X177150000Y-41244340D01*
X176914592Y-41264936D01*
X176686336Y-41326097D01*
X176472170Y-41425965D01*
X176278598Y-41561505D01*
X176111505Y-41728598D01*
X175975965Y-41922170D01*
X175876097Y-42136336D01*
X175814936Y-42364592D01*
X175794340Y-42599999D01*
X85986353Y-42599999D01*
X86013225Y-42451061D01*
X86014779Y-42443733D01*
X86016756Y-42435620D01*
X86079571Y-42177858D01*
X86079737Y-42177190D01*
X86139575Y-41942748D01*
X86141497Y-41936027D01*
X86223732Y-41676925D01*
X86224098Y-41675802D01*
X86301057Y-41444577D01*
X86303325Y-41438330D01*
X86402623Y-41186531D01*
X86403251Y-41184977D01*
X86430086Y-41120191D01*
X98559520Y-41120191D01*
X98599086Y-41357299D01*
X98677136Y-41584652D01*
X98677137Y-41584655D01*
X98677138Y-41584656D01*
X98727201Y-41677165D01*
X98791551Y-41796072D01*
X98922543Y-41964370D01*
X98939195Y-41985764D01*
X99116051Y-42148571D01*
X99317292Y-42280049D01*
X99537429Y-42376610D01*
X99770457Y-42435620D01*
X99842286Y-42441571D01*
X99950024Y-42450500D01*
X99950030Y-42450500D01*
X100070010Y-42450500D01*
X100070016Y-42450500D01*
X100167958Y-42442383D01*
X100249583Y-42435620D01*
X100482611Y-42376610D01*
X100702748Y-42280049D01*
X100903989Y-42148571D01*
X101080845Y-41985764D01*
X101228492Y-41796067D01*
X101342902Y-41584656D01*
X101420954Y-41357297D01*
X101460520Y-41120192D01*
X101460520Y-40879808D01*
X101420954Y-40642703D01*
X101342902Y-40415344D01*
X101228492Y-40203933D01*
X101228489Y-40203929D01*
X101228488Y-40203927D01*
X101130060Y-40077468D01*
X101080845Y-40014236D01*
X100903989Y-39851429D01*
X100702748Y-39719951D01*
X100482611Y-39623390D01*
X100249583Y-39564380D01*
X100249581Y-39564379D01*
X100249578Y-39564379D01*
X100070016Y-39549500D01*
X100070010Y-39549500D01*
X99950030Y-39549500D01*
X99950024Y-39549500D01*
X99770461Y-39564379D01*
X99770457Y-39564379D01*
X99770457Y-39564380D01*
X99537429Y-39623390D01*
X99317292Y-39719951D01*
X99116051Y-39851429D01*
X99116049Y-39851430D01*
X99116050Y-39851430D01*
X98939192Y-40014239D01*
X98791551Y-40203927D01*
X98677136Y-40415347D01*
X98599086Y-40642700D01*
X98559520Y-40879809D01*
X98559520Y-41120191D01*
X86430086Y-41120191D01*
X86496896Y-40958897D01*
X86499444Y-40953167D01*
X86615319Y-40709517D01*
X86616305Y-40707497D01*
X86726146Y-40488062D01*
X86728872Y-40482928D01*
X86860837Y-40248228D01*
X86862245Y-40245793D01*
X86987636Y-40034457D01*
X86990545Y-40029796D01*
X87138038Y-39804924D01*
X87139758Y-39802376D01*
X87280156Y-39600166D01*
X87283119Y-39596082D01*
X87445479Y-39381979D01*
X87447611Y-39379252D01*
X87602237Y-39187371D01*
X87605166Y-39183878D01*
X87781751Y-38981363D01*
X87784282Y-38978553D01*
X87952226Y-38798169D01*
X87955190Y-38795098D01*
X88145098Y-38605190D01*
X88148169Y-38602226D01*
X88328553Y-38434282D01*
X88331363Y-38431751D01*
X88533878Y-38255166D01*
X88537371Y-38252237D01*
X88729252Y-38097611D01*
X88731979Y-38095479D01*
X88946082Y-37933119D01*
X88950166Y-37930156D01*
X89152376Y-37789758D01*
X89154924Y-37788038D01*
X89379796Y-37640545D01*
X89384457Y-37637636D01*
X89595820Y-37512229D01*
X89598227Y-37510838D01*
X89832928Y-37378872D01*
X89838062Y-37376146D01*
X90057497Y-37266305D01*
X90059517Y-37265319D01*
X90303167Y-37149444D01*
X90308897Y-37146896D01*
X90534977Y-37053251D01*
X90536531Y-37052623D01*
X90788330Y-36953325D01*
X90794577Y-36951057D01*
X91025802Y-36874098D01*
X91026925Y-36873732D01*
X91286027Y-36791497D01*
X91292748Y-36789575D01*
X91527190Y-36729737D01*
X91527858Y-36729571D01*
X91793739Y-36664777D01*
X91801061Y-36663225D01*
X92035859Y-36620862D01*
X92309181Y-36573736D01*
X92316971Y-36572647D01*
X92546081Y-36548015D01*
X92829720Y-36518856D01*
X92837928Y-36518288D01*
X93027893Y-36511503D01*
X93028047Y-36511498D01*
X93028234Y-36511530D01*
X93028233Y-36511491D01*
X93347892Y-36500571D01*
X93352125Y-36500500D01*
X178347875Y-36500500D01*
X178352107Y-36500571D01*
G37*
%TD.AperFunction*%
%TD*%
M02*
