%TF.GenerationSoftware,KiCad,Pcbnew,(7.0.0)*%
%TF.CreationDate,2023-04-14T02:25:45+02:00*%
%TF.ProjectId,EEE3088F_CKR,45454533-3038-4384-965f-434b522e6b69,0.2*%
%TF.SameCoordinates,Original*%
%TF.FileFunction,Soldermask,Top*%
%TF.FilePolarity,Negative*%
%FSLAX46Y46*%
G04 Gerber Fmt 4.6, Leading zero omitted, Abs format (unit mm)*
G04 Created by KiCad (PCBNEW (7.0.0)) date 2023-04-14 02:25:45*
%MOMM*%
%LPD*%
G01*
G04 APERTURE LIST*
%ADD10R,1.700000X1.700000*%
%ADD11O,1.700000X1.700000*%
%ADD12R,0.540005X0.565659*%
%ADD13R,0.806477X0.864008*%
%ADD14R,1.377013X1.132537*%
%ADD15R,1.000000X0.800000*%
%ADD16R,1.132537X1.377013*%
%ADD17R,0.400000X0.900000*%
%ADD18R,0.864008X0.806477*%
%ADD19R,1.399543X1.000000*%
%ADD20R,0.565659X0.540005*%
%ADD21C,1.800000*%
%ADD22O,3.000000X2.900000*%
%ADD23R,0.780010X0.350013*%
%ADD24R,0.800000X0.800000*%
%ADD25R,1.700000X1.000000*%
%ADD26R,1.200000X0.600000*%
%ADD27R,2.400000X3.300000*%
%ADD28R,0.800000X1.000000*%
%ADD29R,0.584989X0.280010*%
%ADD30R,0.559995X1.370003*%
%ADD31R,0.800000X0.900000*%
%ADD32R,0.540005X0.790094*%
%ADD33R,1.207518X1.701016*%
%ADD34R,5.500000X2.000000*%
%ADD35C,2.400000*%
%ADD36R,5.080010X7.620015*%
%ADD37R,0.400000X1.400000*%
%ADD38C,1.300000*%
%ADD39O,1.300000X2.200000*%
%ADD40R,0.900000X0.800000*%
%ADD41R,0.790094X0.540005*%
%ADD42O,1.864999X0.629997*%
%ADD43R,0.600000X1.070003*%
G04 APERTURE END LIST*
D10*
%TO.C,J3*%
X128439999Y-86819999D03*
D11*
X130979999Y-86819999D03*
X133519999Y-86819999D03*
X136059999Y-86819999D03*
X138599999Y-86819999D03*
X141139999Y-86819999D03*
X143679999Y-86819999D03*
X146219999Y-86819999D03*
X148759999Y-86819999D03*
X151299999Y-86819999D03*
X153839999Y-86819999D03*
X156379999Y-86819999D03*
X158919999Y-86819999D03*
X161459999Y-86819999D03*
X163999999Y-86819999D03*
X166539999Y-86819999D03*
X169079999Y-86819999D03*
X171619999Y-86819999D03*
X174159999Y-86819999D03*
X176699999Y-86819999D03*
X179239999Y-86819999D03*
X181779999Y-86819999D03*
X184319999Y-86819999D03*
X186859999Y-86819999D03*
X186859999Y-71579999D03*
X184319999Y-71579999D03*
X181779999Y-71579999D03*
X179239999Y-71579999D03*
X176699999Y-71579999D03*
X174159999Y-71579999D03*
X171619999Y-71579999D03*
X169079999Y-71579999D03*
X166539999Y-71579999D03*
X163999999Y-71579999D03*
X161459999Y-71579999D03*
X158919999Y-71579999D03*
X156379999Y-71579999D03*
X153839999Y-71579999D03*
X151299999Y-71579999D03*
X148759999Y-71579999D03*
X146219999Y-71579999D03*
X143679999Y-71579999D03*
X141139999Y-71579999D03*
X138599999Y-71579999D03*
X136059999Y-71579999D03*
X133519999Y-71579999D03*
X130979999Y-71579999D03*
D10*
X128439999Y-71579999D03*
%TD*%
D12*
%TO.C,R52*%
X178999999Y-84499999D03*
X178999999Y-83634365D03*
%TD*%
D13*
%TO.C,R31*%
X150419999Y-97499999D03*
X148913267Y-97499999D03*
%TD*%
%TO.C,R45*%
X122246633Y-86499999D03*
X123753365Y-86499999D03*
%TD*%
D11*
%TO.C,TP5*%
X118499999Y-31499999D03*
%TD*%
D14*
%TO.C,R39*%
X192499999Y-60999999D03*
X192499999Y-58999999D03*
%TD*%
D15*
%TO.C,Q2*%
X124122786Y-36083186D03*
X124122786Y-37983212D03*
X126422812Y-37033250D03*
%TD*%
D16*
%TO.C,R130*%
X124593599Y-31495999D03*
X126593599Y-31495999D03*
%TD*%
D11*
%TO.C,TP14*%
X107499999Y-83999999D03*
%TD*%
D13*
%TO.C,R700*%
X123969267Y-33824165D03*
X125475999Y-33824165D03*
%TD*%
%TO.C,R40*%
X182006731Y-79499999D03*
X180499999Y-79499999D03*
%TD*%
D17*
%TO.C,U1*%
X131256837Y-30141923D03*
X130606850Y-30141923D03*
X129956863Y-30141923D03*
X129956863Y-32342075D03*
X131256837Y-32342075D03*
%TD*%
D18*
%TO.C,R120*%
X131208267Y-36313365D03*
X131208267Y-34806633D03*
%TD*%
D11*
%TO.C,TP13*%
X107499999Y-77999999D03*
%TD*%
D16*
%TO.C,R11*%
X144499999Y-26999999D03*
X146499999Y-26999999D03*
%TD*%
D19*
%TO.C,D5*%
X192499999Y-41999999D03*
X192499999Y-44100583D03*
%TD*%
D11*
%TO.C,TP15*%
X107499999Y-89999999D03*
%TD*%
D20*
%TO.C,R50*%
X135999999Y-63499999D03*
X135134365Y-63499999D03*
%TD*%
D14*
%TO.C,R59*%
X164499999Y-38999999D03*
X164499999Y-36999999D03*
%TD*%
D13*
%TO.C,R18*%
X110993267Y-35499999D03*
X112499999Y-35499999D03*
%TD*%
D11*
%TO.C,TP21*%
X137999999Y-27499999D03*
%TD*%
D13*
%TO.C,R48*%
X154419999Y-95499999D03*
X152913267Y-95499999D03*
%TD*%
D11*
%TO.C,TP7*%
X192499999Y-93999999D03*
%TD*%
D10*
%TO.C,J1*%
X114039999Y-27499999D03*
D11*
X111499999Y-27499999D03*
%TD*%
D21*
%TO.C,RV1*%
X124000000Y-72500127D03*
X124000000Y-70000000D03*
X124000000Y-67500127D03*
D22*
X116999999Y-74899923D03*
X116999999Y-65100075D03*
%TD*%
D11*
%TO.C,TP1*%
X151499999Y-31999999D03*
%TD*%
D13*
%TO.C,R27*%
X133166633Y-95499999D03*
X134673365Y-95499999D03*
%TD*%
D23*
%TO.C,U6*%
X167999999Y-97649986D03*
X167999999Y-96999999D03*
X167999999Y-96350012D03*
X166020015Y-96350012D03*
X166020015Y-96999999D03*
X166020015Y-97649986D03*
%TD*%
D18*
%TO.C,R37*%
X109999999Y-93999999D03*
X109999999Y-92493267D03*
%TD*%
D10*
%TO.C,JP4*%
X192499999Y-72539999D03*
D11*
X192499999Y-69999999D03*
%TD*%
D13*
%TO.C,R46*%
X137166633Y-97499999D03*
X138673365Y-97499999D03*
%TD*%
%TO.C,R32*%
X185849986Y-95999999D03*
X184343254Y-95999999D03*
%TD*%
D24*
%TO.C,D2*%
X148499999Y-28999999D03*
X150098933Y-28993141D03*
%TD*%
D18*
%TO.C,R2*%
X158499999Y-32999999D03*
X158499999Y-31493267D03*
%TD*%
D25*
%TO.C,SW1*%
X192299974Y-38850190D03*
X185700024Y-38850215D03*
X192299974Y-35149783D03*
X185700024Y-35149808D03*
%TD*%
D26*
%TO.C,U2*%
X150908305Y-38405003D03*
X150908305Y-37135000D03*
X150908305Y-35864998D03*
X150908305Y-34594995D03*
X145091693Y-34594995D03*
X145091693Y-35864998D03*
X145091693Y-37135000D03*
X145091693Y-38405003D03*
D27*
X147999999Y-36499999D03*
%TD*%
D13*
%TO.C,R16*%
X108506731Y-30999999D03*
X106999999Y-30999999D03*
%TD*%
D11*
%TO.C,TP20*%
X192499999Y-82999999D03*
%TD*%
D13*
%TO.C,R56*%
X176999999Y-77499999D03*
X178506731Y-77499999D03*
%TD*%
D10*
%TO.C,JP3*%
X192499999Y-79039999D03*
D11*
X192499999Y-76499999D03*
%TD*%
D13*
%TO.C,R30*%
X179993267Y-95999999D03*
X181499999Y-95999999D03*
%TD*%
%TO.C,R55*%
X179413267Y-63499999D03*
X180919999Y-63499999D03*
%TD*%
%TO.C,R53*%
X145493267Y-63499999D03*
X146999999Y-63499999D03*
%TD*%
%TO.C,R43*%
X119246633Y-96999999D03*
X120753365Y-96999999D03*
%TD*%
D28*
%TO.C,Q4*%
X136406705Y-33149961D03*
X138306731Y-33149961D03*
X137356769Y-30849935D03*
%TD*%
D13*
%TO.C,R41*%
X182006731Y-77499999D03*
X180499999Y-77499999D03*
%TD*%
D18*
%TO.C,R1*%
X160499999Y-33006731D03*
X160499999Y-31499999D03*
%TD*%
D16*
%TO.C,R9*%
X146499999Y-28999999D03*
X144499999Y-28999999D03*
%TD*%
D13*
%TO.C,R34*%
X186413267Y-63499999D03*
X187919999Y-63499999D03*
%TD*%
D11*
%TO.C,TP8*%
X192499999Y-90999999D03*
%TD*%
%TO.C,TP6*%
X107499999Y-63499999D03*
%TD*%
D13*
%TO.C,R24*%
X123753365Y-80999999D03*
X122246633Y-80999999D03*
%TD*%
%TO.C,R19*%
X110993267Y-37499999D03*
X112499999Y-37499999D03*
%TD*%
D28*
%TO.C,Q5*%
X122049986Y-79150012D03*
X123950012Y-79150012D03*
X123000050Y-76849986D03*
%TD*%
D29*
%TO.C,U5*%
X160202523Y-96549935D03*
X160202523Y-97049808D03*
X160202523Y-97549935D03*
X162037423Y-97549935D03*
X162037423Y-97049808D03*
X162037423Y-96549935D03*
D30*
X161119973Y-97049808D03*
%TD*%
D25*
%TO.C,SW4*%
X119299974Y-93850190D03*
X112700024Y-93850215D03*
X119299974Y-90149783D03*
X112700024Y-90149808D03*
%TD*%
D13*
%TO.C,R54*%
X141993267Y-63499999D03*
X143499999Y-63499999D03*
%TD*%
D20*
%TO.C,TH1*%
X116253365Y-96999999D03*
X117118999Y-96999999D03*
%TD*%
D31*
%TO.C,C2*%
X147499999Y-31999999D03*
X148900049Y-31999999D03*
%TD*%
D11*
%TO.C,TP10*%
X171499999Y-96499999D03*
%TD*%
D18*
%TO.C,R58*%
X178499999Y-30493267D03*
X178499999Y-31999999D03*
%TD*%
D20*
%TO.C,R51*%
X132634365Y-63499999D03*
X133499999Y-63499999D03*
%TD*%
D32*
%TO.C,C8*%
X131419999Y-81409829D03*
X131419999Y-82499999D03*
%TD*%
D11*
%TO.C,TP4*%
X114999999Y-38999999D03*
%TD*%
D18*
%TO.C,R60*%
X164499999Y-34999999D03*
X164499999Y-33493267D03*
%TD*%
D15*
%TO.C,Q1*%
X158499999Y-36999999D03*
X158499999Y-38900025D03*
X160800025Y-37950063D03*
%TD*%
D33*
%TO.C,R28*%
X123295783Y-96499999D03*
X126253365Y-96499999D03*
%TD*%
D10*
%TO.C,JP2*%
X107499999Y-70499999D03*
D11*
X107499999Y-73039999D03*
%TD*%
D13*
%TO.C,R47*%
X179999999Y-97999999D03*
X181506731Y-97999999D03*
%TD*%
D18*
%TO.C,R36*%
X109999999Y-87999999D03*
X109999999Y-86493267D03*
%TD*%
D10*
%TO.C,J5*%
X132579999Y-27499999D03*
D11*
X130039999Y-27499999D03*
X127499999Y-27499999D03*
%TD*%
D13*
%TO.C,R25*%
X133166633Y-97499999D03*
X134673365Y-97499999D03*
%TD*%
D10*
%TO.C,JP6*%
X183419999Y-31499999D03*
D11*
X185959999Y-31499999D03*
X188499999Y-31499999D03*
%TD*%
D10*
%TO.C,J4*%
X128439999Y-91899999D03*
D11*
X130979999Y-91899999D03*
X133519999Y-91899999D03*
X136059999Y-91899999D03*
X138599999Y-91899999D03*
X141139999Y-91899999D03*
X143679999Y-91899999D03*
X146219999Y-91899999D03*
X148759999Y-91899999D03*
X151299999Y-91899999D03*
X153839999Y-91899999D03*
X156379999Y-91899999D03*
X158919999Y-91899999D03*
X161459999Y-91899999D03*
X163999999Y-91899999D03*
X166539999Y-91899999D03*
X169079999Y-91899999D03*
X171619999Y-91899999D03*
X174159999Y-91899999D03*
X176699999Y-91899999D03*
X179239999Y-91899999D03*
X181779999Y-91899999D03*
X184319999Y-91899999D03*
X186859999Y-91899999D03*
X186859999Y-66499999D03*
X184319999Y-66499999D03*
X181779999Y-66499999D03*
X179239999Y-66499999D03*
X176699999Y-66499999D03*
X174159999Y-66499999D03*
X171619999Y-66499999D03*
X169079999Y-66499999D03*
X166539999Y-66499999D03*
X163999999Y-66499999D03*
X161459999Y-66499999D03*
X158919999Y-66499999D03*
X156379999Y-66499999D03*
X153839999Y-66499999D03*
X151299999Y-66499999D03*
X148759999Y-66499999D03*
X146219999Y-66499999D03*
X143679999Y-66499999D03*
X141139999Y-66499999D03*
X138599999Y-66499999D03*
X136059999Y-66499999D03*
X133519999Y-66499999D03*
X130979999Y-66499999D03*
D10*
X128439999Y-66499999D03*
%TD*%
D14*
%TO.C,R620*%
X121919999Y-34051999D03*
X121919999Y-36051999D03*
%TD*%
D11*
%TO.C,TP11*%
X192499999Y-63499999D03*
%TD*%
D15*
%TO.C,Q90*%
X119615612Y-36002012D03*
X119615612Y-34101986D03*
X117315586Y-35051948D03*
%TD*%
D25*
%TO.C,SW2*%
X119299974Y-81850190D03*
X112700024Y-81850215D03*
X119299974Y-78149783D03*
X112700024Y-78149808D03*
%TD*%
D13*
%TO.C,R57*%
X176999999Y-79499999D03*
X178506731Y-79499999D03*
%TD*%
D24*
%TO.C,D3*%
X148499999Y-26999999D03*
X150098933Y-26993141D03*
%TD*%
D32*
%TO.C,C7*%
X148419999Y-81409829D03*
X148419999Y-82499999D03*
%TD*%
D13*
%TO.C,R33*%
X182913267Y-63499999D03*
X184419999Y-63499999D03*
%TD*%
D16*
%TO.C,R3*%
X158499999Y-34999999D03*
X160499999Y-34999999D03*
%TD*%
D18*
%TO.C,R23*%
X108999999Y-43506731D03*
X108999999Y-41999999D03*
%TD*%
D14*
%TO.C,R38*%
X189999999Y-60999999D03*
X189999999Y-58999999D03*
%TD*%
D15*
%TO.C,Q6*%
X130673365Y-97499999D03*
X130673365Y-95599973D03*
X128373339Y-96549935D03*
%TD*%
D31*
%TO.C,C4*%
X110999999Y-39499999D03*
X112400049Y-39499999D03*
%TD*%
D34*
%TO.C,Y1*%
X144320177Y-81999999D03*
X135419999Y-81999999D03*
%TD*%
D11*
%TO.C,TP22*%
X140999999Y-27499999D03*
%TD*%
%TO.C,TP16*%
X107499999Y-60499999D03*
%TD*%
D35*
%TO.C,B1*%
X185839980Y-59500000D03*
D36*
X108686816Y-51499999D03*
X191313182Y-51499999D03*
%TD*%
D13*
%TO.C,R21*%
X140499999Y-32999999D03*
X142006731Y-32999999D03*
%TD*%
D15*
%TO.C,Q8*%
X178150012Y-97950063D03*
X178150012Y-96050037D03*
X175849986Y-96999999D03*
%TD*%
D32*
%TO.C,C6*%
X169499999Y-96499999D03*
X169499999Y-95409829D03*
%TD*%
D15*
%TO.C,Q7*%
X156119973Y-95549935D03*
X156119973Y-97449961D03*
X158419999Y-96499999D03*
%TD*%
D25*
%TO.C,SW3*%
X119299974Y-87850190D03*
X112700024Y-87850215D03*
X119299974Y-84149783D03*
X112700024Y-84149808D03*
%TD*%
D13*
%TO.C,R15*%
X108506731Y-32999999D03*
X106999999Y-32999999D03*
%TD*%
D16*
%TO.C,R49*%
X139999999Y-63499999D03*
X137999999Y-63499999D03*
%TD*%
D18*
%TO.C,R800*%
X128117599Y-34992565D03*
X128117599Y-33485833D03*
%TD*%
D37*
%TO.C,U8*%
X159700025Y-29542671D03*
X159050037Y-29542671D03*
X158400050Y-29542671D03*
X157750063Y-29542671D03*
X157100075Y-29542671D03*
D38*
X155975108Y-29170053D03*
D39*
X154800101Y-26499999D03*
X161999999Y-26499999D03*
D38*
X160824994Y-29170053D03*
%TD*%
D40*
%TO.C,C1*%
X154499999Y-33299974D03*
X154499999Y-34700024D03*
%TD*%
D11*
%TO.C,TP19*%
X192499999Y-85999999D03*
%TD*%
D41*
%TO.C,C5*%
X159499999Y-95049935D03*
X160590169Y-95049935D03*
%TD*%
D13*
%TO.C,R26*%
X123753365Y-82999999D03*
X122246633Y-82999999D03*
%TD*%
D11*
%TO.C,TP3*%
X144999999Y-31999999D03*
%TD*%
D28*
%TO.C,Q3*%
X112406757Y-30699973D03*
X110506731Y-30699973D03*
X111456693Y-32999999D03*
%TD*%
D14*
%TO.C,R14*%
X154499999Y-36999999D03*
X154499999Y-38999999D03*
%TD*%
D42*
%TO.C,U9*%
X135317500Y-35594995D03*
X135317500Y-36864998D03*
X135317500Y-38135000D03*
X135317500Y-39405003D03*
X140682498Y-39405003D03*
X140682498Y-38135000D03*
X140682498Y-36864998D03*
X140682498Y-35594995D03*
%TD*%
D10*
%TO.C,J2*%
X122039999Y-27499999D03*
D11*
X119499999Y-27499999D03*
%TD*%
D16*
%TO.C,R100*%
X131082799Y-38760399D03*
X129082799Y-38760399D03*
%TD*%
D31*
%TO.C,C3*%
X108999999Y-35499999D03*
X107599949Y-35499999D03*
%TD*%
D18*
%TO.C,R35*%
X109999999Y-81753365D03*
X109999999Y-80246633D03*
%TD*%
D10*
%TO.C,J6*%
X165639999Y-27499999D03*
D11*
X168179999Y-27499999D03*
X170719999Y-27499999D03*
X173259999Y-27499999D03*
X175799999Y-27499999D03*
X178339999Y-27499999D03*
X180879999Y-27499999D03*
X183419999Y-27499999D03*
X185959999Y-27499999D03*
X188499999Y-27499999D03*
%TD*%
%TO.C,TP18*%
X165499999Y-30999999D03*
%TD*%
D18*
%TO.C,R400*%
X121818399Y-32240731D03*
X121818399Y-30733999D03*
%TD*%
D10*
%TO.C,JP5*%
X170459999Y-31499999D03*
D11*
X172999999Y-31499999D03*
X175539999Y-31499999D03*
%TD*%
D13*
%TO.C,R29*%
X150419999Y-95499999D03*
X148913267Y-95499999D03*
%TD*%
%TO.C,R20*%
X140499999Y-30999999D03*
X142006731Y-30999999D03*
%TD*%
D11*
%TO.C,TP17*%
X107499999Y-57499999D03*
%TD*%
D18*
%TO.C,R44*%
X109999999Y-65493267D03*
X109999999Y-66999999D03*
%TD*%
D19*
%TO.C,D4*%
X189999999Y-41999999D03*
X189999999Y-44100583D03*
%TD*%
D21*
%TO.C,U7*%
X167109992Y-83810008D03*
X169649997Y-83810008D03*
X172190003Y-83810008D03*
X174730008Y-83810008D03*
X174730008Y-76189992D03*
X172190003Y-76189992D03*
X169649997Y-76189992D03*
X167109992Y-76189992D03*
%TD*%
D10*
%TO.C,JP1*%
X142633365Y-96499999D03*
D11*
X145173365Y-96499999D03*
%TD*%
D14*
%TO.C,R17*%
X114506731Y-32999999D03*
X114506731Y-30999999D03*
%TD*%
%TO.C,R22*%
X134006731Y-32999999D03*
X134006731Y-30999999D03*
%TD*%
D18*
%TO.C,R61*%
X166499999Y-34999999D03*
X166499999Y-33493267D03*
%TD*%
D11*
%TO.C,TP2*%
X114999999Y-35999999D03*
%TD*%
D43*
%TO.C,U4*%
X107314960Y-39999999D03*
X109214884Y-39999999D03*
X108264922Y-37529845D03*
%TD*%
D11*
%TO.C,TP12*%
X192499999Y-66499999D03*
%TD*%
%TO.C,TP9*%
X113253365Y-96999999D03*
%TD*%
D18*
%TO.C,R42*%
X173999999Y-97499999D03*
X173999999Y-95993267D03*
%TD*%
M02*
