%TF.GenerationSoftware,KiCad,Pcbnew,(7.0.0)*%
%TF.CreationDate,2023-04-14T02:26:39+02:00*%
%TF.ProjectId,EEE3088F_CKR,45454533-3038-4384-965f-434b522e6b69,0.2*%
%TF.SameCoordinates,Original*%
%TF.FileFunction,Drillmap*%
%TF.FilePolarity,Positive*%
%FSLAX45Y45*%
G04 Gerber Fmt 4.5, Leading zero omitted, Abs format (unit mm)*
G04 Created by KiCad (PCBNEW (7.0.0)) date 2023-04-14 02:26:39*
%MOMM*%
%LPD*%
G01*
G04 APERTURE LIST*
%ADD10C,0.100000*%
%ADD11C,0.200000*%
%ADD12C,0.240000*%
G04 APERTURE END LIST*
D10*
X19250000Y-10000000D02*
G75*
G03*
X19500000Y-9750000I0J250000D01*
G01*
X10750000Y-2500000D02*
G75*
G03*
X10500000Y-2750000I0J-250000D01*
G01*
X19500000Y-2750000D02*
G75*
G03*
X19250000Y-2500000I-250000J0D01*
G01*
X10500000Y-9750000D02*
X10500000Y-2750000D01*
X10750000Y-10000000D02*
X19250000Y-10000000D01*
X10500000Y-9750000D02*
G75*
G03*
X10750000Y-10000000I250000J0D01*
G01*
X19500000Y-2750000D02*
X19500000Y-9750000D01*
X10750000Y-2500000D02*
X19250000Y-2500000D01*
D11*
D12*
X18463998Y-5830000D02*
X18703998Y-6070000D01*
X18703998Y-5830000D02*
X18463998Y-6070000D01*
D11*
X10742619Y-10298476D02*
X10742619Y-10098476D01*
X10742619Y-10098476D02*
X10790238Y-10098476D01*
X10790238Y-10098476D02*
X10818810Y-10108000D01*
X10818810Y-10108000D02*
X10837857Y-10127048D01*
X10837857Y-10127048D02*
X10847381Y-10146095D01*
X10847381Y-10146095D02*
X10856905Y-10184190D01*
X10856905Y-10184190D02*
X10856905Y-10212762D01*
X10856905Y-10212762D02*
X10847381Y-10250857D01*
X10847381Y-10250857D02*
X10837857Y-10269905D01*
X10837857Y-10269905D02*
X10818810Y-10288952D01*
X10818810Y-10288952D02*
X10790238Y-10298476D01*
X10790238Y-10298476D02*
X10742619Y-10298476D01*
X10942619Y-10298476D02*
X10942619Y-10165143D01*
X10942619Y-10203238D02*
X10952143Y-10184190D01*
X10952143Y-10184190D02*
X10961667Y-10174667D01*
X10961667Y-10174667D02*
X10980714Y-10165143D01*
X10980714Y-10165143D02*
X10999762Y-10165143D01*
X11066429Y-10298476D02*
X11066429Y-10165143D01*
X11066429Y-10098476D02*
X11056905Y-10108000D01*
X11056905Y-10108000D02*
X11066429Y-10117524D01*
X11066429Y-10117524D02*
X11075952Y-10108000D01*
X11075952Y-10108000D02*
X11066429Y-10098476D01*
X11066429Y-10098476D02*
X11066429Y-10117524D01*
X11190238Y-10298476D02*
X11171190Y-10288952D01*
X11171190Y-10288952D02*
X11161667Y-10269905D01*
X11161667Y-10269905D02*
X11161667Y-10098476D01*
X11295000Y-10298476D02*
X11275952Y-10288952D01*
X11275952Y-10288952D02*
X11266428Y-10269905D01*
X11266428Y-10269905D02*
X11266428Y-10098476D01*
X11491190Y-10298476D02*
X11491190Y-10098476D01*
X11491190Y-10098476D02*
X11557857Y-10241333D01*
X11557857Y-10241333D02*
X11624524Y-10098476D01*
X11624524Y-10098476D02*
X11624524Y-10298476D01*
X11805476Y-10298476D02*
X11805476Y-10193714D01*
X11805476Y-10193714D02*
X11795952Y-10174667D01*
X11795952Y-10174667D02*
X11776905Y-10165143D01*
X11776905Y-10165143D02*
X11738809Y-10165143D01*
X11738809Y-10165143D02*
X11719762Y-10174667D01*
X11805476Y-10288952D02*
X11786428Y-10298476D01*
X11786428Y-10298476D02*
X11738809Y-10298476D01*
X11738809Y-10298476D02*
X11719762Y-10288952D01*
X11719762Y-10288952D02*
X11710238Y-10269905D01*
X11710238Y-10269905D02*
X11710238Y-10250857D01*
X11710238Y-10250857D02*
X11719762Y-10231810D01*
X11719762Y-10231810D02*
X11738809Y-10222286D01*
X11738809Y-10222286D02*
X11786428Y-10222286D01*
X11786428Y-10222286D02*
X11805476Y-10212762D01*
X11900714Y-10165143D02*
X11900714Y-10365143D01*
X11900714Y-10174667D02*
X11919762Y-10165143D01*
X11919762Y-10165143D02*
X11957857Y-10165143D01*
X11957857Y-10165143D02*
X11976905Y-10174667D01*
X11976905Y-10174667D02*
X11986428Y-10184190D01*
X11986428Y-10184190D02*
X11995952Y-10203238D01*
X11995952Y-10203238D02*
X11995952Y-10260381D01*
X11995952Y-10260381D02*
X11986428Y-10279429D01*
X11986428Y-10279429D02*
X11976905Y-10288952D01*
X11976905Y-10288952D02*
X11957857Y-10298476D01*
X11957857Y-10298476D02*
X11919762Y-10298476D01*
X11919762Y-10298476D02*
X11900714Y-10288952D01*
X12081667Y-10279429D02*
X12091190Y-10288952D01*
X12091190Y-10288952D02*
X12081667Y-10298476D01*
X12081667Y-10298476D02*
X12072143Y-10288952D01*
X12072143Y-10288952D02*
X12081667Y-10279429D01*
X12081667Y-10279429D02*
X12081667Y-10298476D01*
X12081667Y-10174667D02*
X12091190Y-10184190D01*
X12091190Y-10184190D02*
X12081667Y-10193714D01*
X12081667Y-10193714D02*
X12072143Y-10184190D01*
X12072143Y-10184190D02*
X12081667Y-10174667D01*
X12081667Y-10174667D02*
X12081667Y-10193714D01*
X10295000Y-10545000D02*
X10495000Y-10745000D01*
X10495000Y-10545000D02*
X10295000Y-10745000D01*
X10733095Y-10537524D02*
X10742619Y-10528000D01*
X10742619Y-10528000D02*
X10761667Y-10518476D01*
X10761667Y-10518476D02*
X10809286Y-10518476D01*
X10809286Y-10518476D02*
X10828333Y-10528000D01*
X10828333Y-10528000D02*
X10837857Y-10537524D01*
X10837857Y-10537524D02*
X10847381Y-10556571D01*
X10847381Y-10556571D02*
X10847381Y-10575619D01*
X10847381Y-10575619D02*
X10837857Y-10604190D01*
X10837857Y-10604190D02*
X10723571Y-10718476D01*
X10723571Y-10718476D02*
X10847381Y-10718476D01*
X10933095Y-10699429D02*
X10942619Y-10708952D01*
X10942619Y-10708952D02*
X10933095Y-10718476D01*
X10933095Y-10718476D02*
X10923571Y-10708952D01*
X10923571Y-10708952D02*
X10933095Y-10699429D01*
X10933095Y-10699429D02*
X10933095Y-10718476D01*
X11114048Y-10585143D02*
X11114048Y-10718476D01*
X11066429Y-10508952D02*
X11018810Y-10651810D01*
X11018810Y-10651810D02*
X11142619Y-10651810D01*
X11256905Y-10518476D02*
X11275952Y-10518476D01*
X11275952Y-10518476D02*
X11295000Y-10528000D01*
X11295000Y-10528000D02*
X11304524Y-10537524D01*
X11304524Y-10537524D02*
X11314048Y-10556571D01*
X11314048Y-10556571D02*
X11323571Y-10594667D01*
X11323571Y-10594667D02*
X11323571Y-10642286D01*
X11323571Y-10642286D02*
X11314048Y-10680381D01*
X11314048Y-10680381D02*
X11304524Y-10699429D01*
X11304524Y-10699429D02*
X11295000Y-10708952D01*
X11295000Y-10708952D02*
X11275952Y-10718476D01*
X11275952Y-10718476D02*
X11256905Y-10718476D01*
X11256905Y-10718476D02*
X11237857Y-10708952D01*
X11237857Y-10708952D02*
X11228333Y-10699429D01*
X11228333Y-10699429D02*
X11218809Y-10680381D01*
X11218809Y-10680381D02*
X11209286Y-10642286D01*
X11209286Y-10642286D02*
X11209286Y-10594667D01*
X11209286Y-10594667D02*
X11218809Y-10556571D01*
X11218809Y-10556571D02*
X11228333Y-10537524D01*
X11228333Y-10537524D02*
X11237857Y-10528000D01*
X11237857Y-10528000D02*
X11256905Y-10518476D01*
X11447381Y-10518476D02*
X11466429Y-10518476D01*
X11466429Y-10518476D02*
X11485476Y-10528000D01*
X11485476Y-10528000D02*
X11495000Y-10537524D01*
X11495000Y-10537524D02*
X11504524Y-10556571D01*
X11504524Y-10556571D02*
X11514048Y-10594667D01*
X11514048Y-10594667D02*
X11514048Y-10642286D01*
X11514048Y-10642286D02*
X11504524Y-10680381D01*
X11504524Y-10680381D02*
X11495000Y-10699429D01*
X11495000Y-10699429D02*
X11485476Y-10708952D01*
X11485476Y-10708952D02*
X11466429Y-10718476D01*
X11466429Y-10718476D02*
X11447381Y-10718476D01*
X11447381Y-10718476D02*
X11428333Y-10708952D01*
X11428333Y-10708952D02*
X11418809Y-10699429D01*
X11418809Y-10699429D02*
X11409286Y-10680381D01*
X11409286Y-10680381D02*
X11399762Y-10642286D01*
X11399762Y-10642286D02*
X11399762Y-10594667D01*
X11399762Y-10594667D02*
X11409286Y-10556571D01*
X11409286Y-10556571D02*
X11418809Y-10537524D01*
X11418809Y-10537524D02*
X11428333Y-10528000D01*
X11428333Y-10528000D02*
X11447381Y-10518476D01*
X11599762Y-10718476D02*
X11599762Y-10585143D01*
X11599762Y-10604190D02*
X11609286Y-10594667D01*
X11609286Y-10594667D02*
X11628333Y-10585143D01*
X11628333Y-10585143D02*
X11656905Y-10585143D01*
X11656905Y-10585143D02*
X11675952Y-10594667D01*
X11675952Y-10594667D02*
X11685476Y-10613714D01*
X11685476Y-10613714D02*
X11685476Y-10718476D01*
X11685476Y-10613714D02*
X11695000Y-10594667D01*
X11695000Y-10594667D02*
X11714048Y-10585143D01*
X11714048Y-10585143D02*
X11742619Y-10585143D01*
X11742619Y-10585143D02*
X11761667Y-10594667D01*
X11761667Y-10594667D02*
X11771190Y-10613714D01*
X11771190Y-10613714D02*
X11771190Y-10718476D01*
X11866429Y-10718476D02*
X11866429Y-10585143D01*
X11866429Y-10604190D02*
X11875952Y-10594667D01*
X11875952Y-10594667D02*
X11895000Y-10585143D01*
X11895000Y-10585143D02*
X11923571Y-10585143D01*
X11923571Y-10585143D02*
X11942619Y-10594667D01*
X11942619Y-10594667D02*
X11952143Y-10613714D01*
X11952143Y-10613714D02*
X11952143Y-10718476D01*
X11952143Y-10613714D02*
X11961667Y-10594667D01*
X11961667Y-10594667D02*
X11980714Y-10585143D01*
X11980714Y-10585143D02*
X12009286Y-10585143D01*
X12009286Y-10585143D02*
X12028333Y-10594667D01*
X12028333Y-10594667D02*
X12037857Y-10613714D01*
X12037857Y-10613714D02*
X12037857Y-10718476D01*
X12395952Y-10508952D02*
X12224524Y-10766095D01*
X12620714Y-10518476D02*
X12639762Y-10518476D01*
X12639762Y-10518476D02*
X12658810Y-10528000D01*
X12658810Y-10528000D02*
X12668333Y-10537524D01*
X12668333Y-10537524D02*
X12677857Y-10556571D01*
X12677857Y-10556571D02*
X12687381Y-10594667D01*
X12687381Y-10594667D02*
X12687381Y-10642286D01*
X12687381Y-10642286D02*
X12677857Y-10680381D01*
X12677857Y-10680381D02*
X12668333Y-10699429D01*
X12668333Y-10699429D02*
X12658810Y-10708952D01*
X12658810Y-10708952D02*
X12639762Y-10718476D01*
X12639762Y-10718476D02*
X12620714Y-10718476D01*
X12620714Y-10718476D02*
X12601667Y-10708952D01*
X12601667Y-10708952D02*
X12592143Y-10699429D01*
X12592143Y-10699429D02*
X12582619Y-10680381D01*
X12582619Y-10680381D02*
X12573095Y-10642286D01*
X12573095Y-10642286D02*
X12573095Y-10594667D01*
X12573095Y-10594667D02*
X12582619Y-10556571D01*
X12582619Y-10556571D02*
X12592143Y-10537524D01*
X12592143Y-10537524D02*
X12601667Y-10528000D01*
X12601667Y-10528000D02*
X12620714Y-10518476D01*
X12773095Y-10699429D02*
X12782619Y-10708952D01*
X12782619Y-10708952D02*
X12773095Y-10718476D01*
X12773095Y-10718476D02*
X12763571Y-10708952D01*
X12763571Y-10708952D02*
X12773095Y-10699429D01*
X12773095Y-10699429D02*
X12773095Y-10718476D01*
X12906429Y-10518476D02*
X12925476Y-10518476D01*
X12925476Y-10518476D02*
X12944524Y-10528000D01*
X12944524Y-10528000D02*
X12954048Y-10537524D01*
X12954048Y-10537524D02*
X12963571Y-10556571D01*
X12963571Y-10556571D02*
X12973095Y-10594667D01*
X12973095Y-10594667D02*
X12973095Y-10642286D01*
X12973095Y-10642286D02*
X12963571Y-10680381D01*
X12963571Y-10680381D02*
X12954048Y-10699429D01*
X12954048Y-10699429D02*
X12944524Y-10708952D01*
X12944524Y-10708952D02*
X12925476Y-10718476D01*
X12925476Y-10718476D02*
X12906429Y-10718476D01*
X12906429Y-10718476D02*
X12887381Y-10708952D01*
X12887381Y-10708952D02*
X12877857Y-10699429D01*
X12877857Y-10699429D02*
X12868333Y-10680381D01*
X12868333Y-10680381D02*
X12858810Y-10642286D01*
X12858810Y-10642286D02*
X12858810Y-10594667D01*
X12858810Y-10594667D02*
X12868333Y-10556571D01*
X12868333Y-10556571D02*
X12877857Y-10537524D01*
X12877857Y-10537524D02*
X12887381Y-10528000D01*
X12887381Y-10528000D02*
X12906429Y-10518476D01*
X13068333Y-10718476D02*
X13106429Y-10718476D01*
X13106429Y-10718476D02*
X13125476Y-10708952D01*
X13125476Y-10708952D02*
X13135000Y-10699429D01*
X13135000Y-10699429D02*
X13154048Y-10670857D01*
X13154048Y-10670857D02*
X13163571Y-10632762D01*
X13163571Y-10632762D02*
X13163571Y-10556571D01*
X13163571Y-10556571D02*
X13154048Y-10537524D01*
X13154048Y-10537524D02*
X13144524Y-10528000D01*
X13144524Y-10528000D02*
X13125476Y-10518476D01*
X13125476Y-10518476D02*
X13087381Y-10518476D01*
X13087381Y-10518476D02*
X13068333Y-10528000D01*
X13068333Y-10528000D02*
X13058810Y-10537524D01*
X13058810Y-10537524D02*
X13049286Y-10556571D01*
X13049286Y-10556571D02*
X13049286Y-10604190D01*
X13049286Y-10604190D02*
X13058810Y-10623238D01*
X13058810Y-10623238D02*
X13068333Y-10632762D01*
X13068333Y-10632762D02*
X13087381Y-10642286D01*
X13087381Y-10642286D02*
X13125476Y-10642286D01*
X13125476Y-10642286D02*
X13144524Y-10632762D01*
X13144524Y-10632762D02*
X13154048Y-10623238D01*
X13154048Y-10623238D02*
X13163571Y-10604190D01*
X13335000Y-10585143D02*
X13335000Y-10718476D01*
X13287381Y-10508952D02*
X13239762Y-10651810D01*
X13239762Y-10651810D02*
X13363571Y-10651810D01*
X13535000Y-10518476D02*
X13439762Y-10518476D01*
X13439762Y-10518476D02*
X13430238Y-10613714D01*
X13430238Y-10613714D02*
X13439762Y-10604190D01*
X13439762Y-10604190D02*
X13458810Y-10594667D01*
X13458810Y-10594667D02*
X13506429Y-10594667D01*
X13506429Y-10594667D02*
X13525476Y-10604190D01*
X13525476Y-10604190D02*
X13535000Y-10613714D01*
X13535000Y-10613714D02*
X13544524Y-10632762D01*
X13544524Y-10632762D02*
X13544524Y-10680381D01*
X13544524Y-10680381D02*
X13535000Y-10699429D01*
X13535000Y-10699429D02*
X13525476Y-10708952D01*
X13525476Y-10708952D02*
X13506429Y-10718476D01*
X13506429Y-10718476D02*
X13458810Y-10718476D01*
X13458810Y-10718476D02*
X13439762Y-10708952D01*
X13439762Y-10708952D02*
X13430238Y-10699429D01*
X13620714Y-10518476D02*
X13620714Y-10556571D01*
X13696905Y-10518476D02*
X13696905Y-10556571D01*
X13959762Y-10794667D02*
X13950238Y-10785143D01*
X13950238Y-10785143D02*
X13931191Y-10756571D01*
X13931191Y-10756571D02*
X13921667Y-10737524D01*
X13921667Y-10737524D02*
X13912143Y-10708952D01*
X13912143Y-10708952D02*
X13902619Y-10661333D01*
X13902619Y-10661333D02*
X13902619Y-10623238D01*
X13902619Y-10623238D02*
X13912143Y-10575619D01*
X13912143Y-10575619D02*
X13921667Y-10547048D01*
X13921667Y-10547048D02*
X13931191Y-10528000D01*
X13931191Y-10528000D02*
X13950238Y-10499429D01*
X13950238Y-10499429D02*
X13959762Y-10489905D01*
X14140714Y-10718476D02*
X14026429Y-10718476D01*
X14083571Y-10718476D02*
X14083571Y-10518476D01*
X14083571Y-10518476D02*
X14064524Y-10547048D01*
X14064524Y-10547048D02*
X14045476Y-10566095D01*
X14045476Y-10566095D02*
X14026429Y-10575619D01*
X14346429Y-10718476D02*
X14346429Y-10518476D01*
X14432143Y-10718476D02*
X14432143Y-10613714D01*
X14432143Y-10613714D02*
X14422619Y-10594667D01*
X14422619Y-10594667D02*
X14403572Y-10585143D01*
X14403572Y-10585143D02*
X14375000Y-10585143D01*
X14375000Y-10585143D02*
X14355952Y-10594667D01*
X14355952Y-10594667D02*
X14346429Y-10604190D01*
X14555952Y-10718476D02*
X14536905Y-10708952D01*
X14536905Y-10708952D02*
X14527381Y-10699429D01*
X14527381Y-10699429D02*
X14517857Y-10680381D01*
X14517857Y-10680381D02*
X14517857Y-10623238D01*
X14517857Y-10623238D02*
X14527381Y-10604190D01*
X14527381Y-10604190D02*
X14536905Y-10594667D01*
X14536905Y-10594667D02*
X14555952Y-10585143D01*
X14555952Y-10585143D02*
X14584524Y-10585143D01*
X14584524Y-10585143D02*
X14603572Y-10594667D01*
X14603572Y-10594667D02*
X14613095Y-10604190D01*
X14613095Y-10604190D02*
X14622619Y-10623238D01*
X14622619Y-10623238D02*
X14622619Y-10680381D01*
X14622619Y-10680381D02*
X14613095Y-10699429D01*
X14613095Y-10699429D02*
X14603572Y-10708952D01*
X14603572Y-10708952D02*
X14584524Y-10718476D01*
X14584524Y-10718476D02*
X14555952Y-10718476D01*
X14736905Y-10718476D02*
X14717857Y-10708952D01*
X14717857Y-10708952D02*
X14708333Y-10689905D01*
X14708333Y-10689905D02*
X14708333Y-10518476D01*
X14889286Y-10708952D02*
X14870238Y-10718476D01*
X14870238Y-10718476D02*
X14832143Y-10718476D01*
X14832143Y-10718476D02*
X14813095Y-10708952D01*
X14813095Y-10708952D02*
X14803572Y-10689905D01*
X14803572Y-10689905D02*
X14803572Y-10613714D01*
X14803572Y-10613714D02*
X14813095Y-10594667D01*
X14813095Y-10594667D02*
X14832143Y-10585143D01*
X14832143Y-10585143D02*
X14870238Y-10585143D01*
X14870238Y-10585143D02*
X14889286Y-10594667D01*
X14889286Y-10594667D02*
X14898810Y-10613714D01*
X14898810Y-10613714D02*
X14898810Y-10632762D01*
X14898810Y-10632762D02*
X14803572Y-10651810D01*
X14965476Y-10794667D02*
X14975000Y-10785143D01*
X14975000Y-10785143D02*
X14994048Y-10756571D01*
X14994048Y-10756571D02*
X15003572Y-10737524D01*
X15003572Y-10737524D02*
X15013095Y-10708952D01*
X15013095Y-10708952D02*
X15022619Y-10661333D01*
X15022619Y-10661333D02*
X15022619Y-10623238D01*
X15022619Y-10623238D02*
X15013095Y-10575619D01*
X15013095Y-10575619D02*
X15003572Y-10547048D01*
X15003572Y-10547048D02*
X14994048Y-10528000D01*
X14994048Y-10528000D02*
X14975000Y-10499429D01*
X14975000Y-10499429D02*
X14965476Y-10489905D01*
X15295000Y-10794667D02*
X15285476Y-10785143D01*
X15285476Y-10785143D02*
X15266429Y-10756571D01*
X15266429Y-10756571D02*
X15256905Y-10737524D01*
X15256905Y-10737524D02*
X15247381Y-10708952D01*
X15247381Y-10708952D02*
X15237857Y-10661333D01*
X15237857Y-10661333D02*
X15237857Y-10623238D01*
X15237857Y-10623238D02*
X15247381Y-10575619D01*
X15247381Y-10575619D02*
X15256905Y-10547048D01*
X15256905Y-10547048D02*
X15266429Y-10528000D01*
X15266429Y-10528000D02*
X15285476Y-10499429D01*
X15285476Y-10499429D02*
X15295000Y-10489905D01*
X15371191Y-10585143D02*
X15371191Y-10718476D01*
X15371191Y-10604190D02*
X15380714Y-10594667D01*
X15380714Y-10594667D02*
X15399762Y-10585143D01*
X15399762Y-10585143D02*
X15428333Y-10585143D01*
X15428333Y-10585143D02*
X15447381Y-10594667D01*
X15447381Y-10594667D02*
X15456905Y-10613714D01*
X15456905Y-10613714D02*
X15456905Y-10718476D01*
X15580714Y-10718476D02*
X15561667Y-10708952D01*
X15561667Y-10708952D02*
X15552143Y-10699429D01*
X15552143Y-10699429D02*
X15542619Y-10680381D01*
X15542619Y-10680381D02*
X15542619Y-10623238D01*
X15542619Y-10623238D02*
X15552143Y-10604190D01*
X15552143Y-10604190D02*
X15561667Y-10594667D01*
X15561667Y-10594667D02*
X15580714Y-10585143D01*
X15580714Y-10585143D02*
X15609286Y-10585143D01*
X15609286Y-10585143D02*
X15628333Y-10594667D01*
X15628333Y-10594667D02*
X15637857Y-10604190D01*
X15637857Y-10604190D02*
X15647381Y-10623238D01*
X15647381Y-10623238D02*
X15647381Y-10680381D01*
X15647381Y-10680381D02*
X15637857Y-10699429D01*
X15637857Y-10699429D02*
X15628333Y-10708952D01*
X15628333Y-10708952D02*
X15609286Y-10718476D01*
X15609286Y-10718476D02*
X15580714Y-10718476D01*
X15704524Y-10585143D02*
X15780714Y-10585143D01*
X15733095Y-10518476D02*
X15733095Y-10689905D01*
X15733095Y-10689905D02*
X15742619Y-10708952D01*
X15742619Y-10708952D02*
X15761667Y-10718476D01*
X15761667Y-10718476D02*
X15780714Y-10718476D01*
X15967381Y-10585143D02*
X15967381Y-10785143D01*
X15967381Y-10594667D02*
X15986429Y-10585143D01*
X15986429Y-10585143D02*
X16024524Y-10585143D01*
X16024524Y-10585143D02*
X16043572Y-10594667D01*
X16043572Y-10594667D02*
X16053095Y-10604190D01*
X16053095Y-10604190D02*
X16062619Y-10623238D01*
X16062619Y-10623238D02*
X16062619Y-10680381D01*
X16062619Y-10680381D02*
X16053095Y-10699429D01*
X16053095Y-10699429D02*
X16043572Y-10708952D01*
X16043572Y-10708952D02*
X16024524Y-10718476D01*
X16024524Y-10718476D02*
X15986429Y-10718476D01*
X15986429Y-10718476D02*
X15967381Y-10708952D01*
X16176905Y-10718476D02*
X16157857Y-10708952D01*
X16157857Y-10708952D02*
X16148333Y-10689905D01*
X16148333Y-10689905D02*
X16148333Y-10518476D01*
X16338810Y-10718476D02*
X16338810Y-10613714D01*
X16338810Y-10613714D02*
X16329286Y-10594667D01*
X16329286Y-10594667D02*
X16310238Y-10585143D01*
X16310238Y-10585143D02*
X16272143Y-10585143D01*
X16272143Y-10585143D02*
X16253095Y-10594667D01*
X16338810Y-10708952D02*
X16319762Y-10718476D01*
X16319762Y-10718476D02*
X16272143Y-10718476D01*
X16272143Y-10718476D02*
X16253095Y-10708952D01*
X16253095Y-10708952D02*
X16243572Y-10689905D01*
X16243572Y-10689905D02*
X16243572Y-10670857D01*
X16243572Y-10670857D02*
X16253095Y-10651810D01*
X16253095Y-10651810D02*
X16272143Y-10642286D01*
X16272143Y-10642286D02*
X16319762Y-10642286D01*
X16319762Y-10642286D02*
X16338810Y-10632762D01*
X16405476Y-10585143D02*
X16481667Y-10585143D01*
X16434048Y-10518476D02*
X16434048Y-10689905D01*
X16434048Y-10689905D02*
X16443572Y-10708952D01*
X16443572Y-10708952D02*
X16462619Y-10718476D01*
X16462619Y-10718476D02*
X16481667Y-10718476D01*
X16624524Y-10708952D02*
X16605476Y-10718476D01*
X16605476Y-10718476D02*
X16567381Y-10718476D01*
X16567381Y-10718476D02*
X16548333Y-10708952D01*
X16548333Y-10708952D02*
X16538810Y-10689905D01*
X16538810Y-10689905D02*
X16538810Y-10613714D01*
X16538810Y-10613714D02*
X16548333Y-10594667D01*
X16548333Y-10594667D02*
X16567381Y-10585143D01*
X16567381Y-10585143D02*
X16605476Y-10585143D01*
X16605476Y-10585143D02*
X16624524Y-10594667D01*
X16624524Y-10594667D02*
X16634048Y-10613714D01*
X16634048Y-10613714D02*
X16634048Y-10632762D01*
X16634048Y-10632762D02*
X16538810Y-10651810D01*
X16805476Y-10718476D02*
X16805476Y-10518476D01*
X16805476Y-10708952D02*
X16786429Y-10718476D01*
X16786429Y-10718476D02*
X16748333Y-10718476D01*
X16748333Y-10718476D02*
X16729286Y-10708952D01*
X16729286Y-10708952D02*
X16719762Y-10699429D01*
X16719762Y-10699429D02*
X16710238Y-10680381D01*
X16710238Y-10680381D02*
X16710238Y-10623238D01*
X16710238Y-10623238D02*
X16719762Y-10604190D01*
X16719762Y-10604190D02*
X16729286Y-10594667D01*
X16729286Y-10594667D02*
X16748333Y-10585143D01*
X16748333Y-10585143D02*
X16786429Y-10585143D01*
X16786429Y-10585143D02*
X16805476Y-10594667D01*
X16881667Y-10794667D02*
X16891191Y-10785143D01*
X16891191Y-10785143D02*
X16910238Y-10756571D01*
X16910238Y-10756571D02*
X16919762Y-10737524D01*
X16919762Y-10737524D02*
X16929286Y-10708952D01*
X16929286Y-10708952D02*
X16938810Y-10661333D01*
X16938810Y-10661333D02*
X16938810Y-10623238D01*
X16938810Y-10623238D02*
X16929286Y-10575619D01*
X16929286Y-10575619D02*
X16919762Y-10547048D01*
X16919762Y-10547048D02*
X16910238Y-10528000D01*
X16910238Y-10528000D02*
X16891191Y-10499429D01*
X16891191Y-10499429D02*
X16881667Y-10489905D01*
M02*
