%TF.GenerationSoftware,KiCad,Pcbnew,(7.0.0)*%
%TF.CreationDate,2023-04-14T02:25:45+02:00*%
%TF.ProjectId,EEE3088F_CKR,45454533-3038-4384-965f-434b522e6b69,0.2*%
%TF.SameCoordinates,Original*%
%TF.FileFunction,Soldermask,Bot*%
%TF.FilePolarity,Negative*%
%FSLAX46Y46*%
G04 Gerber Fmt 4.6, Leading zero omitted, Abs format (unit mm)*
G04 Created by KiCad (PCBNEW (7.0.0)) date 2023-04-14 02:25:45*
%MOMM*%
%LPD*%
G01*
G04 APERTURE LIST*
%ADD10R,1.700000X1.700000*%
%ADD11O,1.700000X1.700000*%
%ADD12C,1.800000*%
%ADD13O,3.000000X2.900000*%
%ADD14C,2.400000*%
%ADD15C,1.300000*%
%ADD16O,1.300000X2.200000*%
G04 APERTURE END LIST*
D10*
%TO.C,J3*%
X128439999Y-86819999D03*
D11*
X130979999Y-86819999D03*
X133519999Y-86819999D03*
X136059999Y-86819999D03*
X138599999Y-86819999D03*
X141139999Y-86819999D03*
X143679999Y-86819999D03*
X146219999Y-86819999D03*
X148759999Y-86819999D03*
X151299999Y-86819999D03*
X153839999Y-86819999D03*
X156379999Y-86819999D03*
X158919999Y-86819999D03*
X161459999Y-86819999D03*
X163999999Y-86819999D03*
X166539999Y-86819999D03*
X169079999Y-86819999D03*
X171619999Y-86819999D03*
X174159999Y-86819999D03*
X176699999Y-86819999D03*
X179239999Y-86819999D03*
X181779999Y-86819999D03*
X184319999Y-86819999D03*
X186859999Y-86819999D03*
X186859999Y-71579999D03*
X184319999Y-71579999D03*
X181779999Y-71579999D03*
X179239999Y-71579999D03*
X176699999Y-71579999D03*
X174159999Y-71579999D03*
X171619999Y-71579999D03*
X169079999Y-71579999D03*
X166539999Y-71579999D03*
X163999999Y-71579999D03*
X161459999Y-71579999D03*
X158919999Y-71579999D03*
X156379999Y-71579999D03*
X153839999Y-71579999D03*
X151299999Y-71579999D03*
X148759999Y-71579999D03*
X146219999Y-71579999D03*
X143679999Y-71579999D03*
X141139999Y-71579999D03*
X138599999Y-71579999D03*
X136059999Y-71579999D03*
X133519999Y-71579999D03*
X130979999Y-71579999D03*
D10*
X128439999Y-71579999D03*
%TD*%
D11*
%TO.C,TP5*%
X118499999Y-31499999D03*
%TD*%
%TO.C,TP14*%
X107499999Y-83999999D03*
%TD*%
%TO.C,TP13*%
X107499999Y-77999999D03*
%TD*%
%TO.C,TP15*%
X107499999Y-89999999D03*
%TD*%
%TO.C,TP21*%
X137999999Y-27499999D03*
%TD*%
%TO.C,TP7*%
X192499999Y-93999999D03*
%TD*%
D10*
%TO.C,J1*%
X114039999Y-27499999D03*
D11*
X111499999Y-27499999D03*
%TD*%
D12*
%TO.C,RV1*%
X124000000Y-72500127D03*
X124000000Y-70000000D03*
X124000000Y-67500127D03*
D13*
X116999999Y-74899923D03*
X116999999Y-65100075D03*
%TD*%
D11*
%TO.C,TP1*%
X151499999Y-31999999D03*
%TD*%
D10*
%TO.C,JP4*%
X192499999Y-72539999D03*
D11*
X192499999Y-69999999D03*
%TD*%
%TO.C,TP20*%
X192499999Y-82999999D03*
%TD*%
D10*
%TO.C,JP3*%
X192499999Y-79039999D03*
D11*
X192499999Y-76499999D03*
%TD*%
%TO.C,TP8*%
X192499999Y-90999999D03*
%TD*%
%TO.C,TP6*%
X107499999Y-63499999D03*
%TD*%
%TO.C,TP10*%
X171499999Y-96499999D03*
%TD*%
%TO.C,TP4*%
X114999999Y-38999999D03*
%TD*%
D10*
%TO.C,JP2*%
X107499999Y-70499999D03*
D11*
X107499999Y-73039999D03*
%TD*%
D10*
%TO.C,J5*%
X132579999Y-27499999D03*
D11*
X130039999Y-27499999D03*
X127499999Y-27499999D03*
%TD*%
D10*
%TO.C,JP6*%
X183419999Y-31499999D03*
D11*
X185959999Y-31499999D03*
X188499999Y-31499999D03*
%TD*%
D10*
%TO.C,J4*%
X128439999Y-91899999D03*
D11*
X130979999Y-91899999D03*
X133519999Y-91899999D03*
X136059999Y-91899999D03*
X138599999Y-91899999D03*
X141139999Y-91899999D03*
X143679999Y-91899999D03*
X146219999Y-91899999D03*
X148759999Y-91899999D03*
X151299999Y-91899999D03*
X153839999Y-91899999D03*
X156379999Y-91899999D03*
X158919999Y-91899999D03*
X161459999Y-91899999D03*
X163999999Y-91899999D03*
X166539999Y-91899999D03*
X169079999Y-91899999D03*
X171619999Y-91899999D03*
X174159999Y-91899999D03*
X176699999Y-91899999D03*
X179239999Y-91899999D03*
X181779999Y-91899999D03*
X184319999Y-91899999D03*
X186859999Y-91899999D03*
X186859999Y-66499999D03*
X184319999Y-66499999D03*
X181779999Y-66499999D03*
X179239999Y-66499999D03*
X176699999Y-66499999D03*
X174159999Y-66499999D03*
X171619999Y-66499999D03*
X169079999Y-66499999D03*
X166539999Y-66499999D03*
X163999999Y-66499999D03*
X161459999Y-66499999D03*
X158919999Y-66499999D03*
X156379999Y-66499999D03*
X153839999Y-66499999D03*
X151299999Y-66499999D03*
X148759999Y-66499999D03*
X146219999Y-66499999D03*
X143679999Y-66499999D03*
X141139999Y-66499999D03*
X138599999Y-66499999D03*
X136059999Y-66499999D03*
X133519999Y-66499999D03*
X130979999Y-66499999D03*
D10*
X128439999Y-66499999D03*
%TD*%
D11*
%TO.C,TP11*%
X192499999Y-63499999D03*
%TD*%
%TO.C,TP22*%
X140999999Y-27499999D03*
%TD*%
%TO.C,TP16*%
X107499999Y-60499999D03*
%TD*%
D14*
%TO.C,B1*%
X185839980Y-59500000D03*
%TD*%
D15*
%TO.C,U8*%
X155975108Y-29170053D03*
D16*
X154800101Y-26499999D03*
X161999999Y-26499999D03*
D15*
X160824994Y-29170053D03*
%TD*%
D11*
%TO.C,TP19*%
X192499999Y-85999999D03*
%TD*%
%TO.C,TP3*%
X144999999Y-31999999D03*
%TD*%
D10*
%TO.C,J2*%
X122039999Y-27499999D03*
D11*
X119499999Y-27499999D03*
%TD*%
D10*
%TO.C,J6*%
X165639999Y-27499999D03*
D11*
X168179999Y-27499999D03*
X170719999Y-27499999D03*
X173259999Y-27499999D03*
X175799999Y-27499999D03*
X178339999Y-27499999D03*
X180879999Y-27499999D03*
X183419999Y-27499999D03*
X185959999Y-27499999D03*
X188499999Y-27499999D03*
%TD*%
%TO.C,TP18*%
X165499999Y-30999999D03*
%TD*%
D10*
%TO.C,JP5*%
X170459999Y-31499999D03*
D11*
X172999999Y-31499999D03*
X175539999Y-31499999D03*
%TD*%
%TO.C,TP17*%
X107499999Y-57499999D03*
%TD*%
D12*
%TO.C,U7*%
X167109992Y-83810008D03*
X169649997Y-83810008D03*
X172190003Y-83810008D03*
X174730008Y-83810008D03*
X174730008Y-76189992D03*
X172190003Y-76189992D03*
X169649997Y-76189992D03*
X167109992Y-76189992D03*
%TD*%
D10*
%TO.C,JP1*%
X142633365Y-96499999D03*
D11*
X145173365Y-96499999D03*
%TD*%
%TO.C,TP2*%
X114999999Y-35999999D03*
%TD*%
%TO.C,TP12*%
X192499999Y-66499999D03*
%TD*%
%TO.C,TP9*%
X113253365Y-96999999D03*
%TD*%
M02*
